<mxfile host="app.diagrams.net" modified="2023-11-07T17:38:45.352Z" agent="Mozilla/5.0 (Windows NT 10.0; Win64; x64) AppleWebKit/537.36 (KHTML, like Gecko) Chrome/119.0.0.0 Safari/537.36" etag="nLZQLo0nRZ8So6FfoPUj" version="22.0.8" type="device" pages="10">
  <diagram name="Page 1" id="2cc2dc42-3aac-f2a9-1cec-7a8b7cbee084">
    <mxGraphModel dx="1434" dy="758" grid="1" gridSize="10" guides="1" tooltips="1" connect="1" arrows="1" fold="1" page="1" pageScale="1" pageWidth="1100" pageHeight="850" background="#ffffff" math="0" shadow="0">
      <root>
        <mxCell id="0" />
        <mxCell id="1" parent="0" />
        <mxCell id="7026571954dc6520-1" value="" style="strokeWidth=1;shadow=0;dashed=0;align=center;html=1;shape=mxgraph.mockup.containers.browserWindow;rSize=0;strokeColor=#666666;mainText=,;recursiveResize=0;rounded=0;labelBackgroundColor=none;fontFamily=Verdana;fontSize=12;container=0;" parent="1" vertex="1">
          <mxGeometry x="25" y="15" width="1050" height="820" as="geometry" />
        </mxCell>
        <mxCell id="7026571954dc6520-2" value="Page 1" style="strokeWidth=1;shadow=0;dashed=0;align=center;html=1;shape=mxgraph.mockup.containers.anchor;fontSize=17;fontColor=#666666;align=left;" parent="1" vertex="1">
          <mxGeometry x="85" y="27" width="110" height="26" as="geometry" />
        </mxCell>
        <mxCell id="7026571954dc6520-3" value="https://www.default.com" style="strokeWidth=1;shadow=0;dashed=0;align=center;html=1;shape=mxgraph.mockup.containers.anchor;rSize=0;fontSize=17;fontColor=#666666;align=left;" parent="1" vertex="1">
          <mxGeometry x="155" y="75" width="250" height="26" as="geometry" />
        </mxCell>
        <mxCell id="qC7FanokqbY84IqSl47z-3" value="" style="verticalLabelPosition=bottom;verticalAlign=top;html=1;shape=mxgraph.basic.rect;fillColor2=none;strokeWidth=1;size=20;indent=5;" parent="1" vertex="1">
          <mxGeometry x="690" y="360" width="260" height="195" as="geometry" />
        </mxCell>
        <mxCell id="qC7FanokqbY84IqSl47z-4" value="&lt;font style=&quot;&quot;&gt;&lt;span style=&quot;font-size: 19px;&quot;&gt;Nemaš korisnički račun?&lt;/span&gt;&lt;br&gt;&lt;font style=&quot;font-size: 15px;&quot;&gt;Registriraj se ovdje &lt;br&gt;i postani naš pacijent!&lt;/font&gt;&lt;/font&gt;" style="text;html=1;points=[];align=center;verticalAlign=top;spacingTop=-4;fontSize=30;fontFamily=Verdana" parent="1" vertex="1">
          <mxGeometry x="721.25" y="360" width="197.5" height="155" as="geometry" />
        </mxCell>
        <mxCell id="7026571954dc6520-19" value="Registracija" style="strokeWidth=1;shadow=0;dashed=0;align=center;html=1;shape=mxgraph.mockup.buttons.button;strokeColor=#3700CC;mainText=;buttonStyle=round;fontSize=17;fontStyle=0;fillColor=#6a00ff;whiteSpace=wrap;rounded=0;labelBackgroundColor=none;fontColor=#ffffff;" parent="1" vertex="1">
          <mxGeometry x="725" y="510" width="190" height="30" as="geometry" />
        </mxCell>
        <mxCell id="qC7FanokqbY84IqSl47z-6" value="" style="group" parent="1" vertex="1" connectable="0">
          <mxGeometry x="180" y="270" width="430" height="350" as="geometry" />
        </mxCell>
        <mxCell id="qC7FanokqbY84IqSl47z-2" value="" style="verticalLabelPosition=bottom;verticalAlign=top;html=1;shape=mxgraph.basic.rect;fillColor2=none;strokeWidth=1;size=20;indent=5;" parent="qC7FanokqbY84IqSl47z-6" vertex="1">
          <mxGeometry x="19.545454545454547" y="10.9375" width="430.00000000000006" height="350" as="geometry" />
        </mxCell>
        <mxCell id="7026571954dc6520-4" value="Prijava" style="text;html=1;points=[];align=center;verticalAlign=top;spacingTop=-4;fontSize=30;fontFamily=Verdana" parent="qC7FanokqbY84IqSl47z-6" vertex="1">
          <mxGeometry x="135.3146853146853" y="32.8125" width="198.46153846153848" height="54.6875" as="geometry" />
        </mxCell>
        <mxCell id="7026571954dc6520-18" value="Prijava" style="strokeWidth=1;shadow=0;dashed=0;align=center;html=1;shape=mxgraph.mockup.buttons.button;strokeColor=#001DBC;mainText=;buttonStyle=round;fontSize=17;fontStyle=0;fillColor=#0050ef;whiteSpace=wrap;rounded=0;labelBackgroundColor=none;fillStyle=solid;fontColor=#ffffff;" parent="qC7FanokqbY84IqSl47z-6" vertex="1">
          <mxGeometry x="154.6095571095571" y="295.3125" width="159.87179487179492" height="32.8125" as="geometry" />
        </mxCell>
        <mxCell id="qC7FanokqbY84IqSl47z-16" value="" style="rounded=0;whiteSpace=wrap;html=1;" parent="qC7FanokqbY84IqSl47z-6" vertex="1">
          <mxGeometry x="121.53263403263404" y="207.8125" width="226.02564102564108" height="21.875" as="geometry" />
        </mxCell>
        <mxCell id="qC7FanokqbY84IqSl47z-15" value="" style="rounded=0;whiteSpace=wrap;html=1;" parent="qC7FanokqbY84IqSl47z-6" vertex="1">
          <mxGeometry x="121.53263403263404" y="136.71875" width="226.02564102564108" height="21.875" as="geometry" />
        </mxCell>
        <mxCell id="qC7FanokqbY84IqSl47z-18" value="E-mail adresa" style="text;html=1;strokeColor=none;fillColor=none;align=left;verticalAlign=middle;whiteSpace=wrap;rounded=0;" parent="qC7FanokqbY84IqSl47z-6" vertex="1">
          <mxGeometry x="120" y="106.72" width="98.47" height="30" as="geometry" />
        </mxCell>
        <mxCell id="qC7FanokqbY84IqSl47z-20" value="Lozinka" style="text;html=1;strokeColor=none;fillColor=none;align=left;verticalAlign=middle;whiteSpace=wrap;rounded=0;" parent="qC7FanokqbY84IqSl47z-6" vertex="1">
          <mxGeometry x="120" y="177.81000000000006" width="98.47" height="30" as="geometry" />
        </mxCell>
        <mxCell id="T8KuTs-rTGLV_aXuocK9-2" value="*ovaj page vide svi*" style="text;strokeColor=none;fillColor=none;html=1;fontSize=24;fontStyle=1;verticalAlign=middle;align=center;" parent="1" vertex="1">
          <mxGeometry x="370" y="20" width="420" height="40" as="geometry" />
        </mxCell>
      </root>
    </mxGraphModel>
  </diagram>
  <diagram name="Page 2" id="7Z2a4fKjSssAmQ8xNYsr">
    <mxGraphModel dx="1434" dy="758" grid="1" gridSize="10" guides="1" tooltips="1" connect="1" arrows="1" fold="1" page="1" pageScale="1" pageWidth="1100" pageHeight="850" background="#ffffff" math="0" shadow="0">
      <root>
        <mxCell id="68EVCr7dwwUY06HPEHD--0" />
        <mxCell id="68EVCr7dwwUY06HPEHD--1" parent="68EVCr7dwwUY06HPEHD--0" />
        <mxCell id="68EVCr7dwwUY06HPEHD--2" value="" style="strokeWidth=1;shadow=0;dashed=0;align=center;html=1;shape=mxgraph.mockup.containers.browserWindow;rSize=0;strokeColor=#666666;mainText=,;recursiveResize=0;rounded=0;labelBackgroundColor=none;fontFamily=Verdana;fontSize=12;container=0;" parent="68EVCr7dwwUY06HPEHD--1" vertex="1">
          <mxGeometry x="25" y="15" width="1050" height="820" as="geometry" />
        </mxCell>
        <mxCell id="68EVCr7dwwUY06HPEHD--3" value="Page 2" style="strokeWidth=1;shadow=0;dashed=0;align=center;html=1;shape=mxgraph.mockup.containers.anchor;fontSize=17;fontColor=#666666;align=left;" parent="68EVCr7dwwUY06HPEHD--1" vertex="1">
          <mxGeometry x="85" y="27" width="110" height="26" as="geometry" />
        </mxCell>
        <mxCell id="68EVCr7dwwUY06HPEHD--4" value="https://www.default.com" style="strokeWidth=1;shadow=0;dashed=0;align=center;html=1;shape=mxgraph.mockup.containers.anchor;rSize=0;fontSize=17;fontColor=#666666;align=left;" parent="68EVCr7dwwUY06HPEHD--1" vertex="1">
          <mxGeometry x="155" y="75" width="250" height="26" as="geometry" />
        </mxCell>
        <mxCell id="JgjORzVcveN_crzZ-qYL-1" value="" style="rounded=0;whiteSpace=wrap;html=1;" parent="68EVCr7dwwUY06HPEHD--1" vertex="1">
          <mxGeometry x="278" y="190" width="545" height="560" as="geometry" />
        </mxCell>
        <mxCell id="JgjORzVcveN_crzZ-qYL-0" value="&lt;font style=&quot;font-size: 30px;&quot;&gt;Registracija - novi pacijent&lt;/font&gt;" style="text;strokeColor=none;fillColor=none;html=1;fontSize=24;fontStyle=1;verticalAlign=middle;align=left;" parent="68EVCr7dwwUY06HPEHD--1" vertex="1">
          <mxGeometry x="310" y="200" width="390" height="50" as="geometry" />
        </mxCell>
        <mxCell id="JgjORzVcveN_crzZ-qYL-3" value="Ime" style="fillColor=none;strokeColor=none;align=left;fontSize=14;" parent="68EVCr7dwwUY06HPEHD--1" vertex="1">
          <mxGeometry width="180" height="40" relative="1" as="geometry">
            <mxPoint x="310" y="270" as="offset" />
          </mxGeometry>
        </mxCell>
        <mxCell id="JgjORzVcveN_crzZ-qYL-4" value="" style="html=1;shadow=0;dashed=0;shape=mxgraph.bootstrap.rrect;rSize=5;fillColor=none;strokeColor=#999999;align=left;spacing=15;fontSize=14;fontColor=#6C767D;" parent="68EVCr7dwwUY06HPEHD--1" vertex="1">
          <mxGeometry width="210" height="30" relative="1" as="geometry">
            <mxPoint x="310" y="310" as="offset" />
          </mxGeometry>
        </mxCell>
        <mxCell id="JgjORzVcveN_crzZ-qYL-6" value="Lozinka" style="fillColor=none;strokeColor=none;align=left;fontSize=14;" parent="68EVCr7dwwUY06HPEHD--1" vertex="1">
          <mxGeometry width="260" height="40" relative="1" as="geometry">
            <mxPoint x="310" y="553" as="offset" />
          </mxGeometry>
        </mxCell>
        <mxCell id="JgjORzVcveN_crzZ-qYL-7" value="" style="html=1;shadow=0;dashed=0;shape=mxgraph.bootstrap.rrect;rSize=5;fillColor=none;strokeColor=#999999;align=left;spacing=15;fontSize=14;fontColor=#6C767D;" parent="68EVCr7dwwUY06HPEHD--1" vertex="1">
          <mxGeometry width="470" height="30" relative="1" as="geometry">
            <mxPoint x="310" y="593" as="offset" />
          </mxGeometry>
        </mxCell>
        <mxCell id="JgjORzVcveN_crzZ-qYL-8" value="Zapamti me" style="html=1;shadow=0;dashed=0;shape=mxgraph.bootstrap.rrect;rSize=2;fillColor=#EDEDED;strokeColor=#999999;align=left;fontSize=14;fontColor=#000000;labelPosition=right;verticalLabelPosition=middle;verticalAlign=middle;spacingLeft=5;spacingTop=-2;gradientColor=#DEDEDE;" parent="68EVCr7dwwUY06HPEHD--1" vertex="1">
          <mxGeometry width="10" height="10" relative="1" as="geometry">
            <mxPoint x="310" y="633" as="offset" />
          </mxGeometry>
        </mxCell>
        <mxCell id="JgjORzVcveN_crzZ-qYL-9" value="Registriraj se" style="html=1;shadow=0;dashed=0;shape=mxgraph.bootstrap.rrect;rSize=5;fillColor=#0085FC;strokeColor=none;align=center;fontSize=14;fontColor=#FFFFFF;" parent="68EVCr7dwwUY06HPEHD--1" vertex="1">
          <mxGeometry width="220" height="40" relative="1" as="geometry">
            <mxPoint x="565" y="690" as="offset" />
          </mxGeometry>
        </mxCell>
        <mxCell id="qFvgxYFD9odB63UrFAiN-0" value="&lt;font color=&quot;#ffffff&quot;&gt;Odustani&lt;/font&gt;" style="html=1;shadow=0;dashed=0;shape=mxgraph.bootstrap.rrect;rSize=5;fillColor=#98A2B0;strokeColor=#6c8ebf;align=center;fontSize=14;" parent="68EVCr7dwwUY06HPEHD--1" vertex="1">
          <mxGeometry x="305" y="690" width="220" height="40" as="geometry" />
        </mxCell>
        <mxCell id="qFvgxYFD9odB63UrFAiN-1" value="E-mail adresa" style="fillColor=none;strokeColor=none;align=left;fontSize=14;" parent="68EVCr7dwwUY06HPEHD--1" vertex="1">
          <mxGeometry x="310" y="340" width="260" height="40" as="geometry" />
        </mxCell>
        <mxCell id="qFvgxYFD9odB63UrFAiN-2" value="" style="html=1;shadow=0;dashed=0;shape=mxgraph.bootstrap.rrect;rSize=5;fillColor=none;strokeColor=#999999;align=left;spacing=15;fontSize=14;fontColor=#6C767D;" parent="68EVCr7dwwUY06HPEHD--1" vertex="1">
          <mxGeometry x="310" y="380" width="470" height="30" as="geometry" />
        </mxCell>
        <mxCell id="qFvgxYFD9odB63UrFAiN-3" value="MBO" style="fillColor=none;strokeColor=none;align=left;fontSize=14;" parent="68EVCr7dwwUY06HPEHD--1" vertex="1">
          <mxGeometry x="310" y="410" width="260" height="40" as="geometry" />
        </mxCell>
        <mxCell id="qFvgxYFD9odB63UrFAiN-4" value="" style="html=1;shadow=0;dashed=0;shape=mxgraph.bootstrap.rrect;rSize=5;fillColor=none;strokeColor=#999999;align=left;spacing=15;fontSize=14;fontColor=#6C767D;" parent="68EVCr7dwwUY06HPEHD--1" vertex="1">
          <mxGeometry x="310" y="450" width="470" height="30" as="geometry" />
        </mxCell>
        <mxCell id="yTvr22VXza8jWi3XABzq-0" value="*ovaj page vide svi*" style="text;strokeColor=none;fillColor=none;html=1;fontSize=24;fontStyle=1;verticalAlign=middle;align=center;" parent="68EVCr7dwwUY06HPEHD--1" vertex="1">
          <mxGeometry x="370" y="20" width="420" height="40" as="geometry" />
        </mxCell>
        <mxCell id="_6wwPz7ZyjW1CkhaLnaR-0" value="Prezime" style="fillColor=none;strokeColor=none;align=left;fontSize=14;" parent="68EVCr7dwwUY06HPEHD--1" vertex="1">
          <mxGeometry x="560" y="270" width="180" height="40" as="geometry" />
        </mxCell>
        <mxCell id="_6wwPz7ZyjW1CkhaLnaR-1" value="" style="html=1;shadow=0;dashed=0;shape=mxgraph.bootstrap.rrect;rSize=5;fillColor=none;strokeColor=#999999;align=left;spacing=15;fontSize=14;fontColor=#6C767D;" parent="68EVCr7dwwUY06HPEHD--1" vertex="1">
          <mxGeometry x="560" y="310" width="220" height="30" as="geometry" />
        </mxCell>
        <mxCell id="Lm_eLwZbjEbEDgAB867u-0" value="Broj telefona" style="fillColor=none;strokeColor=none;align=left;fontSize=14;" parent="68EVCr7dwwUY06HPEHD--1" vertex="1">
          <mxGeometry x="310" y="484" width="260" height="40" as="geometry" />
        </mxCell>
        <mxCell id="Lm_eLwZbjEbEDgAB867u-1" value="" style="html=1;shadow=0;dashed=0;shape=mxgraph.bootstrap.rrect;rSize=5;fillColor=none;strokeColor=#999999;align=left;spacing=15;fontSize=14;fontColor=#6C767D;" parent="68EVCr7dwwUY06HPEHD--1" vertex="1">
          <mxGeometry x="310" y="524" width="470" height="30" as="geometry" />
        </mxCell>
      </root>
    </mxGraphModel>
  </diagram>
  <diagram name="Page 3" id="90ajAMpbpxIdkd4LUQIp">
    <mxGraphModel dx="1434" dy="758" grid="1" gridSize="10" guides="1" tooltips="1" connect="1" arrows="1" fold="1" page="1" pageScale="1" pageWidth="1100" pageHeight="850" background="#ffffff" math="0" shadow="0">
      <root>
        <mxCell id="dp846cBmucz0jCjNZ9nw-0" />
        <mxCell id="dp846cBmucz0jCjNZ9nw-1" parent="dp846cBmucz0jCjNZ9nw-0" />
        <mxCell id="dp846cBmucz0jCjNZ9nw-2" value="" style="strokeWidth=1;shadow=0;dashed=0;align=center;html=1;shape=mxgraph.mockup.containers.browserWindow;rSize=0;strokeColor=#666666;mainText=,;recursiveResize=0;rounded=0;labelBackgroundColor=none;fontFamily=Verdana;fontSize=12;container=0;" parent="dp846cBmucz0jCjNZ9nw-1" vertex="1">
          <mxGeometry x="25" y="15" width="1050" height="1175" as="geometry" />
        </mxCell>
        <mxCell id="dp846cBmucz0jCjNZ9nw-3" value="Page 3" style="strokeWidth=1;shadow=0;dashed=0;align=center;html=1;shape=mxgraph.mockup.containers.anchor;fontSize=17;fontColor=#666666;align=left;" parent="dp846cBmucz0jCjNZ9nw-1" vertex="1">
          <mxGeometry x="85" y="27" width="110" height="26" as="geometry" />
        </mxCell>
        <mxCell id="dp846cBmucz0jCjNZ9nw-4" value="https://www.default.com" style="strokeWidth=1;shadow=0;dashed=0;align=center;html=1;shape=mxgraph.mockup.containers.anchor;rSize=0;fontSize=17;fontColor=#666666;align=left;" parent="dp846cBmucz0jCjNZ9nw-1" vertex="1">
          <mxGeometry x="155" y="75" width="250" height="26" as="geometry" />
        </mxCell>
        <mxCell id="B_HMZaKovBQHZSgaj6kg-6" value="&lt;font style=&quot;font-size: 30px;&quot;&gt;Moji zahtjevi&lt;/font&gt;" style="text;strokeColor=none;fillColor=none;html=1;fontSize=24;fontStyle=1;verticalAlign=middle;align=left;" parent="dp846cBmucz0jCjNZ9nw-1" vertex="1">
          <mxGeometry x="75" y="170" width="440" height="70" as="geometry" />
        </mxCell>
        <mxCell id="B_HMZaKovBQHZSgaj6kg-67" value="+&amp;nbsp; &amp;nbsp;NARUČI SE" style="rounded=1;whiteSpace=wrap;html=1;fillColor=#60a917;strokeColor=#2D7600;fontColor=#ffffff;" parent="dp846cBmucz0jCjNZ9nw-1" vertex="1">
          <mxGeometry x="885" y="185" width="140" height="40" as="geometry" />
        </mxCell>
        <mxCell id="oFqjRL5489UMKO5IAP8--0" value="*ovaj page vide samo pacijenti*" style="text;strokeColor=none;fillColor=none;html=1;fontSize=24;fontStyle=1;verticalAlign=middle;align=center;" parent="dp846cBmucz0jCjNZ9nw-1" vertex="1">
          <mxGeometry x="370" y="20" width="420" height="40" as="geometry" />
        </mxCell>
        <mxCell id="B_HMZaKovBQHZSgaj6kg-46" value="Assets" style="childLayout=tableLayout;recursiveResize=0;strokeColor=#98bf21;fillColor=default;shadow=1;rounded=0;resizeLastRow=0;" parent="dp846cBmucz0jCjNZ9nw-1" vertex="1">
          <mxGeometry x="61" y="260" width="978" height="359" as="geometry" />
        </mxCell>
        <mxCell id="B_HMZaKovBQHZSgaj6kg-47" style="shape=tableRow;horizontal=0;startSize=0;swimlaneHead=0;swimlaneBody=0;top=0;left=0;bottom=0;right=0;dropTarget=0;collapsible=0;recursiveResize=0;expand=0;fontStyle=0;strokeColor=inherit;fillColor=#ffffff;" parent="B_HMZaKovBQHZSgaj6kg-46" vertex="1">
          <mxGeometry width="978" height="45" as="geometry" />
        </mxCell>
        <mxCell id="B_HMZaKovBQHZSgaj6kg-48" value="Predano" style="connectable=0;recursiveResize=0;strokeColor=inherit;fillColor=#98A2B0;align=center;fontStyle=1;fontColor=#FFFFFF;html=1;" parent="B_HMZaKovBQHZSgaj6kg-47" vertex="1">
          <mxGeometry width="123" height="45" as="geometry">
            <mxRectangle width="123" height="45" as="alternateBounds" />
          </mxGeometry>
        </mxCell>
        <mxCell id="_dCOSLzVpMSaft1Qg1WX-0" value="Željeni termin" style="connectable=0;recursiveResize=0;strokeColor=inherit;fillColor=#98A2B0;align=center;fontStyle=1;fontColor=#FFFFFF;html=1;" vertex="1" parent="B_HMZaKovBQHZSgaj6kg-47">
          <mxGeometry x="123" width="123" height="45" as="geometry">
            <mxRectangle width="123" height="45" as="alternateBounds" />
          </mxGeometry>
        </mxCell>
        <mxCell id="KKyKz1t1mWaiKlY2JvMR-5" value="Tip rehabilitacije" style="connectable=0;recursiveResize=0;strokeColor=inherit;fillColor=#98A2B0;align=center;fontStyle=1;fontColor=#FFFFFF;html=1;" parent="B_HMZaKovBQHZSgaj6kg-47" vertex="1">
          <mxGeometry x="246" width="158" height="45" as="geometry">
            <mxRectangle width="158" height="45" as="alternateBounds" />
          </mxGeometry>
        </mxCell>
        <mxCell id="KKyKz1t1mWaiKlY2JvMR-0" value="Liječnik koji Vas je uputio:&amp;nbsp;" style="connectable=0;recursiveResize=0;strokeColor=inherit;fillColor=#98A2B0;align=center;fontStyle=1;fontColor=#FFFFFF;html=1;" parent="B_HMZaKovBQHZSgaj6kg-47" vertex="1">
          <mxGeometry x="404" width="194" height="45" as="geometry">
            <mxRectangle width="194" height="45" as="alternateBounds" />
          </mxGeometry>
        </mxCell>
        <mxCell id="B_HMZaKovBQHZSgaj6kg-49" value="Referenca na prošlu terapiju:" style="connectable=0;recursiveResize=0;strokeColor=inherit;fillColor=#98A2B0;align=center;fontStyle=1;fontColor=#FFFFFF;html=1;" parent="B_HMZaKovBQHZSgaj6kg-47" vertex="1">
          <mxGeometry x="598" width="202" height="45" as="geometry">
            <mxRectangle width="202" height="45" as="alternateBounds" />
          </mxGeometry>
        </mxCell>
        <mxCell id="B_HMZaKovBQHZSgaj6kg-50" value="Status" style="connectable=0;recursiveResize=0;strokeColor=inherit;fillColor=#98A2B0;align=center;fontStyle=1;fontColor=#FFFFFF;html=1;" parent="B_HMZaKovBQHZSgaj6kg-47" vertex="1">
          <mxGeometry x="800" width="178" height="45" as="geometry">
            <mxRectangle width="178" height="45" as="alternateBounds" />
          </mxGeometry>
        </mxCell>
        <mxCell id="B_HMZaKovBQHZSgaj6kg-51" value="" style="shape=tableRow;horizontal=0;startSize=0;swimlaneHead=0;swimlaneBody=0;top=0;left=0;bottom=0;right=0;dropTarget=0;collapsible=0;recursiveResize=0;expand=0;fontStyle=0;strokeColor=inherit;fillColor=#ffffff;" parent="B_HMZaKovBQHZSgaj6kg-46" vertex="1">
          <mxGeometry y="45" width="978" height="79" as="geometry" />
        </mxCell>
        <mxCell id="B_HMZaKovBQHZSgaj6kg-52" value="30.12.2023. u 9:00" style="connectable=0;recursiveResize=0;strokeColor=inherit;fillColor=inherit;align=center;whiteSpace=wrap;html=1;" parent="B_HMZaKovBQHZSgaj6kg-51" vertex="1">
          <mxGeometry width="123" height="79" as="geometry">
            <mxRectangle width="123" height="79" as="alternateBounds" />
          </mxGeometry>
        </mxCell>
        <mxCell id="_dCOSLzVpMSaft1Qg1WX-1" value="30.3.2024. u 9:00" style="connectable=0;recursiveResize=0;strokeColor=inherit;fillColor=inherit;align=center;whiteSpace=wrap;html=1;" vertex="1" parent="B_HMZaKovBQHZSgaj6kg-51">
          <mxGeometry x="123" width="123" height="79" as="geometry">
            <mxRectangle width="123" height="79" as="alternateBounds" />
          </mxGeometry>
        </mxCell>
        <mxCell id="KKyKz1t1mWaiKlY2JvMR-6" value="Za kralježnicu" style="connectable=0;recursiveResize=0;strokeColor=inherit;fillColor=inherit;align=center;whiteSpace=wrap;html=1;" parent="B_HMZaKovBQHZSgaj6kg-51" vertex="1">
          <mxGeometry x="246" width="158" height="79" as="geometry">
            <mxRectangle width="158" height="79" as="alternateBounds" />
          </mxGeometry>
        </mxCell>
        <mxCell id="KKyKz1t1mWaiKlY2JvMR-1" value="dr. Tomislav Šarić" style="connectable=0;recursiveResize=0;strokeColor=inherit;fillColor=inherit;align=center;whiteSpace=wrap;html=1;" parent="B_HMZaKovBQHZSgaj6kg-51" vertex="1">
          <mxGeometry x="404" width="194" height="79" as="geometry">
            <mxRectangle width="194" height="79" as="alternateBounds" />
          </mxGeometry>
        </mxCell>
        <mxCell id="B_HMZaKovBQHZSgaj6kg-53" value="/" style="connectable=0;recursiveResize=0;strokeColor=inherit;fillColor=inherit;align=center;whiteSpace=wrap;html=1;" parent="B_HMZaKovBQHZSgaj6kg-51" vertex="1">
          <mxGeometry x="598" width="202" height="79" as="geometry">
            <mxRectangle width="202" height="79" as="alternateBounds" />
          </mxGeometry>
        </mxCell>
        <mxCell id="B_HMZaKovBQHZSgaj6kg-54" value="ČEKA NA ODOBRENJE" style="connectable=0;recursiveResize=0;strokeColor=inherit;fillColor=inherit;align=center;whiteSpace=wrap;html=1;" parent="B_HMZaKovBQHZSgaj6kg-51" vertex="1">
          <mxGeometry x="800" width="178" height="79" as="geometry">
            <mxRectangle width="178" height="79" as="alternateBounds" />
          </mxGeometry>
        </mxCell>
        <mxCell id="B_HMZaKovBQHZSgaj6kg-55" value="" style="shape=tableRow;horizontal=0;startSize=0;swimlaneHead=0;swimlaneBody=0;top=0;left=0;bottom=0;right=0;dropTarget=0;collapsible=0;recursiveResize=0;expand=0;fontStyle=1;strokeColor=inherit;fillColor=#EAF2D3;" parent="B_HMZaKovBQHZSgaj6kg-46" vertex="1">
          <mxGeometry y="124" width="978" height="77" as="geometry" />
        </mxCell>
        <mxCell id="B_HMZaKovBQHZSgaj6kg-56" value="11.12.2023. u 14:00" style="connectable=0;recursiveResize=0;strokeColor=#36393d;fillColor=#eeeeee;whiteSpace=wrap;html=1;" parent="B_HMZaKovBQHZSgaj6kg-55" vertex="1">
          <mxGeometry width="123" height="77" as="geometry">
            <mxRectangle width="123" height="77" as="alternateBounds" />
          </mxGeometry>
        </mxCell>
        <mxCell id="_dCOSLzVpMSaft1Qg1WX-2" value="16.12.2023. u 14:00" style="connectable=0;recursiveResize=0;strokeColor=#36393d;fillColor=#eeeeee;whiteSpace=wrap;html=1;" vertex="1" parent="B_HMZaKovBQHZSgaj6kg-55">
          <mxGeometry x="123" width="123" height="77" as="geometry">
            <mxRectangle width="123" height="77" as="alternateBounds" />
          </mxGeometry>
        </mxCell>
        <mxCell id="KKyKz1t1mWaiKlY2JvMR-7" value="Za rame" style="connectable=0;recursiveResize=0;strokeColor=#36393d;fillColor=#eeeeee;whiteSpace=wrap;html=1;" parent="B_HMZaKovBQHZSgaj6kg-55" vertex="1">
          <mxGeometry x="246" width="158" height="77" as="geometry">
            <mxRectangle width="158" height="77" as="alternateBounds" />
          </mxGeometry>
        </mxCell>
        <mxCell id="KKyKz1t1mWaiKlY2JvMR-2" style="connectable=0;recursiveResize=0;strokeColor=#36393d;fillColor=#eeeeee;whiteSpace=wrap;html=1;" parent="B_HMZaKovBQHZSgaj6kg-55" vertex="1">
          <mxGeometry x="404" width="194" height="77" as="geometry">
            <mxRectangle width="194" height="77" as="alternateBounds" />
          </mxGeometry>
        </mxCell>
        <mxCell id="B_HMZaKovBQHZSgaj6kg-57" value="..." style="connectable=0;recursiveResize=0;strokeColor=#36393d;fillColor=#eeeeee;whiteSpace=wrap;html=1;" parent="B_HMZaKovBQHZSgaj6kg-55" vertex="1">
          <mxGeometry x="598" width="202" height="77" as="geometry">
            <mxRectangle width="202" height="77" as="alternateBounds" />
          </mxGeometry>
        </mxCell>
        <mxCell id="B_HMZaKovBQHZSgaj6kg-58" value="ODBIJENO" style="connectable=0;recursiveResize=0;strokeColor=#36393d;fillColor=#eeeeee;whiteSpace=wrap;html=1;" parent="B_HMZaKovBQHZSgaj6kg-55" vertex="1">
          <mxGeometry x="800" width="178" height="77" as="geometry">
            <mxRectangle width="178" height="77" as="alternateBounds" />
          </mxGeometry>
        </mxCell>
        <mxCell id="B_HMZaKovBQHZSgaj6kg-59" value="" style="shape=tableRow;horizontal=0;startSize=0;swimlaneHead=0;swimlaneBody=0;top=0;left=0;bottom=0;right=0;dropTarget=0;collapsible=0;recursiveResize=0;expand=0;fontStyle=0;strokeColor=inherit;fillColor=#ffffff;" parent="B_HMZaKovBQHZSgaj6kg-46" vertex="1">
          <mxGeometry y="201" width="978" height="81" as="geometry" />
        </mxCell>
        <mxCell id="B_HMZaKovBQHZSgaj6kg-60" value="10.4.2014. u 11:00" style="connectable=0;recursiveResize=0;strokeColor=inherit;fillColor=inherit;fontStyle=0;align=center;whiteSpace=wrap;html=1;" parent="B_HMZaKovBQHZSgaj6kg-59" vertex="1">
          <mxGeometry width="123" height="81" as="geometry">
            <mxRectangle width="123" height="81" as="alternateBounds" />
          </mxGeometry>
        </mxCell>
        <mxCell id="_dCOSLzVpMSaft1Qg1WX-3" value="12.4.2014. u 11:00" style="connectable=0;recursiveResize=0;strokeColor=inherit;fillColor=inherit;fontStyle=0;align=center;whiteSpace=wrap;html=1;" vertex="1" parent="B_HMZaKovBQHZSgaj6kg-59">
          <mxGeometry x="123" width="123" height="81" as="geometry">
            <mxRectangle width="123" height="81" as="alternateBounds" />
          </mxGeometry>
        </mxCell>
        <mxCell id="KKyKz1t1mWaiKlY2JvMR-8" value="Za rame" style="connectable=0;recursiveResize=0;strokeColor=inherit;fillColor=inherit;fontStyle=0;align=center;whiteSpace=wrap;html=1;" parent="B_HMZaKovBQHZSgaj6kg-59" vertex="1">
          <mxGeometry x="246" width="158" height="81" as="geometry">
            <mxRectangle width="158" height="81" as="alternateBounds" />
          </mxGeometry>
        </mxCell>
        <mxCell id="KKyKz1t1mWaiKlY2JvMR-3" style="connectable=0;recursiveResize=0;strokeColor=inherit;fillColor=inherit;fontStyle=0;align=center;whiteSpace=wrap;html=1;" parent="B_HMZaKovBQHZSgaj6kg-59" vertex="1">
          <mxGeometry x="404" width="194" height="81" as="geometry">
            <mxRectangle width="194" height="81" as="alternateBounds" />
          </mxGeometry>
        </mxCell>
        <mxCell id="B_HMZaKovBQHZSgaj6kg-61" value="..." style="connectable=0;recursiveResize=0;strokeColor=inherit;fillColor=inherit;fontStyle=0;align=center;whiteSpace=wrap;html=1;" parent="B_HMZaKovBQHZSgaj6kg-59" vertex="1">
          <mxGeometry x="598" width="202" height="81" as="geometry">
            <mxRectangle width="202" height="81" as="alternateBounds" />
          </mxGeometry>
        </mxCell>
        <mxCell id="B_HMZaKovBQHZSgaj6kg-62" value="ODOBRENO" style="connectable=0;recursiveResize=0;strokeColor=inherit;fillColor=inherit;fontStyle=0;align=center;whiteSpace=wrap;html=1;" parent="B_HMZaKovBQHZSgaj6kg-59" vertex="1">
          <mxGeometry x="800" width="178" height="81" as="geometry">
            <mxRectangle width="178" height="81" as="alternateBounds" />
          </mxGeometry>
        </mxCell>
        <mxCell id="B_HMZaKovBQHZSgaj6kg-63" value="" style="shape=tableRow;horizontal=0;startSize=0;swimlaneHead=0;swimlaneBody=0;top=0;left=0;bottom=0;right=0;dropTarget=0;collapsible=0;recursiveResize=0;expand=0;fontStyle=1;strokeColor=inherit;fillColor=#EAF2D3;" parent="B_HMZaKovBQHZSgaj6kg-46" vertex="1">
          <mxGeometry y="282" width="978" height="77" as="geometry" />
        </mxCell>
        <mxCell id="B_HMZaKovBQHZSgaj6kg-64" value="1.2.2008. u 12:00" style="connectable=0;recursiveResize=0;strokeColor=#36393d;fillColor=#eeeeee;whiteSpace=wrap;html=1;" parent="B_HMZaKovBQHZSgaj6kg-63" vertex="1">
          <mxGeometry width="123" height="77" as="geometry">
            <mxRectangle width="123" height="77" as="alternateBounds" />
          </mxGeometry>
        </mxCell>
        <mxCell id="_dCOSLzVpMSaft1Qg1WX-4" value="1.3.2008. u 12:00" style="connectable=0;recursiveResize=0;strokeColor=#36393d;fillColor=#eeeeee;whiteSpace=wrap;html=1;" vertex="1" parent="B_HMZaKovBQHZSgaj6kg-63">
          <mxGeometry x="123" width="123" height="77" as="geometry">
            <mxRectangle width="123" height="77" as="alternateBounds" />
          </mxGeometry>
        </mxCell>
        <mxCell id="KKyKz1t1mWaiKlY2JvMR-9" value="Za rame" style="connectable=0;recursiveResize=0;strokeColor=#36393d;fillColor=#eeeeee;whiteSpace=wrap;html=1;" parent="B_HMZaKovBQHZSgaj6kg-63" vertex="1">
          <mxGeometry x="246" width="158" height="77" as="geometry">
            <mxRectangle width="158" height="77" as="alternateBounds" />
          </mxGeometry>
        </mxCell>
        <mxCell id="KKyKz1t1mWaiKlY2JvMR-4" style="connectable=0;recursiveResize=0;strokeColor=#36393d;fillColor=#eeeeee;whiteSpace=wrap;html=1;" parent="B_HMZaKovBQHZSgaj6kg-63" vertex="1">
          <mxGeometry x="404" width="194" height="77" as="geometry">
            <mxRectangle width="194" height="77" as="alternateBounds" />
          </mxGeometry>
        </mxCell>
        <mxCell id="B_HMZaKovBQHZSgaj6kg-65" value="..." style="connectable=0;recursiveResize=0;strokeColor=#36393d;fillColor=#eeeeee;whiteSpace=wrap;html=1;" parent="B_HMZaKovBQHZSgaj6kg-63" vertex="1">
          <mxGeometry x="598" width="202" height="77" as="geometry">
            <mxRectangle width="202" height="77" as="alternateBounds" />
          </mxGeometry>
        </mxCell>
        <mxCell id="B_HMZaKovBQHZSgaj6kg-66" value="ISTEKLO" style="connectable=0;recursiveResize=0;strokeColor=#36393d;fillColor=#eeeeee;whiteSpace=wrap;html=1;" parent="B_HMZaKovBQHZSgaj6kg-63" vertex="1">
          <mxGeometry x="800" width="178" height="77" as="geometry">
            <mxRectangle width="178" height="77" as="alternateBounds" />
          </mxGeometry>
        </mxCell>
        <mxCell id="eU6ZR3MKxwXzrRmcHB28-0" value="&lt;font color=&quot;#ff0000&quot;&gt;&lt;span style=&quot;font-size: 16px;&quot;&gt;&lt;b&gt;*ovdje dodati opciju filtriranja, npr &quot;samo zahtjevi na čekanju&quot; *&lt;/b&gt;&lt;/span&gt;&lt;/font&gt;" style="text;html=1;strokeColor=none;fillColor=none;align=left;verticalAlign=middle;whiteSpace=wrap;rounded=0;" vertex="1" parent="dp846cBmucz0jCjNZ9nw-1">
          <mxGeometry x="300" y="190" width="520" height="30" as="geometry" />
        </mxCell>
        <mxCell id="vVNaFBALTApMzwtwymU_-0" value="&lt;font style=&quot;font-size: 30px;&quot;&gt;Moji termini&lt;/font&gt;" style="text;strokeColor=none;fillColor=none;html=1;fontSize=24;fontStyle=1;verticalAlign=middle;align=left;" vertex="1" parent="dp846cBmucz0jCjNZ9nw-1">
          <mxGeometry x="75" y="670" width="440" height="70" as="geometry" />
        </mxCell>
        <mxCell id="_dCOSLzVpMSaft1Qg1WX-6" value="&lt;font color=&quot;#ff0000&quot;&gt;&lt;span style=&quot;font-size: 16px;&quot;&gt;&lt;b&gt;*ako je datum termina prošao, a nitko nije niti potvrdio, niti odbio zahtjev*&lt;/b&gt;&lt;/span&gt;&lt;/font&gt;" style="text;html=1;strokeColor=none;fillColor=none;align=left;verticalAlign=middle;whiteSpace=wrap;rounded=0;" vertex="1" parent="dp846cBmucz0jCjNZ9nw-1">
          <mxGeometry x="875" y="590" width="175" height="90" as="geometry" />
        </mxCell>
        <mxCell id="_dCOSLzVpMSaft1Qg1WX-7" value="Assets" style="childLayout=tableLayout;recursiveResize=0;strokeColor=#98bf21;fillColor=default;shadow=1;rounded=0;resizeLastRow=0;" vertex="1" parent="dp846cBmucz0jCjNZ9nw-1">
          <mxGeometry x="61" y="750" width="978" height="359" as="geometry" />
        </mxCell>
        <mxCell id="_dCOSLzVpMSaft1Qg1WX-8" style="shape=tableRow;horizontal=0;startSize=0;swimlaneHead=0;swimlaneBody=0;top=0;left=0;bottom=0;right=0;dropTarget=0;collapsible=0;recursiveResize=0;expand=0;fontStyle=0;strokeColor=inherit;fillColor=#ffffff;" vertex="1" parent="_dCOSLzVpMSaft1Qg1WX-7">
          <mxGeometry width="978" height="45" as="geometry" />
        </mxCell>
        <mxCell id="_dCOSLzVpMSaft1Qg1WX-9" value="Datum i vrijeme" style="connectable=0;recursiveResize=0;strokeColor=inherit;fillColor=#98A2B0;align=center;fontStyle=1;fontColor=#FFFFFF;html=1;" vertex="1" parent="_dCOSLzVpMSaft1Qg1WX-8">
          <mxGeometry width="123" height="45" as="geometry">
            <mxRectangle width="123" height="45" as="alternateBounds" />
          </mxGeometry>
        </mxCell>
        <mxCell id="_dCOSLzVpMSaft1Qg1WX-10" value="Soba" style="connectable=0;recursiveResize=0;strokeColor=inherit;fillColor=#98A2B0;align=center;fontStyle=1;fontColor=#FFFFFF;html=1;" vertex="1" parent="_dCOSLzVpMSaft1Qg1WX-8">
          <mxGeometry x="123" width="123" height="45" as="geometry">
            <mxRectangle width="123" height="45" as="alternateBounds" />
          </mxGeometry>
        </mxCell>
        <mxCell id="_dCOSLzVpMSaft1Qg1WX-11" value="Tip rehabilitacije" style="connectable=0;recursiveResize=0;strokeColor=inherit;fillColor=#98A2B0;align=center;fontStyle=1;fontColor=#FFFFFF;html=1;" vertex="1" parent="_dCOSLzVpMSaft1Qg1WX-8">
          <mxGeometry x="246" width="158" height="45" as="geometry">
            <mxRectangle width="158" height="45" as="alternateBounds" />
          </mxGeometry>
        </mxCell>
        <mxCell id="_dCOSLzVpMSaft1Qg1WX-12" value="Liječnik" style="connectable=0;recursiveResize=0;strokeColor=inherit;fillColor=#98A2B0;align=center;fontStyle=1;fontColor=#FFFFFF;html=1;" vertex="1" parent="_dCOSLzVpMSaft1Qg1WX-8">
          <mxGeometry x="404" width="194" height="45" as="geometry">
            <mxRectangle width="194" height="45" as="alternateBounds" />
          </mxGeometry>
        </mxCell>
        <mxCell id="_dCOSLzVpMSaft1Qg1WX-13" value="Napomene" style="connectable=0;recursiveResize=0;strokeColor=inherit;fillColor=#98A2B0;align=center;fontStyle=1;fontColor=#FFFFFF;html=1;" vertex="1" parent="_dCOSLzVpMSaft1Qg1WX-8">
          <mxGeometry x="598" width="202" height="45" as="geometry">
            <mxRectangle width="202" height="45" as="alternateBounds" />
          </mxGeometry>
        </mxCell>
        <mxCell id="_dCOSLzVpMSaft1Qg1WX-14" value="Ishod" style="connectable=0;recursiveResize=0;strokeColor=inherit;fillColor=#98A2B0;align=center;fontStyle=1;fontColor=#FFFFFF;html=1;" vertex="1" parent="_dCOSLzVpMSaft1Qg1WX-8">
          <mxGeometry x="800" width="178" height="45" as="geometry">
            <mxRectangle width="178" height="45" as="alternateBounds" />
          </mxGeometry>
        </mxCell>
        <mxCell id="_dCOSLzVpMSaft1Qg1WX-15" value="" style="shape=tableRow;horizontal=0;startSize=0;swimlaneHead=0;swimlaneBody=0;top=0;left=0;bottom=0;right=0;dropTarget=0;collapsible=0;recursiveResize=0;expand=0;fontStyle=0;strokeColor=inherit;fillColor=#ffffff;" vertex="1" parent="_dCOSLzVpMSaft1Qg1WX-7">
          <mxGeometry y="45" width="978" height="79" as="geometry" />
        </mxCell>
        <mxCell id="_dCOSLzVpMSaft1Qg1WX-16" value="30.12.2024. u 9:00" style="connectable=0;recursiveResize=0;strokeColor=inherit;fillColor=inherit;align=center;whiteSpace=wrap;html=1;" vertex="1" parent="_dCOSLzVpMSaft1Qg1WX-15">
          <mxGeometry width="123" height="79" as="geometry">
            <mxRectangle width="123" height="79" as="alternateBounds" />
          </mxGeometry>
        </mxCell>
        <mxCell id="_dCOSLzVpMSaft1Qg1WX-17" value="102" style="connectable=0;recursiveResize=0;strokeColor=inherit;fillColor=inherit;align=center;whiteSpace=wrap;html=1;" vertex="1" parent="_dCOSLzVpMSaft1Qg1WX-15">
          <mxGeometry x="123" width="123" height="79" as="geometry">
            <mxRectangle width="123" height="79" as="alternateBounds" />
          </mxGeometry>
        </mxCell>
        <mxCell id="_dCOSLzVpMSaft1Qg1WX-18" value="Za tendinitis" style="connectable=0;recursiveResize=0;strokeColor=inherit;fillColor=inherit;align=center;whiteSpace=wrap;html=1;" vertex="1" parent="_dCOSLzVpMSaft1Qg1WX-15">
          <mxGeometry x="246" width="158" height="79" as="geometry">
            <mxRectangle width="158" height="79" as="alternateBounds" />
          </mxGeometry>
        </mxCell>
        <mxCell id="_dCOSLzVpMSaft1Qg1WX-19" value="Ivanko Zec" style="connectable=0;recursiveResize=0;strokeColor=inherit;fillColor=inherit;align=center;whiteSpace=wrap;html=1;" vertex="1" parent="_dCOSLzVpMSaft1Qg1WX-15">
          <mxGeometry x="404" width="194" height="79" as="geometry">
            <mxRectangle width="194" height="79" as="alternateBounds" />
          </mxGeometry>
        </mxCell>
        <mxCell id="_dCOSLzVpMSaft1Qg1WX-20" value="..." style="connectable=0;recursiveResize=0;strokeColor=inherit;fillColor=inherit;align=center;whiteSpace=wrap;html=1;" vertex="1" parent="_dCOSLzVpMSaft1Qg1WX-15">
          <mxGeometry x="598" width="202" height="79" as="geometry">
            <mxRectangle width="202" height="79" as="alternateBounds" />
          </mxGeometry>
        </mxCell>
        <mxCell id="_dCOSLzVpMSaft1Qg1WX-21" value="TERMIN ZAKAZAN" style="connectable=0;recursiveResize=0;strokeColor=inherit;fillColor=inherit;align=center;whiteSpace=wrap;html=1;" vertex="1" parent="_dCOSLzVpMSaft1Qg1WX-15">
          <mxGeometry x="800" width="178" height="79" as="geometry">
            <mxRectangle width="178" height="79" as="alternateBounds" />
          </mxGeometry>
        </mxCell>
        <mxCell id="_dCOSLzVpMSaft1Qg1WX-22" value="" style="shape=tableRow;horizontal=0;startSize=0;swimlaneHead=0;swimlaneBody=0;top=0;left=0;bottom=0;right=0;dropTarget=0;collapsible=0;recursiveResize=0;expand=0;fontStyle=1;strokeColor=inherit;fillColor=#EAF2D3;" vertex="1" parent="_dCOSLzVpMSaft1Qg1WX-7">
          <mxGeometry y="124" width="978" height="77" as="geometry" />
        </mxCell>
        <mxCell id="_dCOSLzVpMSaft1Qg1WX-23" value="11.12.2023. u 14:00" style="connectable=0;recursiveResize=0;strokeColor=#36393d;fillColor=#eeeeee;whiteSpace=wrap;html=1;" vertex="1" parent="_dCOSLzVpMSaft1Qg1WX-22">
          <mxGeometry width="123" height="77" as="geometry">
            <mxRectangle width="123" height="77" as="alternateBounds" />
          </mxGeometry>
        </mxCell>
        <mxCell id="_dCOSLzVpMSaft1Qg1WX-24" value="155" style="connectable=0;recursiveResize=0;strokeColor=#36393d;fillColor=#eeeeee;whiteSpace=wrap;html=1;" vertex="1" parent="_dCOSLzVpMSaft1Qg1WX-22">
          <mxGeometry x="123" width="123" height="77" as="geometry">
            <mxRectangle width="123" height="77" as="alternateBounds" />
          </mxGeometry>
        </mxCell>
        <mxCell id="_dCOSLzVpMSaft1Qg1WX-25" value="Za kuk" style="connectable=0;recursiveResize=0;strokeColor=#36393d;fillColor=#eeeeee;whiteSpace=wrap;html=1;" vertex="1" parent="_dCOSLzVpMSaft1Qg1WX-22">
          <mxGeometry x="246" width="158" height="77" as="geometry">
            <mxRectangle width="158" height="77" as="alternateBounds" />
          </mxGeometry>
        </mxCell>
        <mxCell id="_dCOSLzVpMSaft1Qg1WX-26" value="Mario Posavac" style="connectable=0;recursiveResize=0;strokeColor=#36393d;fillColor=#eeeeee;whiteSpace=wrap;html=1;" vertex="1" parent="_dCOSLzVpMSaft1Qg1WX-22">
          <mxGeometry x="404" width="194" height="77" as="geometry">
            <mxRectangle width="194" height="77" as="alternateBounds" />
          </mxGeometry>
        </mxCell>
        <mxCell id="_dCOSLzVpMSaft1Qg1WX-27" value="..." style="connectable=0;recursiveResize=0;strokeColor=#36393d;fillColor=#eeeeee;whiteSpace=wrap;html=1;" vertex="1" parent="_dCOSLzVpMSaft1Qg1WX-22">
          <mxGeometry x="598" width="202" height="77" as="geometry">
            <mxRectangle width="202" height="77" as="alternateBounds" />
          </mxGeometry>
        </mxCell>
        <mxCell id="_dCOSLzVpMSaft1Qg1WX-28" value="NISTE SE POJAVILI" style="connectable=0;recursiveResize=0;strokeColor=#36393d;fillColor=#eeeeee;whiteSpace=wrap;html=1;" vertex="1" parent="_dCOSLzVpMSaft1Qg1WX-22">
          <mxGeometry x="800" width="178" height="77" as="geometry">
            <mxRectangle width="178" height="77" as="alternateBounds" />
          </mxGeometry>
        </mxCell>
        <mxCell id="_dCOSLzVpMSaft1Qg1WX-29" value="" style="shape=tableRow;horizontal=0;startSize=0;swimlaneHead=0;swimlaneBody=0;top=0;left=0;bottom=0;right=0;dropTarget=0;collapsible=0;recursiveResize=0;expand=0;fontStyle=0;strokeColor=inherit;fillColor=#ffffff;" vertex="1" parent="_dCOSLzVpMSaft1Qg1WX-7">
          <mxGeometry y="201" width="978" height="81" as="geometry" />
        </mxCell>
        <mxCell id="_dCOSLzVpMSaft1Qg1WX-30" value="10.4.2023. u 11:00" style="connectable=0;recursiveResize=0;strokeColor=inherit;fillColor=inherit;fontStyle=0;align=center;whiteSpace=wrap;html=1;" vertex="1" parent="_dCOSLzVpMSaft1Qg1WX-29">
          <mxGeometry width="123" height="81" as="geometry">
            <mxRectangle width="123" height="81" as="alternateBounds" />
          </mxGeometry>
        </mxCell>
        <mxCell id="_dCOSLzVpMSaft1Qg1WX-31" value="11" style="connectable=0;recursiveResize=0;strokeColor=inherit;fillColor=inherit;fontStyle=0;align=center;whiteSpace=wrap;html=1;" vertex="1" parent="_dCOSLzVpMSaft1Qg1WX-29">
          <mxGeometry x="123" width="123" height="81" as="geometry">
            <mxRectangle width="123" height="81" as="alternateBounds" />
          </mxGeometry>
        </mxCell>
        <mxCell id="_dCOSLzVpMSaft1Qg1WX-32" value="Za kralježnicu" style="connectable=0;recursiveResize=0;strokeColor=inherit;fillColor=inherit;fontStyle=0;align=center;whiteSpace=wrap;html=1;" vertex="1" parent="_dCOSLzVpMSaft1Qg1WX-29">
          <mxGeometry x="246" width="158" height="81" as="geometry">
            <mxRectangle width="158" height="81" as="alternateBounds" />
          </mxGeometry>
        </mxCell>
        <mxCell id="_dCOSLzVpMSaft1Qg1WX-33" value="Tin Lukinić" style="connectable=0;recursiveResize=0;strokeColor=inherit;fillColor=inherit;fontStyle=0;align=center;whiteSpace=wrap;html=1;" vertex="1" parent="_dCOSLzVpMSaft1Qg1WX-29">
          <mxGeometry x="404" width="194" height="81" as="geometry">
            <mxRectangle width="194" height="81" as="alternateBounds" />
          </mxGeometry>
        </mxCell>
        <mxCell id="_dCOSLzVpMSaft1Qg1WX-34" value="..." style="connectable=0;recursiveResize=0;strokeColor=inherit;fillColor=inherit;fontStyle=0;align=center;whiteSpace=wrap;html=1;" vertex="1" parent="_dCOSLzVpMSaft1Qg1WX-29">
          <mxGeometry x="598" width="202" height="81" as="geometry">
            <mxRectangle width="202" height="81" as="alternateBounds" />
          </mxGeometry>
        </mxCell>
        <mxCell id="_dCOSLzVpMSaft1Qg1WX-35" value="TERAPIJA ODRAĐENA&lt;br&gt;&lt;br&gt;&amp;nbsp;&lt;br&gt;" style="connectable=0;recursiveResize=0;strokeColor=inherit;fillColor=inherit;fontStyle=0;align=center;whiteSpace=wrap;html=1;" vertex="1" parent="_dCOSLzVpMSaft1Qg1WX-29">
          <mxGeometry x="800" width="178" height="81" as="geometry">
            <mxRectangle width="178" height="81" as="alternateBounds" />
          </mxGeometry>
        </mxCell>
        <mxCell id="_dCOSLzVpMSaft1Qg1WX-36" value="" style="shape=tableRow;horizontal=0;startSize=0;swimlaneHead=0;swimlaneBody=0;top=0;left=0;bottom=0;right=0;dropTarget=0;collapsible=0;recursiveResize=0;expand=0;fontStyle=1;strokeColor=inherit;fillColor=#EAF2D3;" vertex="1" parent="_dCOSLzVpMSaft1Qg1WX-7">
          <mxGeometry y="282" width="978" height="77" as="geometry" />
        </mxCell>
        <mxCell id="_dCOSLzVpMSaft1Qg1WX-37" value="12.4.2014. u 11:00" style="connectable=0;recursiveResize=0;strokeColor=#36393d;fillColor=#eeeeee;whiteSpace=wrap;html=1;" vertex="1" parent="_dCOSLzVpMSaft1Qg1WX-36">
          <mxGeometry width="123" height="77" as="geometry">
            <mxRectangle width="123" height="77" as="alternateBounds" />
          </mxGeometry>
        </mxCell>
        <mxCell id="_dCOSLzVpMSaft1Qg1WX-38" value="215" style="connectable=0;recursiveResize=0;strokeColor=#36393d;fillColor=#eeeeee;whiteSpace=wrap;html=1;" vertex="1" parent="_dCOSLzVpMSaft1Qg1WX-36">
          <mxGeometry x="123" width="123" height="77" as="geometry">
            <mxRectangle width="123" height="77" as="alternateBounds" />
          </mxGeometry>
        </mxCell>
        <mxCell id="_dCOSLzVpMSaft1Qg1WX-39" value="Za rame" style="connectable=0;recursiveResize=0;strokeColor=#36393d;fillColor=#eeeeee;whiteSpace=wrap;html=1;" vertex="1" parent="_dCOSLzVpMSaft1Qg1WX-36">
          <mxGeometry x="246" width="158" height="77" as="geometry">
            <mxRectangle width="158" height="77" as="alternateBounds" />
          </mxGeometry>
        </mxCell>
        <mxCell id="_dCOSLzVpMSaft1Qg1WX-40" value="Željko Šarec" style="connectable=0;recursiveResize=0;strokeColor=#36393d;fillColor=#eeeeee;whiteSpace=wrap;html=1;" vertex="1" parent="_dCOSLzVpMSaft1Qg1WX-36">
          <mxGeometry x="404" width="194" height="77" as="geometry">
            <mxRectangle width="194" height="77" as="alternateBounds" />
          </mxGeometry>
        </mxCell>
        <mxCell id="_dCOSLzVpMSaft1Qg1WX-41" value="..." style="connectable=0;recursiveResize=0;strokeColor=#36393d;fillColor=#eeeeee;whiteSpace=wrap;html=1;" vertex="1" parent="_dCOSLzVpMSaft1Qg1WX-36">
          <mxGeometry x="598" width="202" height="77" as="geometry">
            <mxRectangle width="202" height="77" as="alternateBounds" />
          </mxGeometry>
        </mxCell>
        <mxCell id="_dCOSLzVpMSaft1Qg1WX-42" value="TERAPIJA NIJE ODRAĐENA" style="connectable=0;recursiveResize=0;strokeColor=#36393d;fillColor=#eeeeee;whiteSpace=wrap;html=1;" vertex="1" parent="_dCOSLzVpMSaft1Qg1WX-36">
          <mxGeometry x="800" width="178" height="77" as="geometry">
            <mxRectangle width="178" height="77" as="alternateBounds" />
          </mxGeometry>
        </mxCell>
        <mxCell id="_dCOSLzVpMSaft1Qg1WX-43" value="&lt;font color=&quot;#ff0000&quot;&gt;&lt;span style=&quot;font-size: 16px;&quot;&gt;&lt;b&gt;*ovdje dodati opciju filtriranja, npr &quot;samo budući termini&quot; *&lt;/b&gt;&lt;/span&gt;&lt;/font&gt;" style="text;html=1;strokeColor=none;fillColor=none;align=left;verticalAlign=middle;whiteSpace=wrap;rounded=0;" vertex="1" parent="dp846cBmucz0jCjNZ9nw-1">
          <mxGeometry x="300" y="690" width="520" height="30" as="geometry" />
        </mxCell>
        <mxCell id="niJMhv-txLPrJ2PRoDyo-0" value="PRIKAŽI NALAZ" style="rounded=1;fillColor=#76608a;strokeColor=#432D57;html=1;whiteSpace=wrap;fontColor=#ffffff;align=center;verticalAlign=middle;fontStyle=0;fontSize=12;sketch=0;" vertex="1" parent="dp846cBmucz0jCjNZ9nw-1">
          <mxGeometry x="900" y="990" width="100" height="33" as="geometry" />
        </mxCell>
        <mxCell id="niJMhv-txLPrJ2PRoDyo-1" value="" style="shape=flexArrow;endArrow=classic;html=1;rounded=0;fillColor=#647687;strokeColor=#314354;endWidth=24;endSize=9.91;width=6;" edge="1" parent="dp846cBmucz0jCjNZ9nw-1">
          <mxGeometry width="50" height="50" relative="1" as="geometry">
            <mxPoint x="910" y="1020" as="sourcePoint" />
            <mxPoint x="720" y="1220" as="targetPoint" />
          </mxGeometry>
        </mxCell>
        <mxCell id="8_ngWNZqwG3kDMNv8Gfm-5" value="Nalaz - rehabilitacija za rame 10.4.2023. 11:00" style="html=1;shadow=0;dashed=0;shape=mxgraph.bootstrap.rrect;rSize=5;html=1;strokeColor=#C8C8C8;fillColor=#ffffff;whiteSpace=wrap;verticalAlign=top;align=left;fontSize=18;spacing=15;spacingTop=-5;" vertex="1" parent="dp846cBmucz0jCjNZ9nw-1">
          <mxGeometry x="280" y="1240" width="490" height="380" as="geometry" />
        </mxCell>
        <mxCell id="8_ngWNZqwG3kDMNv8Gfm-6" value="" style="shape=line;strokeColor=#dddddd;resizeWidth=1;" vertex="1" parent="8_ngWNZqwG3kDMNv8Gfm-5">
          <mxGeometry width="490.00000000000006" height="10" relative="1" as="geometry">
            <mxPoint y="50" as="offset" />
          </mxGeometry>
        </mxCell>
        <mxCell id="8_ngWNZqwG3kDMNv8Gfm-7" value="" style="html=1;shadow=0;dashed=0;shape=mxgraph.bootstrap.x;strokeColor=#868686;strokeWidth=2;" vertex="1" parent="8_ngWNZqwG3kDMNv8Gfm-5">
          <mxGeometry x="1" width="8" height="8" relative="1" as="geometry">
            <mxPoint x="-24" y="20" as="offset" />
          </mxGeometry>
        </mxCell>
        <mxCell id="8_ngWNZqwG3kDMNv8Gfm-9" value="" style="shape=line;strokeColor=#dddddd;resizeWidth=1;" vertex="1" parent="8_ngWNZqwG3kDMNv8Gfm-5">
          <mxGeometry width="490.00000000000006" height="10" relative="1" as="geometry">
            <mxPoint y="120" as="offset" />
          </mxGeometry>
        </mxCell>
        <mxCell id="8_ngWNZqwG3kDMNv8Gfm-11" value="Zatvori" style="html=1;shadow=0;dashed=0;shape=mxgraph.bootstrap.rrect;rSize=5;fillColor=#6C757D;strokeColor=none;fontColor=#FFFFFF;fontSize=14;" vertex="1" parent="8_ngWNZqwG3kDMNv8Gfm-5">
          <mxGeometry x="1" y="1" width="70" height="40" relative="1" as="geometry">
            <mxPoint x="-90" y="-60" as="offset" />
          </mxGeometry>
        </mxCell>
        <mxCell id="8_ngWNZqwG3kDMNv8Gfm-13" value="Datum i vrijeme održavanja: 10.4.2023. u 11:00&lt;br&gt;Soba: 11&lt;br&gt;Izvršio liječnik: Tin Lukinić&lt;br&gt;Nalaz napisan: 10.4.2023. u 11:51" style="text;html=1;strokeColor=none;fillColor=none;align=left;verticalAlign=middle;whiteSpace=wrap;rounded=0;" vertex="1" parent="8_ngWNZqwG3kDMNv8Gfm-5">
          <mxGeometry x="6" y="53" width="320" height="70" as="geometry" />
        </mxCell>
        <mxCell id="vwWNdpepWlZSXS7p4BuV-0" value="&lt;h1&gt;Komentari liječnika&lt;/h1&gt;&lt;p&gt;Lorem ipsum dolor sit amet, consectetur adipisicing elit, sed do eiusmod tempor incididunt ut labore et dolore magna aliqua.&amp;nbsp;&lt;/p&gt;Pacijent se u potpunosti oporavio i više ne osjeti simptome." style="text;html=1;strokeColor=none;fillColor=none;spacing=5;spacingTop=-20;whiteSpace=wrap;overflow=hidden;rounded=0;" vertex="1" parent="8_ngWNZqwG3kDMNv8Gfm-5">
          <mxGeometry x="6" y="144" width="434" height="140" as="geometry" />
        </mxCell>
        <mxCell id="8_ngWNZqwG3kDMNv8Gfm-12" value="&lt;span style=&quot;font-size: 16px;&quot;&gt;&lt;b style=&quot;&quot;&gt;*na klik se otvara ovaj modal dialog*&lt;/b&gt;&lt;/span&gt;" style="text;html=1;strokeColor=none;fillColor=none;align=left;verticalAlign=middle;whiteSpace=wrap;rounded=0;rotation=-45;" vertex="1" parent="dp846cBmucz0jCjNZ9nw-1">
          <mxGeometry x="650" y="1100" width="281" height="30" as="geometry" />
        </mxCell>
      </root>
    </mxGraphModel>
  </diagram>
  <diagram name="Page 4" id="nHnOCcB1vMQAvQbgnFzg">
    <mxGraphModel dx="1434" dy="758" grid="1" gridSize="10" guides="1" tooltips="1" connect="1" arrows="1" fold="1" page="1" pageScale="1" pageWidth="1100" pageHeight="850" background="#ffffff" math="0" shadow="0">
      <root>
        <mxCell id="mhC85ykQoHwD0zVejbFD-0" />
        <mxCell id="mhC85ykQoHwD0zVejbFD-1" parent="mhC85ykQoHwD0zVejbFD-0" />
        <mxCell id="mhC85ykQoHwD0zVejbFD-2" value="" style="strokeWidth=1;shadow=0;dashed=0;align=center;html=1;shape=mxgraph.mockup.containers.browserWindow;rSize=0;strokeColor=#666666;mainText=,;recursiveResize=0;rounded=0;labelBackgroundColor=none;fontFamily=Verdana;fontSize=12;container=0;" parent="mhC85ykQoHwD0zVejbFD-1" vertex="1">
          <mxGeometry x="25" y="15" width="1050" height="820" as="geometry" />
        </mxCell>
        <mxCell id="mhC85ykQoHwD0zVejbFD-3" value="Page 4" style="strokeWidth=1;shadow=0;dashed=0;align=center;html=1;shape=mxgraph.mockup.containers.anchor;fontSize=17;fontColor=#666666;align=left;" parent="mhC85ykQoHwD0zVejbFD-1" vertex="1">
          <mxGeometry x="85" y="27" width="110" height="26" as="geometry" />
        </mxCell>
        <mxCell id="mhC85ykQoHwD0zVejbFD-4" value="https://www.default.com" style="strokeWidth=1;shadow=0;dashed=0;align=center;html=1;shape=mxgraph.mockup.containers.anchor;rSize=0;fontSize=17;fontColor=#666666;align=left;" parent="mhC85ykQoHwD0zVejbFD-1" vertex="1">
          <mxGeometry x="155" y="75" width="250" height="26" as="geometry" />
        </mxCell>
        <mxCell id="9R_EDQl_8vWNvRWWjy_1-0" value="&lt;font style=&quot;font-size: 30px;&quot;&gt;Naručivanje na novu terapiju&lt;/font&gt;" style="text;strokeColor=none;fillColor=none;html=1;fontSize=24;fontStyle=1;verticalAlign=middle;align=left;" parent="mhC85ykQoHwD0zVejbFD-1" vertex="1">
          <mxGeometry x="220" y="160" width="585" height="90" as="geometry" />
        </mxCell>
        <mxCell id="PL6BN8Lv3kACrvSu8Z8d-0" value="" style="shape=image;html=1;verticalAlign=top;verticalLabelPosition=bottom;labelBackgroundColor=#ffffff;imageAspect=0;aspect=fixed;image=https://cdn4.iconfinder.com/data/icons/essential-app-2/16/back-left-arrow-botton-128.png" parent="mhC85ykQoHwD0zVejbFD-1" vertex="1">
          <mxGeometry x="100" y="186" width="38" height="38" as="geometry" />
        </mxCell>
        <mxCell id="PL6BN8Lv3kACrvSu8Z8d-1" value="" style="rounded=0;whiteSpace=wrap;html=1;" parent="mhC85ykQoHwD0zVejbFD-1" vertex="1">
          <mxGeometry x="150" y="250" width="830" height="550" as="geometry" />
        </mxCell>
        <mxCell id="PL6BN8Lv3kACrvSu8Z8d-4" value="VRSTA REHABILITACIJE:" style="fillColor=none;strokeColor=none;align=left;fontSize=14;" parent="mhC85ykQoHwD0zVejbFD-1" vertex="1">
          <mxGeometry width="260" height="40" relative="1" as="geometry">
            <mxPoint x="180" y="260" as="offset" />
          </mxGeometry>
        </mxCell>
        <mxCell id="PL6BN8Lv3kACrvSu8Z8d-16" value="Komentari i napomene za liječnika:" style="fillColor=none;strokeColor=none;align=left;fontSize=14;" parent="mhC85ykQoHwD0zVejbFD-1" vertex="1">
          <mxGeometry width="260" height="40" relative="1" as="geometry">
            <mxPoint x="180" y="630" as="offset" />
          </mxGeometry>
        </mxCell>
        <mxCell id="PL6BN8Lv3kACrvSu8Z8d-17" value="" style="html=1;shadow=0;dashed=0;shape=mxgraph.bootstrap.rrect;rSize=5;fillColor=none;strokeColor=#999999;align=left;spacing=15;fontSize=14;fontColor=#6C767D;" parent="mhC85ykQoHwD0zVejbFD-1" vertex="1">
          <mxGeometry width="730" height="50" relative="1" as="geometry">
            <mxPoint x="180" y="660" as="offset" />
          </mxGeometry>
        </mxCell>
        <mxCell id="PL6BN8Lv3kACrvSu8Z8d-18" value="Predaj zahtjev" style="rounded=1;whiteSpace=wrap;html=1;fillColor=#1ba1e2;fontColor=#ffffff;strokeColor=#006EAF;" parent="mhC85ykQoHwD0zVejbFD-1" vertex="1">
          <mxGeometry x="740" y="740" width="170" height="30" as="geometry" />
        </mxCell>
        <mxCell id="PL6BN8Lv3kACrvSu8Z8d-19" value="" style="sketch=0;html=1;aspect=fixed;shadow=0;verticalAlign=top;labelPosition=center;verticalLabelPosition=bottom;shape=mxgraph.gcp2.check;" parent="mhC85ykQoHwD0zVejbFD-1" vertex="1">
          <mxGeometry x="757" y="748" width="18.75" height="15" as="geometry" />
        </mxCell>
        <mxCell id="PL6BN8Lv3kACrvSu8Z8d-20" value="Fizikalna terapija teniskog lakta" style="html=1;shadow=0;dashed=0;shape=mxgraph.bootstrap.rrect;rSize=5;strokeColor=#505050;strokeWidth=1;fillColor=#ffffff;fontColor=#777777;whiteSpace=wrap;align=left;verticalAlign=middle;fontStyle=0;fontSize=14;spacingRight=0;spacing=17;" parent="mhC85ykQoHwD0zVejbFD-1" vertex="1">
          <mxGeometry x="180" y="290" width="310" height="33" as="geometry" />
        </mxCell>
        <mxCell id="PL6BN8Lv3kACrvSu8Z8d-21" value="" style="shape=triangle;direction=south;fillColor=#495057;strokeColor=none;perimeter=none;" parent="PL6BN8Lv3kACrvSu8Z8d-20" vertex="1">
          <mxGeometry x="1" y="0.5" width="10" height="5" relative="1" as="geometry">
            <mxPoint x="-17" y="-2.5" as="offset" />
          </mxGeometry>
        </mxCell>
        <mxCell id="ClX2ZCwo4UVvXy9kYSoj-3" value="" style="rounded=1;fillColor=#ffffff;strokeColor=#DFE1E5;shadow=1;arcSize=1;fontSize=12;fontColor=#596780;align=center;html=1;verticalAlign=top;spacingTop=5;" parent="mhC85ykQoHwD0zVejbFD-1" vertex="1">
          <mxGeometry x="530" y="320" width="360" height="120" as="geometry" />
        </mxCell>
        <mxCell id="ClX2ZCwo4UVvXy9kYSoj-4" value="POVIJEST TERAPIJA" style="html=1;fillColor=none;strokeColor=none;fontSize=11;align=left;fontColor=#596780;whiteSpace=wrap;fontStyle=1" parent="ClX2ZCwo4UVvXy9kYSoj-3" vertex="1">
          <mxGeometry width="140" height="20" relative="1" as="geometry">
            <mxPoint x="20" y="15" as="offset" />
          </mxGeometry>
        </mxCell>
        <mxCell id="ClX2ZCwo4UVvXy9kYSoj-5" value="Prikaz 2 od 15 zadnjih terapija" style="html=1;fillColor=none;strokeColor=none;fontSize=12;align=left;fontColor=#596780;whiteSpace=wrap;fontStyle=0" parent="ClX2ZCwo4UVvXy9kYSoj-3" vertex="1">
          <mxGeometry width="200" height="20" relative="1" as="geometry">
            <mxPoint x="160" y="15" as="offset" />
          </mxGeometry>
        </mxCell>
        <mxCell id="ClX2ZCwo4UVvXy9kYSoj-6" value="&lt;b&gt;IR-83&lt;/b&gt;&amp;nbsp;Treća doza struje za teniski lakat" style="shape=ellipse;fillColor=#00A8E5;strokeColor=none;fontSize=12;align=left;fontColor=#596780;fontStyle=0;labelPosition=right;verticalLabelPosition=middle;verticalAlign=middle;html=1;spacingLeft=5" parent="ClX2ZCwo4UVvXy9kYSoj-3" vertex="1">
          <mxGeometry width="20" height="20" relative="1" as="geometry">
            <mxPoint x="20" y="45" as="offset" />
          </mxGeometry>
        </mxCell>
        <mxCell id="ClX2ZCwo4UVvXy9kYSoj-7" value="" style="html=1;shadow=0;dashed=0;shape=mxgraph.atlassian.location;fillColor=#ffffff;strokeColor=none;flipV=1;html=1;" parent="ClX2ZCwo4UVvXy9kYSoj-6" vertex="1">
          <mxGeometry x="0.5" y="0.5" width="8" height="10" relative="1" as="geometry">
            <mxPoint x="-4" y="-5" as="offset" />
          </mxGeometry>
        </mxCell>
        <mxCell id="ClX2ZCwo4UVvXy9kYSoj-10" value="&lt;b&gt;IR-81&lt;/b&gt;&amp;nbsp;Pregled adhezivnog kapsulitisa ramena" style="shape=ellipse;fillColor=#00A8E5;strokeColor=none;fontSize=12;align=left;fontColor=#596780;fontStyle=0;labelPosition=right;verticalLabelPosition=middle;verticalAlign=middle;html=1;spacingLeft=5" parent="ClX2ZCwo4UVvXy9kYSoj-3" vertex="1">
          <mxGeometry width="20" height="20" relative="1" as="geometry">
            <mxPoint x="20" y="80" as="offset" />
          </mxGeometry>
        </mxCell>
        <mxCell id="ClX2ZCwo4UVvXy9kYSoj-11" value="" style="html=1;shadow=0;dashed=0;shape=mxgraph.atlassian.location;fillColor=#ffffff;strokeColor=none;flipV=1;html=1;" parent="ClX2ZCwo4UVvXy9kYSoj-10" vertex="1">
          <mxGeometry x="0.5" y="0.5" width="8" height="10" relative="1" as="geometry">
            <mxPoint x="-4" y="-5" as="offset" />
          </mxGeometry>
        </mxCell>
        <mxCell id="ClX2ZCwo4UVvXy9kYSoj-14" value="REFERENCA NA PROŠLU TERAPIJU (OPCIONALNO):" style="fillColor=none;strokeColor=none;align=left;fontSize=14;" parent="mhC85ykQoHwD0zVejbFD-1" vertex="1">
          <mxGeometry x="530" y="260" width="403" height="40" as="geometry" />
        </mxCell>
        <mxCell id="ClX2ZCwo4UVvXy9kYSoj-1" value="IR-83" style="rounded=1;arcSize=9;fillColor=#ffffff;strokeColor=#4C9AFF;html=1;strokeWidth=2;spacingLeft=5;fontColor=#000000;align=left" parent="mhC85ykQoHwD0zVejbFD-1" vertex="1">
          <mxGeometry x="530" y="290" width="360" height="33" as="geometry" />
        </mxCell>
        <mxCell id="ClX2ZCwo4UVvXy9kYSoj-2" value="" style="html=1;shadow=0;dashed=0;shape=mxgraph.atlassian.close;fillColor=#97A0AF;strokeColor=none" parent="ClX2ZCwo4UVvXy9kYSoj-1" vertex="1">
          <mxGeometry x="1" y="0.5" width="14" height="14" relative="1" as="geometry">
            <mxPoint x="-28" y="-7" as="offset" />
          </mxGeometry>
        </mxCell>
        <mxCell id="ClX2ZCwo4UVvXy9kYSoj-17" value="" style="shape=ext;double=1;rounded=1;whiteSpace=wrap;html=1;" parent="mhC85ykQoHwD0zVejbFD-1" vertex="1">
          <mxGeometry x="180" y="450" width="730" height="180" as="geometry" />
        </mxCell>
        <mxCell id="ClX2ZCwo4UVvXy9kYSoj-18" value="ODABIR TERMINA:" style="fillColor=none;strokeColor=none;align=left;fontSize=14;" parent="mhC85ykQoHwD0zVejbFD-1" vertex="1">
          <mxGeometry x="195" y="418" width="260" height="40" as="geometry" />
        </mxCell>
        <mxCell id="ClX2ZCwo4UVvXy9kYSoj-19" value="ili" style="text;strokeColor=none;fillColor=none;html=1;fontSize=24;fontStyle=1;verticalAlign=middle;align=center;" parent="mhC85ykQoHwD0zVejbFD-1" vertex="1">
          <mxGeometry x="472.5" y="520" width="100" height="40" as="geometry" />
        </mxCell>
        <mxCell id="ClX2ZCwo4UVvXy9kYSoj-20" value="Prvi slobodni termini:" style="text;html=1;strokeColor=none;fillColor=none;align=center;verticalAlign=middle;whiteSpace=wrap;rounded=0;fontFamily=Lucida Console;fontStyle=6;fontSize=18;" parent="mhC85ykQoHwD0zVejbFD-1" vertex="1">
          <mxGeometry x="195" y="458" width="275" height="30" as="geometry" />
        </mxCell>
        <mxCell id="ClX2ZCwo4UVvXy9kYSoj-21" value="Prilagođeni odabir:" style="text;html=1;strokeColor=none;fillColor=none;align=center;verticalAlign=middle;whiteSpace=wrap;rounded=0;fontFamily=Lucida Console;fontStyle=6;fontSize=18;" parent="mhC85ykQoHwD0zVejbFD-1" vertex="1">
          <mxGeometry x="550" y="458" width="275" height="30" as="geometry" />
        </mxCell>
        <mxCell id="ClX2ZCwo4UVvXy9kYSoj-22" value="15.1.2024. u 12:00" style="whiteSpace=wrap;html=1;shape=mxgraph.basic.cloud_rect;fillColor=#fff2cc;strokeColor=#d6b656;" parent="mhC85ykQoHwD0zVejbFD-1" vertex="1">
          <mxGeometry x="225" y="497" width="200" height="28" as="geometry" />
        </mxCell>
        <mxCell id="ClX2ZCwo4UVvXy9kYSoj-23" value="17.1.2024. u 14:00" style="whiteSpace=wrap;html=1;shape=mxgraph.basic.cloud_rect;fillColor=#fff2cc;strokeColor=#d6b656;" parent="mhC85ykQoHwD0zVejbFD-1" vertex="1">
          <mxGeometry x="225" y="533" width="200" height="28" as="geometry" />
        </mxCell>
        <mxCell id="ClX2ZCwo4UVvXy9kYSoj-24" value="17.1.2024. u 15:00" style="whiteSpace=wrap;html=1;shape=mxgraph.basic.cloud_rect;fillColor=#fff2cc;strokeColor=#d6b656;" parent="mhC85ykQoHwD0zVejbFD-1" vertex="1">
          <mxGeometry x="225" y="569" width="200" height="28" as="geometry" />
        </mxCell>
        <mxCell id="ClX2ZCwo4UVvXy9kYSoj-29" value="11.2.2024." style="rounded=1;arcSize=9;fillColor=#ffffff;align=left;spacingLeft=5;strokeColor=#0057D8;html=1;strokeWidth=2;fontColor=#253858;fontSize=12" parent="mhC85ykQoHwD0zVejbFD-1" vertex="1">
          <mxGeometry x="610" y="505" width="230" height="33" as="geometry" />
        </mxCell>
        <mxCell id="ClX2ZCwo4UVvXy9kYSoj-30" value="" style="shape=mxgraph.gmdl.calendar;fillColor=#253858;strokeColor=none" parent="ClX2ZCwo4UVvXy9kYSoj-29" vertex="1">
          <mxGeometry x="1" y="0.5" width="18" height="18" relative="1" as="geometry">
            <mxPoint x="-29" y="-9" as="offset" />
          </mxGeometry>
        </mxCell>
        <mxCell id="ClX2ZCwo4UVvXy9kYSoj-86" value="14:00" style="html=1;shadow=0;dashed=0;shape=mxgraph.bootstrap.rrect;rSize=5;strokeColor=#505050;strokeWidth=1;fillColor=#ffffff;fontColor=#777777;whiteSpace=wrap;align=left;verticalAlign=middle;fontStyle=0;fontSize=14;spacingRight=0;spacing=17;" parent="mhC85ykQoHwD0zVejbFD-1" vertex="1">
          <mxGeometry x="610" y="560" width="230" height="30" as="geometry" />
        </mxCell>
        <mxCell id="ClX2ZCwo4UVvXy9kYSoj-87" value="" style="shape=triangle;direction=south;fillColor=#495057;strokeColor=none;perimeter=none;" parent="ClX2ZCwo4UVvXy9kYSoj-86" vertex="1">
          <mxGeometry x="1" y="0.5" width="10" height="5" relative="1" as="geometry">
            <mxPoint x="-17" y="-2.5" as="offset" />
          </mxGeometry>
        </mxCell>
        <mxCell id="ClX2ZCwo4UVvXy9kYSoj-88" value="Datum:" style="text;html=1;strokeColor=none;fillColor=none;align=center;verticalAlign=middle;whiteSpace=wrap;rounded=0;" parent="mhC85ykQoHwD0zVejbFD-1" vertex="1">
          <mxGeometry x="600" y="488" width="60" height="15" as="geometry" />
        </mxCell>
        <mxCell id="ClX2ZCwo4UVvXy9kYSoj-89" value="Vrijeme:" style="text;html=1;strokeColor=none;fillColor=none;align=left;verticalAlign=middle;whiteSpace=wrap;rounded=0;" parent="mhC85ykQoHwD0zVejbFD-1" vertex="1">
          <mxGeometry x="610" y="545" width="60" height="15" as="geometry" />
        </mxCell>
        <mxCell id="VdU0sh2syNWpK1fHR1R4-0" value="*ovaj page vide samo pacijenti*" style="text;strokeColor=none;fillColor=none;html=1;fontSize=24;fontStyle=1;verticalAlign=middle;align=center;" parent="mhC85ykQoHwD0zVejbFD-1" vertex="1">
          <mxGeometry x="370" y="20" width="420" height="40" as="geometry" />
        </mxCell>
        <mxCell id="2HoMv1Pc5IY5C0GdIqt0-0" value="NA TERAPIJU UPUTIO LIJEČNIK:" style="fillColor=none;strokeColor=none;align=left;fontSize=14;" parent="mhC85ykQoHwD0zVejbFD-1" vertex="1">
          <mxGeometry x="180" y="340" width="260" height="40" as="geometry" />
        </mxCell>
        <mxCell id="2HoMv1Pc5IY5C0GdIqt0-1" value="Tomislav Lauc" style="html=1;shadow=0;dashed=0;shape=mxgraph.bootstrap.rrect;rSize=5;strokeColor=#505050;strokeWidth=1;fillColor=#ffffff;fontColor=#777777;whiteSpace=wrap;align=left;verticalAlign=middle;fontStyle=0;fontSize=14;spacingRight=0;spacing=17;" parent="mhC85ykQoHwD0zVejbFD-1" vertex="1">
          <mxGeometry x="180" y="370" width="310" height="33" as="geometry" />
        </mxCell>
        <mxCell id="2HoMv1Pc5IY5C0GdIqt0-2" value="" style="shape=triangle;direction=south;fillColor=#495057;strokeColor=none;perimeter=none;" parent="2HoMv1Pc5IY5C0GdIqt0-1" vertex="1">
          <mxGeometry x="1" y="0.5" width="10" height="5" relative="1" as="geometry">
            <mxPoint x="-17" y="-2.5" as="offset" />
          </mxGeometry>
        </mxCell>
        <mxCell id="uth_S5d5eOWy6lQXj7lN-0" value="&lt;b&gt;&lt;font color=&quot;#98a2b0&quot; style=&quot;font-size: 16px;&quot;&gt;&lt;i style=&quot;&quot;&gt;* dodati i dijagnozu ili opis oboljenja????? *&lt;/i&gt;&lt;/font&gt;&lt;/b&gt;" style="text;html=1;strokeColor=none;fillColor=none;align=left;verticalAlign=middle;whiteSpace=wrap;rounded=0;" parent="mhC85ykQoHwD0zVejbFD-1" vertex="1">
          <mxGeometry x="180" y="733" width="760" height="30" as="geometry" />
        </mxCell>
      </root>
    </mxGraphModel>
  </diagram>
  <diagram name="Page 5" id="LdE3pn-Hc9pRybI_M8M3">
    <mxGraphModel dx="1434" dy="758" grid="1" gridSize="10" guides="1" tooltips="1" connect="1" arrows="1" fold="1" page="1" pageScale="1" pageWidth="1100" pageHeight="850" background="#ffffff" math="0" shadow="0">
      <root>
        <mxCell id="ih7M5wc_-FO6ItcmYT_U-0" />
        <mxCell id="ih7M5wc_-FO6ItcmYT_U-1" parent="ih7M5wc_-FO6ItcmYT_U-0" />
        <mxCell id="ih7M5wc_-FO6ItcmYT_U-2" value="" style="strokeWidth=1;shadow=0;dashed=0;align=center;html=1;shape=mxgraph.mockup.containers.browserWindow;rSize=0;strokeColor=#666666;mainText=,;recursiveResize=0;rounded=0;labelBackgroundColor=none;fontFamily=Verdana;fontSize=12;container=0;" parent="ih7M5wc_-FO6ItcmYT_U-1" vertex="1">
          <mxGeometry x="25" y="15" width="1050" height="820" as="geometry" />
        </mxCell>
        <mxCell id="ih7M5wc_-FO6ItcmYT_U-3" value="Page 5" style="strokeWidth=1;shadow=0;dashed=0;align=center;html=1;shape=mxgraph.mockup.containers.anchor;fontSize=17;fontColor=#666666;align=left;" parent="ih7M5wc_-FO6ItcmYT_U-1" vertex="1">
          <mxGeometry x="85" y="27" width="110" height="26" as="geometry" />
        </mxCell>
        <mxCell id="ih7M5wc_-FO6ItcmYT_U-4" value="https://www.default.com" style="strokeWidth=1;shadow=0;dashed=0;align=center;html=1;shape=mxgraph.mockup.containers.anchor;rSize=0;fontSize=17;fontColor=#666666;align=left;" parent="ih7M5wc_-FO6ItcmYT_U-1" vertex="1">
          <mxGeometry x="155" y="75" width="250" height="26" as="geometry" />
        </mxCell>
        <mxCell id="fv4hewloLM948KdImx5Z-0" value="&lt;font style=&quot;font-size: 30px;&quot;&gt;Svi pacijenti&lt;/font&gt;" style="text;strokeColor=none;fillColor=none;html=1;fontSize=24;fontStyle=1;verticalAlign=middle;align=center;" parent="ih7M5wc_-FO6ItcmYT_U-1" vertex="1">
          <mxGeometry x="110" y="160" width="220" height="40" as="geometry" />
        </mxCell>
        <mxCell id="fv4hewloLM948KdImx5Z-2" value="" style="endArrow=none;html=1;rounded=0;" parent="ih7M5wc_-FO6ItcmYT_U-1" source="QWgugfnP1xGuhPPOvMJ7-0" edge="1">
          <mxGeometry width="50" height="50" relative="1" as="geometry">
            <mxPoint x="1050" y="200" as="sourcePoint" />
            <mxPoint x="70" y="200" as="targetPoint" />
          </mxGeometry>
        </mxCell>
        <mxCell id="fv4hewloLM948KdImx5Z-93" value="" style="shape=table;startSize=0;container=1;collapsible=0;childLayout=tableLayout;" parent="ih7M5wc_-FO6ItcmYT_U-1" vertex="1">
          <mxGeometry x="80" y="220" width="960" height="240" as="geometry" />
        </mxCell>
        <mxCell id="fv4hewloLM948KdImx5Z-94" value="" style="shape=tableRow;horizontal=0;startSize=0;swimlaneHead=0;swimlaneBody=0;strokeColor=inherit;top=0;left=0;bottom=0;right=0;collapsible=0;dropTarget=0;fillColor=none;points=[[0,0.5],[1,0.5]];portConstraint=eastwest;" parent="fv4hewloLM948KdImx5Z-93" vertex="1">
          <mxGeometry width="960" height="40" as="geometry" />
        </mxCell>
        <mxCell id="4aAObDvhBy8zSYSvLVwL-49" value="Ime" style="shape=partialRectangle;html=1;whiteSpace=wrap;connectable=0;strokeColor=#9673a6;overflow=hidden;fillColor=#e1d5e7;top=0;left=0;bottom=0;right=0;pointerEvents=1;" parent="fv4hewloLM948KdImx5Z-94" vertex="1">
          <mxGeometry width="110" height="40" as="geometry">
            <mxRectangle width="110" height="40" as="alternateBounds" />
          </mxGeometry>
        </mxCell>
        <mxCell id="fv4hewloLM948KdImx5Z-95" value="Prezime" style="shape=partialRectangle;html=1;whiteSpace=wrap;connectable=0;strokeColor=#9673a6;overflow=hidden;fillColor=#e1d5e7;top=0;left=0;bottom=0;right=0;pointerEvents=1;" parent="fv4hewloLM948KdImx5Z-94" vertex="1">
          <mxGeometry x="110" width="110" height="40" as="geometry">
            <mxRectangle width="110" height="40" as="alternateBounds" />
          </mxGeometry>
        </mxCell>
        <mxCell id="fv4hewloLM948KdImx5Z-96" value="MBO" style="shape=partialRectangle;html=1;whiteSpace=wrap;connectable=0;strokeColor=#9673a6;overflow=hidden;fillColor=#e1d5e7;top=0;left=0;bottom=0;right=0;pointerEvents=1;" parent="fv4hewloLM948KdImx5Z-94" vertex="1">
          <mxGeometry x="220" width="180" height="40" as="geometry">
            <mxRectangle width="180" height="40" as="alternateBounds" />
          </mxGeometry>
        </mxCell>
        <mxCell id="s84vQu8neqVlvNpo0KS_-0" value="E-mail adresa" style="shape=partialRectangle;html=1;whiteSpace=wrap;connectable=0;strokeColor=#9673a6;overflow=hidden;fillColor=#e1d5e7;top=0;left=0;bottom=0;right=0;pointerEvents=1;" parent="fv4hewloLM948KdImx5Z-94" vertex="1">
          <mxGeometry x="400" width="200" height="40" as="geometry">
            <mxRectangle width="200" height="40" as="alternateBounds" />
          </mxGeometry>
        </mxCell>
        <mxCell id="fv4hewloLM948KdImx5Z-97" value="Broj telefona" style="shape=partialRectangle;html=1;whiteSpace=wrap;connectable=0;strokeColor=#9673a6;overflow=hidden;fillColor=#e1d5e7;top=0;left=0;bottom=0;right=0;pointerEvents=1;" parent="fv4hewloLM948KdImx5Z-94" vertex="1">
          <mxGeometry x="600" width="160" height="40" as="geometry">
            <mxRectangle width="160" height="40" as="alternateBounds" />
          </mxGeometry>
        </mxCell>
        <mxCell id="fv4hewloLM948KdImx5Z-98" value="Akcije" style="shape=partialRectangle;html=1;whiteSpace=wrap;connectable=0;strokeColor=#9673a6;overflow=hidden;fillColor=#e1d5e7;top=0;left=0;bottom=0;right=0;pointerEvents=1;" parent="fv4hewloLM948KdImx5Z-94" vertex="1">
          <mxGeometry x="760" width="200" height="40" as="geometry">
            <mxRectangle width="200" height="40" as="alternateBounds" />
          </mxGeometry>
        </mxCell>
        <mxCell id="fv4hewloLM948KdImx5Z-99" value="" style="shape=tableRow;horizontal=0;startSize=0;swimlaneHead=0;swimlaneBody=0;strokeColor=inherit;top=0;left=0;bottom=0;right=0;collapsible=0;dropTarget=0;fillColor=none;points=[[0,0.5],[1,0.5]];portConstraint=eastwest;" parent="fv4hewloLM948KdImx5Z-93" vertex="1">
          <mxGeometry y="40" width="960" height="50" as="geometry" />
        </mxCell>
        <mxCell id="4aAObDvhBy8zSYSvLVwL-50" value="Karlo" style="shape=partialRectangle;html=1;whiteSpace=wrap;connectable=0;strokeColor=inherit;overflow=hidden;fillColor=none;top=0;left=0;bottom=0;right=0;pointerEvents=1;" parent="fv4hewloLM948KdImx5Z-99" vertex="1">
          <mxGeometry width="110" height="50" as="geometry">
            <mxRectangle width="110" height="50" as="alternateBounds" />
          </mxGeometry>
        </mxCell>
        <mxCell id="fv4hewloLM948KdImx5Z-100" value="Vrdoljak" style="shape=partialRectangle;html=1;whiteSpace=wrap;connectable=0;strokeColor=inherit;overflow=hidden;fillColor=none;top=0;left=0;bottom=0;right=0;pointerEvents=1;" parent="fv4hewloLM948KdImx5Z-99" vertex="1">
          <mxGeometry x="110" width="110" height="50" as="geometry">
            <mxRectangle width="110" height="50" as="alternateBounds" />
          </mxGeometry>
        </mxCell>
        <mxCell id="fv4hewloLM948KdImx5Z-101" value="25625462572457" style="shape=partialRectangle;html=1;whiteSpace=wrap;connectable=0;strokeColor=inherit;overflow=hidden;fillColor=none;top=0;left=0;bottom=0;right=0;pointerEvents=1;" parent="fv4hewloLM948KdImx5Z-99" vertex="1">
          <mxGeometry x="220" width="180" height="50" as="geometry">
            <mxRectangle width="180" height="50" as="alternateBounds" />
          </mxGeometry>
        </mxCell>
        <mxCell id="s84vQu8neqVlvNpo0KS_-1" value="karlo.vrdoljak@fer.hr" style="shape=partialRectangle;html=1;whiteSpace=wrap;connectable=0;strokeColor=inherit;overflow=hidden;fillColor=none;top=0;left=0;bottom=0;right=0;pointerEvents=1;" parent="fv4hewloLM948KdImx5Z-99" vertex="1">
          <mxGeometry x="400" width="200" height="50" as="geometry">
            <mxRectangle width="200" height="50" as="alternateBounds" />
          </mxGeometry>
        </mxCell>
        <mxCell id="fv4hewloLM948KdImx5Z-102" value="099 1234567" style="shape=partialRectangle;html=1;whiteSpace=wrap;connectable=0;strokeColor=inherit;overflow=hidden;fillColor=none;top=0;left=0;bottom=0;right=0;pointerEvents=1;" parent="fv4hewloLM948KdImx5Z-99" vertex="1">
          <mxGeometry x="600" width="160" height="50" as="geometry">
            <mxRectangle width="160" height="50" as="alternateBounds" />
          </mxGeometry>
        </mxCell>
        <mxCell id="fv4hewloLM948KdImx5Z-103" value="" style="shape=partialRectangle;html=1;whiteSpace=wrap;connectable=0;strokeColor=inherit;overflow=hidden;fillColor=none;top=0;left=0;bottom=0;right=0;pointerEvents=1;" parent="fv4hewloLM948KdImx5Z-99" vertex="1">
          <mxGeometry x="760" width="200" height="50" as="geometry">
            <mxRectangle width="200" height="50" as="alternateBounds" />
          </mxGeometry>
        </mxCell>
        <mxCell id="fv4hewloLM948KdImx5Z-104" value="" style="shape=tableRow;horizontal=0;startSize=0;swimlaneHead=0;swimlaneBody=0;strokeColor=inherit;top=0;left=0;bottom=0;right=0;collapsible=0;dropTarget=0;fillColor=none;points=[[0,0.5],[1,0.5]];portConstraint=eastwest;" parent="fv4hewloLM948KdImx5Z-93" vertex="1">
          <mxGeometry y="90" width="960" height="50" as="geometry" />
        </mxCell>
        <mxCell id="4aAObDvhBy8zSYSvLVwL-51" value="Zdravko" style="shape=partialRectangle;html=1;whiteSpace=wrap;connectable=0;strokeColor=inherit;overflow=hidden;fillColor=none;top=0;left=0;bottom=0;right=0;pointerEvents=1;" parent="fv4hewloLM948KdImx5Z-104" vertex="1">
          <mxGeometry width="110" height="50" as="geometry">
            <mxRectangle width="110" height="50" as="alternateBounds" />
          </mxGeometry>
        </mxCell>
        <mxCell id="fv4hewloLM948KdImx5Z-105" value="Mamić" style="shape=partialRectangle;html=1;whiteSpace=wrap;connectable=0;strokeColor=inherit;overflow=hidden;fillColor=none;top=0;left=0;bottom=0;right=0;pointerEvents=1;" parent="fv4hewloLM948KdImx5Z-104" vertex="1">
          <mxGeometry x="110" width="110" height="50" as="geometry">
            <mxRectangle width="110" height="50" as="alternateBounds" />
          </mxGeometry>
        </mxCell>
        <mxCell id="fv4hewloLM948KdImx5Z-106" value="546257256256546" style="shape=partialRectangle;html=1;whiteSpace=wrap;connectable=0;strokeColor=inherit;overflow=hidden;fillColor=none;top=0;left=0;bottom=0;right=0;pointerEvents=1;" parent="fv4hewloLM948KdImx5Z-104" vertex="1">
          <mxGeometry x="220" width="180" height="50" as="geometry">
            <mxRectangle width="180" height="50" as="alternateBounds" />
          </mxGeometry>
        </mxCell>
        <mxCell id="s84vQu8neqVlvNpo0KS_-2" value="zdravko.mamic@gmail.com" style="shape=partialRectangle;html=1;whiteSpace=wrap;connectable=0;strokeColor=inherit;overflow=hidden;fillColor=none;top=0;left=0;bottom=0;right=0;pointerEvents=1;" parent="fv4hewloLM948KdImx5Z-104" vertex="1">
          <mxGeometry x="400" width="200" height="50" as="geometry">
            <mxRectangle width="200" height="50" as="alternateBounds" />
          </mxGeometry>
        </mxCell>
        <mxCell id="fv4hewloLM948KdImx5Z-107" value="..." style="shape=partialRectangle;html=1;whiteSpace=wrap;connectable=0;strokeColor=inherit;overflow=hidden;fillColor=none;top=0;left=0;bottom=0;right=0;pointerEvents=1;" parent="fv4hewloLM948KdImx5Z-104" vertex="1">
          <mxGeometry x="600" width="160" height="50" as="geometry">
            <mxRectangle width="160" height="50" as="alternateBounds" />
          </mxGeometry>
        </mxCell>
        <mxCell id="fv4hewloLM948KdImx5Z-108" value="" style="shape=partialRectangle;html=1;whiteSpace=wrap;connectable=0;strokeColor=inherit;overflow=hidden;fillColor=none;top=0;left=0;bottom=0;right=0;pointerEvents=1;" parent="fv4hewloLM948KdImx5Z-104" vertex="1">
          <mxGeometry x="760" width="200" height="50" as="geometry">
            <mxRectangle width="200" height="50" as="alternateBounds" />
          </mxGeometry>
        </mxCell>
        <mxCell id="fv4hewloLM948KdImx5Z-109" value="" style="shape=tableRow;horizontal=0;startSize=0;swimlaneHead=0;swimlaneBody=0;strokeColor=inherit;top=0;left=0;bottom=0;right=0;collapsible=0;dropTarget=0;fillColor=none;points=[[0,0.5],[1,0.5]];portConstraint=eastwest;" parent="fv4hewloLM948KdImx5Z-93" vertex="1">
          <mxGeometry y="140" width="960" height="50" as="geometry" />
        </mxCell>
        <mxCell id="4aAObDvhBy8zSYSvLVwL-52" value="Vlatko" style="shape=partialRectangle;html=1;whiteSpace=wrap;connectable=0;strokeColor=inherit;overflow=hidden;fillColor=none;top=0;left=0;bottom=0;right=0;pointerEvents=1;" parent="fv4hewloLM948KdImx5Z-109" vertex="1">
          <mxGeometry width="110" height="50" as="geometry">
            <mxRectangle width="110" height="50" as="alternateBounds" />
          </mxGeometry>
        </mxCell>
        <mxCell id="fv4hewloLM948KdImx5Z-110" value="Rohak" style="shape=partialRectangle;html=1;whiteSpace=wrap;connectable=0;strokeColor=inherit;overflow=hidden;fillColor=none;top=0;left=0;bottom=0;right=0;pointerEvents=1;" parent="fv4hewloLM948KdImx5Z-109" vertex="1">
          <mxGeometry x="110" width="110" height="50" as="geometry">
            <mxRectangle width="110" height="50" as="alternateBounds" />
          </mxGeometry>
        </mxCell>
        <mxCell id="fv4hewloLM948KdImx5Z-111" value="2565625625462456" style="shape=partialRectangle;html=1;whiteSpace=wrap;connectable=0;strokeColor=inherit;overflow=hidden;fillColor=none;top=0;left=0;bottom=0;right=0;pointerEvents=1;" parent="fv4hewloLM948KdImx5Z-109" vertex="1">
          <mxGeometry x="220" width="180" height="50" as="geometry">
            <mxRectangle width="180" height="50" as="alternateBounds" />
          </mxGeometry>
        </mxCell>
        <mxCell id="s84vQu8neqVlvNpo0KS_-3" value="vlatko.rohak@fer.hr" style="shape=partialRectangle;html=1;whiteSpace=wrap;connectable=0;strokeColor=inherit;overflow=hidden;fillColor=none;top=0;left=0;bottom=0;right=0;pointerEvents=1;" parent="fv4hewloLM948KdImx5Z-109" vertex="1">
          <mxGeometry x="400" width="200" height="50" as="geometry">
            <mxRectangle width="200" height="50" as="alternateBounds" />
          </mxGeometry>
        </mxCell>
        <mxCell id="fv4hewloLM948KdImx5Z-112" value="..." style="shape=partialRectangle;html=1;whiteSpace=wrap;connectable=0;strokeColor=inherit;overflow=hidden;fillColor=none;top=0;left=0;bottom=0;right=0;pointerEvents=1;" parent="fv4hewloLM948KdImx5Z-109" vertex="1">
          <mxGeometry x="600" width="160" height="50" as="geometry">
            <mxRectangle width="160" height="50" as="alternateBounds" />
          </mxGeometry>
        </mxCell>
        <mxCell id="fv4hewloLM948KdImx5Z-113" value="" style="shape=partialRectangle;html=1;whiteSpace=wrap;connectable=0;strokeColor=inherit;overflow=hidden;fillColor=none;top=0;left=0;bottom=0;right=0;pointerEvents=1;" parent="fv4hewloLM948KdImx5Z-109" vertex="1">
          <mxGeometry x="760" width="200" height="50" as="geometry">
            <mxRectangle width="200" height="50" as="alternateBounds" />
          </mxGeometry>
        </mxCell>
        <mxCell id="fv4hewloLM948KdImx5Z-114" value="" style="shape=tableRow;horizontal=0;startSize=0;swimlaneHead=0;swimlaneBody=0;strokeColor=inherit;top=0;left=0;bottom=0;right=0;collapsible=0;dropTarget=0;fillColor=none;points=[[0,0.5],[1,0.5]];portConstraint=eastwest;" parent="fv4hewloLM948KdImx5Z-93" vertex="1">
          <mxGeometry y="190" width="960" height="50" as="geometry" />
        </mxCell>
        <mxCell id="4aAObDvhBy8zSYSvLVwL-53" style="shape=partialRectangle;html=1;whiteSpace=wrap;connectable=0;strokeColor=inherit;overflow=hidden;fillColor=none;top=0;left=0;bottom=0;right=0;pointerEvents=1;" parent="fv4hewloLM948KdImx5Z-114" vertex="1">
          <mxGeometry width="110" height="50" as="geometry">
            <mxRectangle width="110" height="50" as="alternateBounds" />
          </mxGeometry>
        </mxCell>
        <mxCell id="fv4hewloLM948KdImx5Z-115" value="itd." style="shape=partialRectangle;html=1;whiteSpace=wrap;connectable=0;strokeColor=inherit;overflow=hidden;fillColor=none;top=0;left=0;bottom=0;right=0;pointerEvents=1;" parent="fv4hewloLM948KdImx5Z-114" vertex="1">
          <mxGeometry x="110" width="110" height="50" as="geometry">
            <mxRectangle width="110" height="50" as="alternateBounds" />
          </mxGeometry>
        </mxCell>
        <mxCell id="fv4hewloLM948KdImx5Z-116" value="123123123123123" style="shape=partialRectangle;html=1;whiteSpace=wrap;connectable=0;strokeColor=inherit;overflow=hidden;fillColor=none;top=0;left=0;bottom=0;right=0;pointerEvents=1;" parent="fv4hewloLM948KdImx5Z-114" vertex="1">
          <mxGeometry x="220" width="180" height="50" as="geometry">
            <mxRectangle width="180" height="50" as="alternateBounds" />
          </mxGeometry>
        </mxCell>
        <mxCell id="s84vQu8neqVlvNpo0KS_-4" style="shape=partialRectangle;html=1;whiteSpace=wrap;connectable=0;strokeColor=inherit;overflow=hidden;fillColor=none;top=0;left=0;bottom=0;right=0;pointerEvents=1;" parent="fv4hewloLM948KdImx5Z-114" vertex="1">
          <mxGeometry x="400" width="200" height="50" as="geometry">
            <mxRectangle width="200" height="50" as="alternateBounds" />
          </mxGeometry>
        </mxCell>
        <mxCell id="fv4hewloLM948KdImx5Z-117" value="..." style="shape=partialRectangle;html=1;whiteSpace=wrap;connectable=0;strokeColor=inherit;overflow=hidden;fillColor=none;top=0;left=0;bottom=0;right=0;pointerEvents=1;" parent="fv4hewloLM948KdImx5Z-114" vertex="1">
          <mxGeometry x="600" width="160" height="50" as="geometry">
            <mxRectangle width="160" height="50" as="alternateBounds" />
          </mxGeometry>
        </mxCell>
        <mxCell id="fv4hewloLM948KdImx5Z-118" value="" style="shape=partialRectangle;html=1;whiteSpace=wrap;connectable=0;strokeColor=inherit;overflow=hidden;fillColor=none;top=0;left=0;bottom=0;right=0;pointerEvents=1;" parent="fv4hewloLM948KdImx5Z-114" vertex="1">
          <mxGeometry x="760" width="200" height="50" as="geometry">
            <mxRectangle width="200" height="50" as="alternateBounds" />
          </mxGeometry>
        </mxCell>
        <mxCell id="fv4hewloLM948KdImx5Z-119" value="Prikaži terapije" style="rounded=1;fillColor=#6a00ff;strokeColor=#3700CC;html=1;whiteSpace=wrap;fontColor=#ffffff;align=center;verticalAlign=middle;fontStyle=0;fontSize=12;sketch=0;" parent="ih7M5wc_-FO6ItcmYT_U-1" vertex="1">
          <mxGeometry x="860" y="270" width="160" height="33" as="geometry" />
        </mxCell>
        <mxCell id="fv4hewloLM948KdImx5Z-121" value="" style="shape=mxgraph.arrows.arrow_right;html=1;verticalLabelPosition=bottom;verticalAlign=top;strokeWidth=2;strokeColor=#000000;" parent="ih7M5wc_-FO6ItcmYT_U-1" vertex="1">
          <mxGeometry x="991" y="279.75" width="20" height="20" as="geometry" />
        </mxCell>
        <mxCell id="fv4hewloLM948KdImx5Z-122" value="Prikaži terapije" style="rounded=1;fillColor=#6a00ff;strokeColor=#3700CC;html=1;whiteSpace=wrap;fontColor=#ffffff;align=center;verticalAlign=middle;fontStyle=0;fontSize=12;sketch=0;" parent="ih7M5wc_-FO6ItcmYT_U-1" vertex="1">
          <mxGeometry x="860" y="420" width="160" height="33" as="geometry" />
        </mxCell>
        <mxCell id="fv4hewloLM948KdImx5Z-124" value="Prikaži terapije" style="rounded=1;fillColor=#6a00ff;strokeColor=#3700CC;html=1;whiteSpace=wrap;fontColor=#ffffff;align=center;verticalAlign=middle;fontStyle=0;fontSize=12;sketch=0;" parent="ih7M5wc_-FO6ItcmYT_U-1" vertex="1">
          <mxGeometry x="860" y="368.75" width="160" height="33" as="geometry" />
        </mxCell>
        <mxCell id="fv4hewloLM948KdImx5Z-126" value="Prikaži terapije" style="rounded=1;fillColor=#6a00ff;strokeColor=#3700CC;html=1;whiteSpace=wrap;fontColor=#ffffff;align=center;verticalAlign=middle;fontStyle=0;fontSize=12;sketch=0;" parent="ih7M5wc_-FO6ItcmYT_U-1" vertex="1">
          <mxGeometry x="860" y="320" width="160" height="33" as="geometry" />
        </mxCell>
        <mxCell id="fv4hewloLM948KdImx5Z-127" value="" style="shape=mxgraph.arrows.arrow_right;html=1;verticalLabelPosition=bottom;verticalAlign=top;strokeWidth=2;strokeColor=#000000;" parent="ih7M5wc_-FO6ItcmYT_U-1" vertex="1">
          <mxGeometry x="990" y="375.25" width="20" height="20" as="geometry" />
        </mxCell>
        <mxCell id="fv4hewloLM948KdImx5Z-128" value="" style="shape=mxgraph.arrows.arrow_right;html=1;verticalLabelPosition=bottom;verticalAlign=top;strokeWidth=2;strokeColor=#000000;" parent="ih7M5wc_-FO6ItcmYT_U-1" vertex="1">
          <mxGeometry x="988" y="427.5" width="20" height="20" as="geometry" />
        </mxCell>
        <mxCell id="BSVUspXrp9-Y9YwAZqrV-0" value="*ovaj page vide djelatnici i admini*" style="text;strokeColor=none;fillColor=none;html=1;fontSize=24;fontStyle=1;verticalAlign=middle;align=center;" parent="ih7M5wc_-FO6ItcmYT_U-1" vertex="1">
          <mxGeometry x="370" y="20" width="420" height="40" as="geometry" />
        </mxCell>
        <mxCell id="QWgugfnP1xGuhPPOvMJ7-1" value="" style="endArrow=none;html=1;rounded=0;" parent="ih7M5wc_-FO6ItcmYT_U-1" target="QWgugfnP1xGuhPPOvMJ7-0" edge="1">
          <mxGeometry width="50" height="50" relative="1" as="geometry">
            <mxPoint x="1050" y="200" as="sourcePoint" />
            <mxPoint x="70" y="200" as="targetPoint" />
          </mxGeometry>
        </mxCell>
        <mxCell id="QWgugfnP1xGuhPPOvMJ7-0" value="KLIK VODI NA PAGE 6&amp;nbsp;" style="shape=callout;whiteSpace=wrap;html=1;perimeter=calloutPerimeter;size=100;position=0.18;position2=0.49;base=30;" parent="ih7M5wc_-FO6ItcmYT_U-1" vertex="1">
          <mxGeometry x="835" y="170" width="195" height="160" as="geometry" />
        </mxCell>
        <mxCell id="fv4hewloLM948KdImx5Z-123" value="" style="shape=mxgraph.arrows.arrow_right;html=1;verticalLabelPosition=bottom;verticalAlign=top;strokeWidth=2;strokeColor=#000000;" parent="ih7M5wc_-FO6ItcmYT_U-1" vertex="1">
          <mxGeometry x="991" y="326.75" width="20" height="20" as="geometry" />
        </mxCell>
      </root>
    </mxGraphModel>
  </diagram>
  <diagram name="Page 6" id="6fx5B2PzUBwHupzUEezo">
    <mxGraphModel dx="1434" dy="758" grid="1" gridSize="10" guides="1" tooltips="1" connect="1" arrows="1" fold="1" page="1" pageScale="1" pageWidth="1100" pageHeight="850" background="#ffffff" math="0" shadow="0">
      <root>
        <mxCell id="2h3BrQDgFf5ML3vc2qCb-0" />
        <mxCell id="2h3BrQDgFf5ML3vc2qCb-1" parent="2h3BrQDgFf5ML3vc2qCb-0" />
        <mxCell id="2h3BrQDgFf5ML3vc2qCb-2" value="" style="strokeWidth=1;shadow=0;dashed=0;align=center;html=1;shape=mxgraph.mockup.containers.browserWindow;rSize=0;strokeColor=#666666;mainText=,;recursiveResize=0;rounded=0;labelBackgroundColor=none;fontFamily=Verdana;fontSize=12;container=0;" parent="2h3BrQDgFf5ML3vc2qCb-1" vertex="1">
          <mxGeometry x="25" y="15" width="1050" height="820" as="geometry" />
        </mxCell>
        <mxCell id="2h3BrQDgFf5ML3vc2qCb-3" value="Page 6" style="strokeWidth=1;shadow=0;dashed=0;align=center;html=1;shape=mxgraph.mockup.containers.anchor;fontSize=17;fontColor=#666666;align=left;" parent="2h3BrQDgFf5ML3vc2qCb-1" vertex="1">
          <mxGeometry x="85" y="27" width="110" height="26" as="geometry" />
        </mxCell>
        <mxCell id="2h3BrQDgFf5ML3vc2qCb-4" value="https://www.default.com" style="strokeWidth=1;shadow=0;dashed=0;align=center;html=1;shape=mxgraph.mockup.containers.anchor;rSize=0;fontSize=17;fontColor=#666666;align=left;" parent="2h3BrQDgFf5ML3vc2qCb-1" vertex="1">
          <mxGeometry x="155" y="75" width="250" height="26" as="geometry" />
        </mxCell>
        <mxCell id="fP66vJA8NRDYzRfapNjH-0" value="Pacijent Miroslav Mirić - terapije" style="text;strokeColor=none;fillColor=none;html=1;fontSize=24;fontStyle=1;verticalAlign=middle;align=center;" parent="2h3BrQDgFf5ML3vc2qCb-1" vertex="1">
          <mxGeometry x="110" y="160" width="410" height="70" as="geometry" />
        </mxCell>
        <mxCell id="eBFI_-zm41f3LEwWYPWR-0" value="Datum i vrijeme" style="connectable=0;recursiveResize=0;strokeColor=inherit;fillColor=#98A2B0;align=center;fontStyle=1;fontColor=#FFFFFF;html=1;" parent="2h3BrQDgFf5ML3vc2qCb-1" vertex="1">
          <mxGeometry x="130" y="265" width="240" height="45" as="geometry">
            <mxRectangle width="240" height="45" as="alternateBounds" />
          </mxGeometry>
        </mxCell>
        <mxCell id="eBFI_-zm41f3LEwWYPWR-1" value="Terapija, doktor, itd. (ovo podijeliti na više stupaca)" style="connectable=0;recursiveResize=0;strokeColor=inherit;fillColor=#98A2B0;align=center;fontStyle=1;fontColor=#FFFFFF;html=1;" parent="2h3BrQDgFf5ML3vc2qCb-1" vertex="1">
          <mxGeometry x="370" y="265" width="320" height="45" as="geometry">
            <mxRectangle width="370" height="45" as="alternateBounds" />
          </mxGeometry>
        </mxCell>
        <mxCell id="eBFI_-zm41f3LEwWYPWR-2" value="Ishod" style="connectable=0;recursiveResize=0;strokeColor=inherit;fillColor=#98A2B0;align=center;fontStyle=1;fontColor=#FFFFFF;html=1;" parent="2h3BrQDgFf5ML3vc2qCb-1" vertex="1">
          <mxGeometry x="690" y="265" width="210" height="45" as="geometry">
            <mxRectangle width="250" height="45" as="alternateBounds" />
          </mxGeometry>
        </mxCell>
        <mxCell id="eBFI_-zm41f3LEwWYPWR-3" value="30.3.2024. u 9:00" style="connectable=0;recursiveResize=0;strokeColor=inherit;fillColor=inherit;align=center;whiteSpace=wrap;html=1;" parent="2h3BrQDgFf5ML3vc2qCb-1" vertex="1">
          <mxGeometry x="130" y="310" width="240" height="79" as="geometry">
            <mxRectangle width="240" height="79" as="alternateBounds" />
          </mxGeometry>
        </mxCell>
        <mxCell id="eBFI_-zm41f3LEwWYPWR-4" value="Terapija za tendinitis, dr. Tomislav Šarić, 1. dolazak, ..." style="connectable=0;recursiveResize=0;strokeColor=inherit;fillColor=inherit;align=center;whiteSpace=wrap;html=1;" parent="2h3BrQDgFf5ML3vc2qCb-1" vertex="1">
          <mxGeometry x="370" y="310" width="320" height="79" as="geometry">
            <mxRectangle width="370" height="79" as="alternateBounds" />
          </mxGeometry>
        </mxCell>
        <mxCell id="eBFI_-zm41f3LEwWYPWR-6" value="16.12.2023. u 14:00" style="connectable=0;recursiveResize=0;strokeColor=#36393d;fillColor=#eeeeee;whiteSpace=wrap;html=1;" parent="2h3BrQDgFf5ML3vc2qCb-1" vertex="1">
          <mxGeometry x="130" y="389" width="240" height="77" as="geometry">
            <mxRectangle width="240" height="77" as="alternateBounds" />
          </mxGeometry>
        </mxCell>
        <mxCell id="eBFI_-zm41f3LEwWYPWR-7" value="..." style="connectable=0;recursiveResize=0;strokeColor=#36393d;fillColor=#eeeeee;whiteSpace=wrap;html=1;" parent="2h3BrQDgFf5ML3vc2qCb-1" vertex="1">
          <mxGeometry x="370" y="389" width="320" height="77" as="geometry">
            <mxRectangle width="370" height="77" as="alternateBounds" />
          </mxGeometry>
        </mxCell>
        <mxCell id="eBFI_-zm41f3LEwWYPWR-8" value="" style="connectable=0;recursiveResize=0;strokeColor=#36393d;fillColor=#eeeeee;whiteSpace=wrap;html=1;" parent="2h3BrQDgFf5ML3vc2qCb-1" vertex="1">
          <mxGeometry x="690" y="389" width="210" height="77" as="geometry">
            <mxRectangle width="250" height="77" as="alternateBounds" />
          </mxGeometry>
        </mxCell>
        <mxCell id="eBFI_-zm41f3LEwWYPWR-9" value="12.4.2014. u 11:00" style="connectable=0;recursiveResize=0;strokeColor=inherit;fillColor=inherit;fontStyle=0;align=center;whiteSpace=wrap;html=1;" parent="2h3BrQDgFf5ML3vc2qCb-1" vertex="1">
          <mxGeometry x="130" y="466" width="240" height="81" as="geometry">
            <mxRectangle width="240" height="81" as="alternateBounds" />
          </mxGeometry>
        </mxCell>
        <mxCell id="eBFI_-zm41f3LEwWYPWR-10" value="..." style="connectable=0;recursiveResize=0;strokeColor=inherit;fillColor=inherit;fontStyle=0;align=center;whiteSpace=wrap;html=1;" parent="2h3BrQDgFf5ML3vc2qCb-1" vertex="1">
          <mxGeometry x="370" y="466" width="320" height="81" as="geometry">
            <mxRectangle width="370" height="81" as="alternateBounds" />
          </mxGeometry>
        </mxCell>
        <mxCell id="eBFI_-zm41f3LEwWYPWR-11" value="OBAVLJENO" style="connectable=0;recursiveResize=0;strokeColor=inherit;fillColor=inherit;fontStyle=0;align=center;whiteSpace=wrap;html=1;" parent="2h3BrQDgFf5ML3vc2qCb-1" vertex="1">
          <mxGeometry x="690" y="466" width="210" height="81" as="geometry">
            <mxRectangle width="250" height="81" as="alternateBounds" />
          </mxGeometry>
        </mxCell>
        <mxCell id="eBFI_-zm41f3LEwWYPWR-12" value="1.3.2008. u 12:00" style="connectable=0;recursiveResize=0;strokeColor=#36393d;fillColor=#eeeeee;whiteSpace=wrap;html=1;" parent="2h3BrQDgFf5ML3vc2qCb-1" vertex="1">
          <mxGeometry x="130" y="547" width="240" height="77" as="geometry">
            <mxRectangle width="240" height="77" as="alternateBounds" />
          </mxGeometry>
        </mxCell>
        <mxCell id="eBFI_-zm41f3LEwWYPWR-13" value="..." style="connectable=0;recursiveResize=0;strokeColor=#36393d;fillColor=#eeeeee;whiteSpace=wrap;html=1;" parent="2h3BrQDgFf5ML3vc2qCb-1" vertex="1">
          <mxGeometry x="370" y="547" width="320" height="77" as="geometry">
            <mxRectangle width="370" height="77" as="alternateBounds" />
          </mxGeometry>
        </mxCell>
        <mxCell id="eBFI_-zm41f3LEwWYPWR-14" value="NIJE DOŠAO NA TERMIN" style="connectable=0;recursiveResize=0;strokeColor=#36393d;fillColor=#eeeeee;whiteSpace=wrap;html=1;" parent="2h3BrQDgFf5ML3vc2qCb-1" vertex="1">
          <mxGeometry x="690" y="547" width="210" height="77" as="geometry">
            <mxRectangle width="250" height="77" as="alternateBounds" />
          </mxGeometry>
        </mxCell>
        <mxCell id="xz6XrgaIBOTeuxvaZMJB-0" value="Akcija" style="connectable=0;recursiveResize=0;strokeColor=inherit;fillColor=#98A2B0;align=center;fontStyle=1;fontColor=#FFFFFF;html=1;" parent="2h3BrQDgFf5ML3vc2qCb-1" vertex="1">
          <mxGeometry x="900" y="265" width="120" height="45" as="geometry">
            <mxRectangle width="250" height="45" as="alternateBounds" />
          </mxGeometry>
        </mxCell>
        <mxCell id="xz6XrgaIBOTeuxvaZMJB-1" value="" style="connectable=0;recursiveResize=0;strokeColor=inherit;fillColor=inherit;align=center;whiteSpace=wrap;html=1;" parent="2h3BrQDgFf5ML3vc2qCb-1" vertex="1">
          <mxGeometry x="900" y="310" width="120" height="79" as="geometry">
            <mxRectangle width="250" height="79" as="alternateBounds" />
          </mxGeometry>
        </mxCell>
        <mxCell id="xz6XrgaIBOTeuxvaZMJB-2" value="" style="connectable=0;recursiveResize=0;strokeColor=#36393d;fillColor=#eeeeee;whiteSpace=wrap;html=1;" parent="2h3BrQDgFf5ML3vc2qCb-1" vertex="1">
          <mxGeometry x="900" y="389" width="120" height="77" as="geometry">
            <mxRectangle width="250" height="77" as="alternateBounds" />
          </mxGeometry>
        </mxCell>
        <mxCell id="xz6XrgaIBOTeuxvaZMJB-3" value="" style="connectable=0;recursiveResize=0;strokeColor=inherit;fillColor=inherit;align=center;whiteSpace=wrap;html=1;" parent="2h3BrQDgFf5ML3vc2qCb-1" vertex="1">
          <mxGeometry x="900" y="466" width="120" height="84" as="geometry">
            <mxRectangle width="250" height="79" as="alternateBounds" />
          </mxGeometry>
        </mxCell>
        <mxCell id="xz6XrgaIBOTeuxvaZMJB-4" value="" style="connectable=0;recursiveResize=0;strokeColor=#36393d;fillColor=#eeeeee;whiteSpace=wrap;html=1;" parent="2h3BrQDgFf5ML3vc2qCb-1" vertex="1">
          <mxGeometry x="900" y="547" width="120" height="77" as="geometry">
            <mxRectangle width="250" height="77" as="alternateBounds" />
          </mxGeometry>
        </mxCell>
        <mxCell id="c4-YN_1g4WMvwahvDFjs-0" value="EVIDENTIRAJ" style="rounded=1;fillColor=#6a00ff;strokeColor=#3700CC;html=1;whiteSpace=wrap;fontColor=#ffffff;align=center;verticalAlign=middle;fontStyle=0;fontSize=12;sketch=0;" parent="2h3BrQDgFf5ML3vc2qCb-1" vertex="1">
          <mxGeometry x="910" y="333" width="100" height="33" as="geometry" />
        </mxCell>
        <mxCell id="c4-YN_1g4WMvwahvDFjs-1" value="EVIDENTIRAJ" style="rounded=1;fillColor=#6a00ff;strokeColor=#3700CC;html=1;whiteSpace=wrap;fontColor=#ffffff;align=center;verticalAlign=middle;fontStyle=0;fontSize=12;sketch=0;" parent="2h3BrQDgFf5ML3vc2qCb-1" vertex="1">
          <mxGeometry x="910" y="409" width="100" height="33" as="geometry" />
        </mxCell>
        <mxCell id="c4-YN_1g4WMvwahvDFjs-2" value="PRIKAŽI EVIDENCIJU" style="rounded=1;fillColor=#76608a;strokeColor=#432D57;html=1;whiteSpace=wrap;fontColor=#ffffff;align=center;verticalAlign=middle;fontStyle=0;fontSize=12;sketch=0;" parent="2h3BrQDgFf5ML3vc2qCb-1" vertex="1">
          <mxGeometry x="910" y="510" width="100" height="33" as="geometry" />
        </mxCell>
        <mxCell id="c4-YN_1g4WMvwahvDFjs-4" value="PRIKAŽI EVIDENCIJU" style="rounded=1;fillColor=#76608a;strokeColor=#432D57;html=1;whiteSpace=wrap;fontColor=#ffffff;align=center;verticalAlign=middle;fontStyle=0;fontSize=12;sketch=0;" parent="2h3BrQDgFf5ML3vc2qCb-1" vertex="1">
          <mxGeometry x="910" y="586" width="100" height="33" as="geometry" />
        </mxCell>
        <mxCell id="c4-YN_1g4WMvwahvDFjs-5" value="EVIDENTIRANO" style="text;html=1;strokeColor=none;fillColor=none;align=center;verticalAlign=middle;whiteSpace=wrap;rounded=0;" parent="2h3BrQDgFf5ML3vc2qCb-1" vertex="1">
          <mxGeometry x="910" y="474" width="100" height="30" as="geometry" />
        </mxCell>
        <mxCell id="c4-YN_1g4WMvwahvDFjs-6" value="EVIDENTIRANO" style="text;html=1;strokeColor=none;fillColor=none;align=center;verticalAlign=middle;whiteSpace=wrap;rounded=0;" parent="2h3BrQDgFf5ML3vc2qCb-1" vertex="1">
          <mxGeometry x="910" y="552" width="100" height="30" as="geometry" />
        </mxCell>
        <mxCell id="-83UAeCe6ulmfSboftJs-0" value="*ovaj page vide djelatnici i admini*" style="text;strokeColor=none;fillColor=none;html=1;fontSize=24;fontStyle=1;verticalAlign=middle;align=center;" parent="2h3BrQDgFf5ML3vc2qCb-1" vertex="1">
          <mxGeometry x="370" y="20" width="420" height="40" as="geometry" />
        </mxCell>
        <mxCell id="okns3Jn8qyVnkWUPjvvr-0" value="KLIK VODI NA PAGE 8&amp;nbsp;" style="shape=callout;whiteSpace=wrap;html=1;perimeter=calloutPerimeter;size=80;position=0.5;" parent="2h3BrQDgFf5ML3vc2qCb-1" vertex="1">
          <mxGeometry x="830" y="180" width="200" height="160" as="geometry" />
        </mxCell>
      </root>
    </mxGraphModel>
  </diagram>
  <diagram name="Page 7" id="xHmg3oreCNYPOpRnnmKN">
    <mxGraphModel dx="1434" dy="758" grid="1" gridSize="10" guides="1" tooltips="1" connect="1" arrows="1" fold="1" page="1" pageScale="1" pageWidth="1100" pageHeight="850" background="#ffffff" math="0" shadow="0">
      <root>
        <mxCell id="Xy2jGdK7bTG2j28SyOMI-0" />
        <mxCell id="Xy2jGdK7bTG2j28SyOMI-1" parent="Xy2jGdK7bTG2j28SyOMI-0" />
        <mxCell id="Xy2jGdK7bTG2j28SyOMI-2" value="" style="strokeWidth=1;shadow=0;dashed=0;align=center;html=1;shape=mxgraph.mockup.containers.browserWindow;rSize=0;strokeColor=#666666;mainText=,;recursiveResize=0;rounded=0;labelBackgroundColor=none;fontFamily=Verdana;fontSize=12;container=0;" parent="Xy2jGdK7bTG2j28SyOMI-1" vertex="1">
          <mxGeometry x="25" y="15" width="1050" height="820" as="geometry" />
        </mxCell>
        <mxCell id="Xy2jGdK7bTG2j28SyOMI-3" value="Page 7" style="strokeWidth=1;shadow=0;dashed=0;align=center;html=1;shape=mxgraph.mockup.containers.anchor;fontSize=17;fontColor=#666666;align=left;" parent="Xy2jGdK7bTG2j28SyOMI-1" vertex="1">
          <mxGeometry x="85" y="27" width="110" height="26" as="geometry" />
        </mxCell>
        <mxCell id="Xy2jGdK7bTG2j28SyOMI-4" value="https://www.default.com" style="strokeWidth=1;shadow=0;dashed=0;align=center;html=1;shape=mxgraph.mockup.containers.anchor;rSize=0;fontSize=17;fontColor=#666666;align=left;" parent="Xy2jGdK7bTG2j28SyOMI-1" vertex="1">
          <mxGeometry x="155" y="75" width="250" height="26" as="geometry" />
        </mxCell>
        <mxCell id="Xy2jGdK7bTG2j28SyOMI-5" value="Zahtjevi za termine - svi pacijenti" style="text;strokeColor=none;fillColor=none;html=1;fontSize=24;fontStyle=1;verticalAlign=middle;align=left;" parent="Xy2jGdK7bTG2j28SyOMI-1" vertex="1">
          <mxGeometry x="130" y="160" width="580" height="70" as="geometry" />
        </mxCell>
        <mxCell id="B9GeWAbSimSp_tWO2yvv-0" value="*ovaj page vide djelatnici i admini*" style="text;strokeColor=none;fillColor=none;html=1;fontSize=24;fontStyle=1;verticalAlign=middle;align=center;" parent="Xy2jGdK7bTG2j28SyOMI-1" vertex="1">
          <mxGeometry x="370" y="20" width="420" height="40" as="geometry" />
        </mxCell>
        <mxCell id="sCR4Z6SCLXpw2ezmSI5w-0" value="&lt;font color=&quot;#ff0000&quot;&gt;&lt;span style=&quot;font-size: 16px;&quot;&gt;&lt;b&gt;*ovdje dodati opciju filtriranja, npr &quot;zahtjevi na čekanju&quot;, &quot;rješeni zahtjevi&quot; itd.*&lt;/b&gt;&lt;/span&gt;&lt;/font&gt;" style="text;html=1;strokeColor=none;fillColor=none;align=left;verticalAlign=middle;whiteSpace=wrap;rounded=0;" vertex="1" parent="Xy2jGdK7bTG2j28SyOMI-1">
          <mxGeometry x="419" y="150" width="620" height="30" as="geometry" />
        </mxCell>
        <mxCell id="G1bMAMKceKYF0BsuxFOS-0" value="Assets" style="childLayout=tableLayout;recursiveResize=0;strokeColor=#98bf21;fillColor=default;shadow=1;rounded=0;resizeLastRow=0;" vertex="1" parent="Xy2jGdK7bTG2j28SyOMI-1">
          <mxGeometry x="47" y="230" width="1007" height="359" as="geometry" />
        </mxCell>
        <mxCell id="G1bMAMKceKYF0BsuxFOS-1" style="shape=tableRow;horizontal=0;startSize=0;swimlaneHead=0;swimlaneBody=0;top=0;left=0;bottom=0;right=0;dropTarget=0;collapsible=0;recursiveResize=0;expand=0;fontStyle=0;strokeColor=inherit;fillColor=#ffffff;" vertex="1" parent="G1bMAMKceKYF0BsuxFOS-0">
          <mxGeometry width="1007" height="45" as="geometry" />
        </mxCell>
        <mxCell id="G1bMAMKceKYF0BsuxFOS-43" value="Ime" style="connectable=0;recursiveResize=0;strokeColor=inherit;fillColor=#98A2B0;align=center;fontStyle=1;fontColor=#FFFFFF;html=1;" vertex="1" parent="G1bMAMKceKYF0BsuxFOS-1">
          <mxGeometry width="73" height="45" as="geometry">
            <mxRectangle width="73" height="45" as="alternateBounds" />
          </mxGeometry>
        </mxCell>
        <mxCell id="G1bMAMKceKYF0BsuxFOS-38" value="Prezime" style="connectable=0;recursiveResize=0;strokeColor=inherit;fillColor=#98A2B0;align=center;fontStyle=1;fontColor=#FFFFFF;html=1;" vertex="1" parent="G1bMAMKceKYF0BsuxFOS-1">
          <mxGeometry x="73" width="80" height="45" as="geometry">
            <mxRectangle width="80" height="45" as="alternateBounds" />
          </mxGeometry>
        </mxCell>
        <mxCell id="G1bMAMKceKYF0BsuxFOS-2" value="Predano" style="connectable=0;recursiveResize=0;strokeColor=inherit;fillColor=#98A2B0;align=center;fontStyle=1;fontColor=#FFFFFF;html=1;" vertex="1" parent="G1bMAMKceKYF0BsuxFOS-1">
          <mxGeometry x="153" width="110" height="45" as="geometry">
            <mxRectangle width="110" height="45" as="alternateBounds" />
          </mxGeometry>
        </mxCell>
        <mxCell id="G1bMAMKceKYF0BsuxFOS-3" value="Željeni termin" style="connectable=0;recursiveResize=0;strokeColor=inherit;fillColor=#98A2B0;align=center;fontStyle=1;fontColor=#FFFFFF;html=1;" vertex="1" parent="G1bMAMKceKYF0BsuxFOS-1">
          <mxGeometry x="263" width="110" height="45" as="geometry">
            <mxRectangle width="110" height="45" as="alternateBounds" />
          </mxGeometry>
        </mxCell>
        <mxCell id="G1bMAMKceKYF0BsuxFOS-4" value="Tip rehabilitacije" style="connectable=0;recursiveResize=0;strokeColor=inherit;fillColor=#98A2B0;align=center;fontStyle=1;fontColor=#FFFFFF;html=1;" vertex="1" parent="G1bMAMKceKYF0BsuxFOS-1">
          <mxGeometry x="373" width="100" height="45" as="geometry">
            <mxRectangle width="100" height="45" as="alternateBounds" />
          </mxGeometry>
        </mxCell>
        <mxCell id="G1bMAMKceKYF0BsuxFOS-5" value="Uputio liječnik:" style="connectable=0;recursiveResize=0;strokeColor=inherit;fillColor=#98A2B0;align=center;fontStyle=1;fontColor=#FFFFFF;html=1;" vertex="1" parent="G1bMAMKceKYF0BsuxFOS-1">
          <mxGeometry x="473" width="120" height="45" as="geometry">
            <mxRectangle width="120" height="45" as="alternateBounds" />
          </mxGeometry>
        </mxCell>
        <mxCell id="G1bMAMKceKYF0BsuxFOS-6" value="Referenca na prošlu terapiju:" style="connectable=0;recursiveResize=0;strokeColor=inherit;fillColor=#98A2B0;align=center;fontStyle=1;fontColor=#FFFFFF;html=1;" vertex="1" parent="G1bMAMKceKYF0BsuxFOS-1">
          <mxGeometry x="593" width="200" height="45" as="geometry">
            <mxRectangle width="200" height="45" as="alternateBounds" />
          </mxGeometry>
        </mxCell>
        <mxCell id="G1bMAMKceKYF0BsuxFOS-7" value="Status" style="connectable=0;recursiveResize=0;strokeColor=inherit;fillColor=#98A2B0;align=center;fontStyle=1;fontColor=#FFFFFF;html=1;" vertex="1" parent="G1bMAMKceKYF0BsuxFOS-1">
          <mxGeometry x="793" width="214" height="45" as="geometry">
            <mxRectangle width="214" height="45" as="alternateBounds" />
          </mxGeometry>
        </mxCell>
        <mxCell id="G1bMAMKceKYF0BsuxFOS-8" value="" style="shape=tableRow;horizontal=0;startSize=0;swimlaneHead=0;swimlaneBody=0;top=0;left=0;bottom=0;right=0;dropTarget=0;collapsible=0;recursiveResize=0;expand=0;fontStyle=0;strokeColor=inherit;fillColor=#ffffff;" vertex="1" parent="G1bMAMKceKYF0BsuxFOS-0">
          <mxGeometry y="45" width="1007" height="79" as="geometry" />
        </mxCell>
        <mxCell id="G1bMAMKceKYF0BsuxFOS-44" value="Karlo" style="connectable=0;recursiveResize=0;strokeColor=inherit;fillColor=inherit;align=center;whiteSpace=wrap;html=1;" vertex="1" parent="G1bMAMKceKYF0BsuxFOS-8">
          <mxGeometry width="73" height="79" as="geometry">
            <mxRectangle width="73" height="79" as="alternateBounds" />
          </mxGeometry>
        </mxCell>
        <mxCell id="G1bMAMKceKYF0BsuxFOS-39" value="Vrdoljak" style="connectable=0;recursiveResize=0;strokeColor=inherit;fillColor=inherit;align=center;whiteSpace=wrap;html=1;" vertex="1" parent="G1bMAMKceKYF0BsuxFOS-8">
          <mxGeometry x="73" width="80" height="79" as="geometry">
            <mxRectangle width="80" height="79" as="alternateBounds" />
          </mxGeometry>
        </mxCell>
        <mxCell id="G1bMAMKceKYF0BsuxFOS-9" value="30.12.2023. u 9:00" style="connectable=0;recursiveResize=0;strokeColor=inherit;fillColor=inherit;align=center;whiteSpace=wrap;html=1;" vertex="1" parent="G1bMAMKceKYF0BsuxFOS-8">
          <mxGeometry x="153" width="110" height="79" as="geometry">
            <mxRectangle width="110" height="79" as="alternateBounds" />
          </mxGeometry>
        </mxCell>
        <mxCell id="G1bMAMKceKYF0BsuxFOS-10" value="30.3.2024. u 9:00" style="connectable=0;recursiveResize=0;strokeColor=inherit;fillColor=inherit;align=center;whiteSpace=wrap;html=1;" vertex="1" parent="G1bMAMKceKYF0BsuxFOS-8">
          <mxGeometry x="263" width="110" height="79" as="geometry">
            <mxRectangle width="110" height="79" as="alternateBounds" />
          </mxGeometry>
        </mxCell>
        <mxCell id="G1bMAMKceKYF0BsuxFOS-11" value="Za kralježnicu" style="connectable=0;recursiveResize=0;strokeColor=inherit;fillColor=inherit;align=center;whiteSpace=wrap;html=1;" vertex="1" parent="G1bMAMKceKYF0BsuxFOS-8">
          <mxGeometry x="373" width="100" height="79" as="geometry">
            <mxRectangle width="100" height="79" as="alternateBounds" />
          </mxGeometry>
        </mxCell>
        <mxCell id="G1bMAMKceKYF0BsuxFOS-12" value="dr. Tomislav Šarić" style="connectable=0;recursiveResize=0;strokeColor=inherit;fillColor=inherit;align=center;whiteSpace=wrap;html=1;" vertex="1" parent="G1bMAMKceKYF0BsuxFOS-8">
          <mxGeometry x="473" width="120" height="79" as="geometry">
            <mxRectangle width="120" height="79" as="alternateBounds" />
          </mxGeometry>
        </mxCell>
        <mxCell id="G1bMAMKceKYF0BsuxFOS-13" value="/" style="connectable=0;recursiveResize=0;strokeColor=inherit;fillColor=inherit;align=center;whiteSpace=wrap;html=1;" vertex="1" parent="G1bMAMKceKYF0BsuxFOS-8">
          <mxGeometry x="593" width="200" height="79" as="geometry">
            <mxRectangle width="200" height="79" as="alternateBounds" />
          </mxGeometry>
        </mxCell>
        <mxCell id="G1bMAMKceKYF0BsuxFOS-14" value="" style="connectable=0;recursiveResize=0;strokeColor=inherit;fillColor=inherit;align=center;whiteSpace=wrap;html=1;" vertex="1" parent="G1bMAMKceKYF0BsuxFOS-8">
          <mxGeometry x="793" width="214" height="79" as="geometry">
            <mxRectangle width="214" height="79" as="alternateBounds" />
          </mxGeometry>
        </mxCell>
        <mxCell id="G1bMAMKceKYF0BsuxFOS-15" value="" style="shape=tableRow;horizontal=0;startSize=0;swimlaneHead=0;swimlaneBody=0;top=0;left=0;bottom=0;right=0;dropTarget=0;collapsible=0;recursiveResize=0;expand=0;fontStyle=1;strokeColor=inherit;fillColor=#EAF2D3;" vertex="1" parent="G1bMAMKceKYF0BsuxFOS-0">
          <mxGeometry y="124" width="1007" height="77" as="geometry" />
        </mxCell>
        <mxCell id="G1bMAMKceKYF0BsuxFOS-45" value="Vlatko" style="connectable=0;recursiveResize=0;strokeColor=#36393d;fillColor=#eeeeee;whiteSpace=wrap;html=1;" vertex="1" parent="G1bMAMKceKYF0BsuxFOS-15">
          <mxGeometry width="73" height="77" as="geometry">
            <mxRectangle width="73" height="77" as="alternateBounds" />
          </mxGeometry>
        </mxCell>
        <mxCell id="G1bMAMKceKYF0BsuxFOS-40" value="Rohak" style="connectable=0;recursiveResize=0;strokeColor=#36393d;fillColor=#eeeeee;whiteSpace=wrap;html=1;" vertex="1" parent="G1bMAMKceKYF0BsuxFOS-15">
          <mxGeometry x="73" width="80" height="77" as="geometry">
            <mxRectangle width="80" height="77" as="alternateBounds" />
          </mxGeometry>
        </mxCell>
        <mxCell id="G1bMAMKceKYF0BsuxFOS-16" value="11.12.2023. u 14:00" style="connectable=0;recursiveResize=0;strokeColor=#36393d;fillColor=#eeeeee;whiteSpace=wrap;html=1;" vertex="1" parent="G1bMAMKceKYF0BsuxFOS-15">
          <mxGeometry x="153" width="110" height="77" as="geometry">
            <mxRectangle width="110" height="77" as="alternateBounds" />
          </mxGeometry>
        </mxCell>
        <mxCell id="G1bMAMKceKYF0BsuxFOS-17" value="16.12.2023. u 14:00" style="connectable=0;recursiveResize=0;strokeColor=#36393d;fillColor=#eeeeee;whiteSpace=wrap;html=1;" vertex="1" parent="G1bMAMKceKYF0BsuxFOS-15">
          <mxGeometry x="263" width="110" height="77" as="geometry">
            <mxRectangle width="110" height="77" as="alternateBounds" />
          </mxGeometry>
        </mxCell>
        <mxCell id="G1bMAMKceKYF0BsuxFOS-18" value="Za rame" style="connectable=0;recursiveResize=0;strokeColor=#36393d;fillColor=#eeeeee;whiteSpace=wrap;html=1;" vertex="1" parent="G1bMAMKceKYF0BsuxFOS-15">
          <mxGeometry x="373" width="100" height="77" as="geometry">
            <mxRectangle width="100" height="77" as="alternateBounds" />
          </mxGeometry>
        </mxCell>
        <mxCell id="G1bMAMKceKYF0BsuxFOS-19" style="connectable=0;recursiveResize=0;strokeColor=#36393d;fillColor=#eeeeee;whiteSpace=wrap;html=1;" vertex="1" parent="G1bMAMKceKYF0BsuxFOS-15">
          <mxGeometry x="473" width="120" height="77" as="geometry">
            <mxRectangle width="120" height="77" as="alternateBounds" />
          </mxGeometry>
        </mxCell>
        <mxCell id="G1bMAMKceKYF0BsuxFOS-20" value="..." style="connectable=0;recursiveResize=0;strokeColor=#36393d;fillColor=#eeeeee;whiteSpace=wrap;html=1;" vertex="1" parent="G1bMAMKceKYF0BsuxFOS-15">
          <mxGeometry x="593" width="200" height="77" as="geometry">
            <mxRectangle width="200" height="77" as="alternateBounds" />
          </mxGeometry>
        </mxCell>
        <mxCell id="G1bMAMKceKYF0BsuxFOS-21" value="ODBIJENO" style="connectable=0;recursiveResize=0;strokeColor=#36393d;fillColor=#eeeeee;whiteSpace=wrap;html=1;" vertex="1" parent="G1bMAMKceKYF0BsuxFOS-15">
          <mxGeometry x="793" width="214" height="77" as="geometry">
            <mxRectangle width="214" height="77" as="alternateBounds" />
          </mxGeometry>
        </mxCell>
        <mxCell id="G1bMAMKceKYF0BsuxFOS-22" value="" style="shape=tableRow;horizontal=0;startSize=0;swimlaneHead=0;swimlaneBody=0;top=0;left=0;bottom=0;right=0;dropTarget=0;collapsible=0;recursiveResize=0;expand=0;fontStyle=0;strokeColor=inherit;fillColor=#ffffff;" vertex="1" parent="G1bMAMKceKYF0BsuxFOS-0">
          <mxGeometry y="201" width="1007" height="81" as="geometry" />
        </mxCell>
        <mxCell id="G1bMAMKceKYF0BsuxFOS-46" value="Zdravko" style="connectable=0;recursiveResize=0;strokeColor=inherit;fillColor=inherit;fontStyle=0;align=center;whiteSpace=wrap;html=1;" vertex="1" parent="G1bMAMKceKYF0BsuxFOS-22">
          <mxGeometry width="73" height="81" as="geometry">
            <mxRectangle width="73" height="81" as="alternateBounds" />
          </mxGeometry>
        </mxCell>
        <mxCell id="G1bMAMKceKYF0BsuxFOS-41" value="Mamić" style="connectable=0;recursiveResize=0;strokeColor=inherit;fillColor=inherit;fontStyle=0;align=center;whiteSpace=wrap;html=1;" vertex="1" parent="G1bMAMKceKYF0BsuxFOS-22">
          <mxGeometry x="73" width="80" height="81" as="geometry">
            <mxRectangle width="80" height="81" as="alternateBounds" />
          </mxGeometry>
        </mxCell>
        <mxCell id="G1bMAMKceKYF0BsuxFOS-23" value="10.4.2014. u 11:00" style="connectable=0;recursiveResize=0;strokeColor=inherit;fillColor=inherit;fontStyle=0;align=center;whiteSpace=wrap;html=1;" vertex="1" parent="G1bMAMKceKYF0BsuxFOS-22">
          <mxGeometry x="153" width="110" height="81" as="geometry">
            <mxRectangle width="110" height="81" as="alternateBounds" />
          </mxGeometry>
        </mxCell>
        <mxCell id="G1bMAMKceKYF0BsuxFOS-24" value="12.4.2014. u 11:00" style="connectable=0;recursiveResize=0;strokeColor=inherit;fillColor=inherit;fontStyle=0;align=center;whiteSpace=wrap;html=1;" vertex="1" parent="G1bMAMKceKYF0BsuxFOS-22">
          <mxGeometry x="263" width="110" height="81" as="geometry">
            <mxRectangle width="110" height="81" as="alternateBounds" />
          </mxGeometry>
        </mxCell>
        <mxCell id="G1bMAMKceKYF0BsuxFOS-25" value="Za rame" style="connectable=0;recursiveResize=0;strokeColor=inherit;fillColor=inherit;fontStyle=0;align=center;whiteSpace=wrap;html=1;" vertex="1" parent="G1bMAMKceKYF0BsuxFOS-22">
          <mxGeometry x="373" width="100" height="81" as="geometry">
            <mxRectangle width="100" height="81" as="alternateBounds" />
          </mxGeometry>
        </mxCell>
        <mxCell id="G1bMAMKceKYF0BsuxFOS-26" style="connectable=0;recursiveResize=0;strokeColor=inherit;fillColor=inherit;fontStyle=0;align=center;whiteSpace=wrap;html=1;" vertex="1" parent="G1bMAMKceKYF0BsuxFOS-22">
          <mxGeometry x="473" width="120" height="81" as="geometry">
            <mxRectangle width="120" height="81" as="alternateBounds" />
          </mxGeometry>
        </mxCell>
        <mxCell id="G1bMAMKceKYF0BsuxFOS-27" value="..." style="connectable=0;recursiveResize=0;strokeColor=inherit;fillColor=inherit;fontStyle=0;align=center;whiteSpace=wrap;html=1;" vertex="1" parent="G1bMAMKceKYF0BsuxFOS-22">
          <mxGeometry x="593" width="200" height="81" as="geometry">
            <mxRectangle width="200" height="81" as="alternateBounds" />
          </mxGeometry>
        </mxCell>
        <mxCell id="G1bMAMKceKYF0BsuxFOS-28" value="ODOBRENO" style="connectable=0;recursiveResize=0;strokeColor=inherit;fillColor=inherit;fontStyle=0;align=center;whiteSpace=wrap;html=1;" vertex="1" parent="G1bMAMKceKYF0BsuxFOS-22">
          <mxGeometry x="793" width="214" height="81" as="geometry">
            <mxRectangle width="214" height="81" as="alternateBounds" />
          </mxGeometry>
        </mxCell>
        <mxCell id="G1bMAMKceKYF0BsuxFOS-29" value="" style="shape=tableRow;horizontal=0;startSize=0;swimlaneHead=0;swimlaneBody=0;top=0;left=0;bottom=0;right=0;dropTarget=0;collapsible=0;recursiveResize=0;expand=0;fontStyle=1;strokeColor=inherit;fillColor=#EAF2D3;" vertex="1" parent="G1bMAMKceKYF0BsuxFOS-0">
          <mxGeometry y="282" width="1007" height="77" as="geometry" />
        </mxCell>
        <mxCell id="G1bMAMKceKYF0BsuxFOS-47" value="Zoran" style="connectable=0;recursiveResize=0;strokeColor=#36393d;fillColor=#eeeeee;whiteSpace=wrap;html=1;" vertex="1" parent="G1bMAMKceKYF0BsuxFOS-29">
          <mxGeometry width="73" height="77" as="geometry">
            <mxRectangle width="73" height="77" as="alternateBounds" />
          </mxGeometry>
        </mxCell>
        <mxCell id="G1bMAMKceKYF0BsuxFOS-42" value="Mamić" style="connectable=0;recursiveResize=0;strokeColor=#36393d;fillColor=#eeeeee;whiteSpace=wrap;html=1;" vertex="1" parent="G1bMAMKceKYF0BsuxFOS-29">
          <mxGeometry x="73" width="80" height="77" as="geometry">
            <mxRectangle width="80" height="77" as="alternateBounds" />
          </mxGeometry>
        </mxCell>
        <mxCell id="G1bMAMKceKYF0BsuxFOS-30" value="1.2.2008. u 12:00" style="connectable=0;recursiveResize=0;strokeColor=#36393d;fillColor=#eeeeee;whiteSpace=wrap;html=1;" vertex="1" parent="G1bMAMKceKYF0BsuxFOS-29">
          <mxGeometry x="153" width="110" height="77" as="geometry">
            <mxRectangle width="110" height="77" as="alternateBounds" />
          </mxGeometry>
        </mxCell>
        <mxCell id="G1bMAMKceKYF0BsuxFOS-31" value="1.3.2008. u 12:00" style="connectable=0;recursiveResize=0;strokeColor=#36393d;fillColor=#eeeeee;whiteSpace=wrap;html=1;" vertex="1" parent="G1bMAMKceKYF0BsuxFOS-29">
          <mxGeometry x="263" width="110" height="77" as="geometry">
            <mxRectangle width="110" height="77" as="alternateBounds" />
          </mxGeometry>
        </mxCell>
        <mxCell id="G1bMAMKceKYF0BsuxFOS-32" value="Za rame" style="connectable=0;recursiveResize=0;strokeColor=#36393d;fillColor=#eeeeee;whiteSpace=wrap;html=1;" vertex="1" parent="G1bMAMKceKYF0BsuxFOS-29">
          <mxGeometry x="373" width="100" height="77" as="geometry">
            <mxRectangle width="100" height="77" as="alternateBounds" />
          </mxGeometry>
        </mxCell>
        <mxCell id="G1bMAMKceKYF0BsuxFOS-33" style="connectable=0;recursiveResize=0;strokeColor=#36393d;fillColor=#eeeeee;whiteSpace=wrap;html=1;" vertex="1" parent="G1bMAMKceKYF0BsuxFOS-29">
          <mxGeometry x="473" width="120" height="77" as="geometry">
            <mxRectangle width="120" height="77" as="alternateBounds" />
          </mxGeometry>
        </mxCell>
        <mxCell id="G1bMAMKceKYF0BsuxFOS-34" value="..." style="connectable=0;recursiveResize=0;strokeColor=#36393d;fillColor=#eeeeee;whiteSpace=wrap;html=1;" vertex="1" parent="G1bMAMKceKYF0BsuxFOS-29">
          <mxGeometry x="593" width="200" height="77" as="geometry">
            <mxRectangle width="200" height="77" as="alternateBounds" />
          </mxGeometry>
        </mxCell>
        <mxCell id="G1bMAMKceKYF0BsuxFOS-35" value="ISTEKLO" style="connectable=0;recursiveResize=0;strokeColor=#36393d;fillColor=#eeeeee;whiteSpace=wrap;html=1;" vertex="1" parent="G1bMAMKceKYF0BsuxFOS-29">
          <mxGeometry x="793" width="214" height="77" as="geometry">
            <mxRectangle width="214" height="77" as="alternateBounds" />
          </mxGeometry>
        </mxCell>
        <mxCell id="G1bMAMKceKYF0BsuxFOS-36" value="&lt;p style=&quot;line-height: 100%;&quot;&gt;&lt;font style=&quot;font-size: 10px;&quot;&gt;&lt;b&gt;PRIHVATI&lt;/b&gt;&lt;/font&gt;&lt;/p&gt;" style="html=1;shadow=0;dashed=0;shape=mxgraph.bootstrap.rrect;rSize=5;strokeColor=none;strokeWidth=1;fillColor=#33A64C;fontColor=#FFFFFF;whiteSpace=wrap;align=center;verticalAlign=middle;spacingLeft=0;fontStyle=0;fontSize=16;spacing=5;" vertex="1" parent="Xy2jGdK7bTG2j28SyOMI-1">
          <mxGeometry x="950" y="300" width="80" height="29" as="geometry" />
        </mxCell>
        <mxCell id="G1bMAMKceKYF0BsuxFOS-37" value="&lt;p style=&quot;line-height: 100%;&quot;&gt;&lt;font style=&quot;font-size: 10px;&quot;&gt;&lt;b&gt;ODBIJ&lt;/b&gt;&lt;/font&gt;&lt;/p&gt;" style="html=1;shadow=0;dashed=0;shape=mxgraph.bootstrap.rrect;rSize=5;strokeColor=none;strokeWidth=1;fillColor=#DB2843;fontColor=#FFFFFF;whiteSpace=wrap;align=center;verticalAlign=middle;spacingLeft=0;fontStyle=0;fontSize=16;spacing=5;" vertex="1" parent="Xy2jGdK7bTG2j28SyOMI-1">
          <mxGeometry x="870" y="300" width="70" height="29" as="geometry" />
        </mxCell>
        <mxCell id="8414hdkp-DQM1JbrJyh9-0" value="" style="shape=flexArrow;endArrow=classic;html=1;rounded=0;fillColor=#647687;strokeColor=#314354;endWidth=24;endSize=9.91;width=6;" edge="1" parent="Xy2jGdK7bTG2j28SyOMI-1" source="G1bMAMKceKYF0BsuxFOS-36">
          <mxGeometry width="50" height="50" relative="1" as="geometry">
            <mxPoint x="930" y="390" as="sourcePoint" />
            <mxPoint x="719.1503604531413" y="610" as="targetPoint" />
          </mxGeometry>
        </mxCell>
        <mxCell id="8414hdkp-DQM1JbrJyh9-8" value="&lt;span style=&quot;font-size: 16px;&quot;&gt;&lt;b style=&quot;&quot;&gt;*na klik se otvara ovaj modalni prozor*&lt;/b&gt;&lt;/span&gt;" style="text;html=1;strokeColor=none;fillColor=none;align=left;verticalAlign=middle;whiteSpace=wrap;rounded=0;rotation=-45;" vertex="1" parent="Xy2jGdK7bTG2j28SyOMI-1">
          <mxGeometry x="672.93" y="447.07" width="301" height="30" as="geometry" />
        </mxCell>
        <mxCell id="8414hdkp-DQM1JbrJyh9-10" value="Koju sobu želite rezervirati za pacijenta?" style="html=1;shadow=0;dashed=0;shape=mxgraph.bootstrap.rrect;rSize=5;html=1;strokeColor=#C8C8C8;fillColor=#ffffff;whiteSpace=wrap;verticalAlign=top;align=left;fontSize=18;spacing=15;spacingTop=-5;" vertex="1" parent="Xy2jGdK7bTG2j28SyOMI-1">
          <mxGeometry x="350" y="610" width="400" height="200" as="geometry" />
        </mxCell>
        <mxCell id="8414hdkp-DQM1JbrJyh9-11" value="" style="shape=line;strokeColor=#dddddd;resizeWidth=1;" vertex="1" parent="8414hdkp-DQM1JbrJyh9-10">
          <mxGeometry width="400" height="10" relative="1" as="geometry">
            <mxPoint y="50" as="offset" />
          </mxGeometry>
        </mxCell>
        <mxCell id="8414hdkp-DQM1JbrJyh9-12" value="" style="html=1;shadow=0;dashed=0;shape=mxgraph.bootstrap.x;strokeColor=#868686;strokeWidth=2;" vertex="1" parent="8414hdkp-DQM1JbrJyh9-10">
          <mxGeometry x="1" width="8" height="8" relative="1" as="geometry">
            <mxPoint x="-24" y="20" as="offset" />
          </mxGeometry>
        </mxCell>
        <mxCell id="8414hdkp-DQM1JbrJyh9-13" value="Unesite broj sobe u kojoj će se vršiti terapija:" style="strokeColor=none;fillColor=none;resizeWidth=1;align=left;verticalAlign=top;spacing=10;fontSize=13;" vertex="1" parent="8414hdkp-DQM1JbrJyh9-10">
          <mxGeometry width="400" height="40" relative="1" as="geometry">
            <mxPoint y="54" as="offset" />
          </mxGeometry>
        </mxCell>
        <mxCell id="8414hdkp-DQM1JbrJyh9-14" value="" style="shape=line;strokeColor=#dddddd;resizeWidth=1;" vertex="1" parent="8414hdkp-DQM1JbrJyh9-10">
          <mxGeometry width="400" height="10" relative="1" as="geometry">
            <mxPoint y="137" as="offset" />
          </mxGeometry>
        </mxCell>
        <mxCell id="8414hdkp-DQM1JbrJyh9-15" value="Potvrdi" style="html=1;shadow=0;dashed=0;shape=mxgraph.bootstrap.rrect;rSize=5;fillColor=#76608a;strokeColor=#432D57;fontSize=14;fontColor=#ffffff;" vertex="1" parent="8414hdkp-DQM1JbrJyh9-10">
          <mxGeometry x="1" y="1" width="110" height="40" relative="1" as="geometry">
            <mxPoint x="-130" y="-50" as="offset" />
          </mxGeometry>
        </mxCell>
        <mxCell id="8414hdkp-DQM1JbrJyh9-16" value="Odustani" style="html=1;shadow=0;dashed=0;shape=mxgraph.bootstrap.rrect;rSize=5;fillColor=#eeeeee;strokeColor=default;fontSize=14;" vertex="1" parent="8414hdkp-DQM1JbrJyh9-10">
          <mxGeometry x="1" y="1" width="70" height="40" relative="1" as="geometry">
            <mxPoint x="-220" y="-50" as="offset" />
          </mxGeometry>
        </mxCell>
        <mxCell id="8414hdkp-DQM1JbrJyh9-19" value="28" style="html=1;shadow=0;dashed=0;shape=mxgraph.bootstrap.rrect;rSize=5;strokeColor=#CED4DA;html=1;whiteSpace=wrap;fillColor=#FFFFFF;fontColor=#7D868C;align=left;spacingLeft=80;spacing=15;fontSize=14;" vertex="1" parent="8414hdkp-DQM1JbrJyh9-10">
          <mxGeometry x="40" y="90" width="290" height="40" as="geometry" />
        </mxCell>
        <mxCell id="8414hdkp-DQM1JbrJyh9-20" value="" style="shape=triangle;direction=south;fillColor=#343A40;strokeColor=none;perimeter=none;" vertex="1" parent="8414hdkp-DQM1JbrJyh9-19">
          <mxGeometry x="1" y="0.5" width="7" height="3" relative="1" as="geometry">
            <mxPoint x="-17" y="1" as="offset" />
          </mxGeometry>
        </mxCell>
        <mxCell id="8414hdkp-DQM1JbrJyh9-21" value="" style="shape=triangle;direction=north;fillColor=#343A40;strokeColor=none;perimeter=none;" vertex="1" parent="8414hdkp-DQM1JbrJyh9-19">
          <mxGeometry x="1" y="0.5" width="7" height="3" relative="1" as="geometry">
            <mxPoint x="-17" y="-4" as="offset" />
          </mxGeometry>
        </mxCell>
        <mxCell id="8414hdkp-DQM1JbrJyh9-22" value="Broj" style="html=1;shadow=0;dashed=0;shape=mxgraph.bootstrap.leftButton;strokeColor=#CED4DA;gradientColor=inherit;fontColor=inherit;fillColor=#E9ECEF;rSize=5;perimeter=none;whiteSpace=wrap;resizeHeight=1;fontSize=14;align=left;spacing=15;" vertex="1" parent="8414hdkp-DQM1JbrJyh9-19">
          <mxGeometry width="80" height="40" relative="1" as="geometry" />
        </mxCell>
      </root>
    </mxGraphModel>
  </diagram>
  <diagram name="Page 8" id="vpIu-S-bCusreI0GD-kE">
    <mxGraphModel dx="1434" dy="758" grid="1" gridSize="10" guides="1" tooltips="1" connect="1" arrows="1" fold="1" page="1" pageScale="1" pageWidth="1100" pageHeight="850" background="#ffffff" math="0" shadow="0">
      <root>
        <mxCell id="8v0ppIHPcoyXmCX_2uOS-0" />
        <mxCell id="8v0ppIHPcoyXmCX_2uOS-1" parent="8v0ppIHPcoyXmCX_2uOS-0" />
        <mxCell id="8v0ppIHPcoyXmCX_2uOS-2" value="" style="strokeWidth=1;shadow=0;dashed=0;align=center;html=1;shape=mxgraph.mockup.containers.browserWindow;rSize=0;strokeColor=#666666;mainText=,;recursiveResize=0;rounded=0;labelBackgroundColor=none;fontFamily=Verdana;fontSize=12;container=0;" parent="8v0ppIHPcoyXmCX_2uOS-1" vertex="1">
          <mxGeometry x="25" y="15" width="1050" height="820" as="geometry" />
        </mxCell>
        <mxCell id="8v0ppIHPcoyXmCX_2uOS-3" value="Page 8" style="strokeWidth=1;shadow=0;dashed=0;align=center;html=1;shape=mxgraph.mockup.containers.anchor;fontSize=17;fontColor=#666666;align=left;" parent="8v0ppIHPcoyXmCX_2uOS-1" vertex="1">
          <mxGeometry x="85" y="27" width="110" height="26" as="geometry" />
        </mxCell>
        <mxCell id="8v0ppIHPcoyXmCX_2uOS-4" value="https://www.default.com" style="strokeWidth=1;shadow=0;dashed=0;align=center;html=1;shape=mxgraph.mockup.containers.anchor;rSize=0;fontSize=17;fontColor=#666666;align=left;" parent="8v0ppIHPcoyXmCX_2uOS-1" vertex="1">
          <mxGeometry x="155" y="75" width="250" height="26" as="geometry" />
        </mxCell>
        <mxCell id="8v0ppIHPcoyXmCX_2uOS-29" value="*ovaj page vide djelatnici i admini*" style="text;strokeColor=none;fillColor=none;html=1;fontSize=24;fontStyle=1;verticalAlign=middle;align=center;" parent="8v0ppIHPcoyXmCX_2uOS-1" vertex="1">
          <mxGeometry x="370" y="20" width="420" height="40" as="geometry" />
        </mxCell>
        <mxCell id="lBbbm9yF0jnB7In94Vd_-0" value="Pacijent Miroslav Mirić - evidencija dolaska na terapiju" style="text;strokeColor=none;fillColor=none;html=1;fontSize=24;fontStyle=1;verticalAlign=middle;align=left;" parent="8v0ppIHPcoyXmCX_2uOS-1" vertex="1">
          <mxGeometry x="120" y="160" width="750" height="70" as="geometry" />
        </mxCell>
        <mxCell id="lBbbm9yF0jnB7In94Vd_-20" value="" style="rounded=0;whiteSpace=wrap;html=1;" parent="8v0ppIHPcoyXmCX_2uOS-1" vertex="1">
          <mxGeometry x="120" y="220" width="880" height="580" as="geometry" />
        </mxCell>
        <mxCell id="lBbbm9yF0jnB7In94Vd_-8" value="" style="strokeWidth=1;shadow=0;dashed=0;align=center;html=1;shape=mxgraph.mockup.forms.rrect;rSize=0;strokeColor=#999999;fillColor=#ffffff;recursiveResize=0;" parent="8v0ppIHPcoyXmCX_2uOS-1" vertex="1">
          <mxGeometry x="126" y="231" width="414" height="120" as="geometry" />
        </mxCell>
        <mxCell id="lBbbm9yF0jnB7In94Vd_-10" value="Pacijent nije došao na dogovoreni termin" style="shape=ellipse;rSize=0;fillColor=#eeeeee;strokeColor=#999999;gradientColor=#cccccc;html=1;align=left;spacingLeft=4;fontSize=17;fontColor=#666666;labelPosition=right;" parent="lBbbm9yF0jnB7In94Vd_-8" vertex="1">
          <mxGeometry x="8" y="37.5" width="15" height="15" as="geometry" />
        </mxCell>
        <mxCell id="lBbbm9yF0jnB7In94Vd_-11" value="Pacijent je došao, ali nije uspješno odradio terapiju" style="shape=ellipse;rSize=0;fillColor=#aaaaaa;strokeColor=#444444;gradientColor=#666666;html=1;align=left;spacingLeft=4;fontSize=17;fontColor=#008cff;labelPosition=right;" parent="lBbbm9yF0jnB7In94Vd_-8" vertex="1">
          <mxGeometry x="8" y="67.5" width="15" height="15" as="geometry" />
        </mxCell>
        <mxCell id="lBbbm9yF0jnB7In94Vd_-12" value="" style="shape=ellipse;fillColor=#444444;strokeColor=none;html=1;" parent="lBbbm9yF0jnB7In94Vd_-11" vertex="1">
          <mxGeometry x="3" y="3" width="9" height="9" as="geometry" />
        </mxCell>
        <mxCell id="lBbbm9yF0jnB7In94Vd_-13" value="Pacijent je uspješno odradio terapiju" style="shape=ellipse;rSize=0;fillColor=#eeeeee;strokeColor=#999999;gradientColor=#cccccc;html=1;align=left;spacingLeft=4;fontSize=17;fontColor=#666666;labelPosition=right;" parent="lBbbm9yF0jnB7In94Vd_-8" vertex="1">
          <mxGeometry x="8" y="97.5" width="15" height="15" as="geometry" />
        </mxCell>
        <mxCell id="lBbbm9yF0jnB7In94Vd_-22" value="Evidencija:" style="text;html=1;strokeColor=none;fillColor=none;align=left;verticalAlign=middle;whiteSpace=wrap;rounded=0;fontSize=18;" parent="lBbbm9yF0jnB7In94Vd_-8" vertex="1">
          <mxGeometry x="8" width="224" height="30" as="geometry" />
        </mxCell>
        <mxCell id="lBbbm9yF0jnB7In94Vd_-14" value="" style="strokeWidth=1;shadow=0;dashed=0;align=center;html=1;shape=mxgraph.mockup.forms.rrect;rSize=0;strokeColor=#999999;fillColor=#ffffff;recursiveResize=0;" parent="8v0ppIHPcoyXmCX_2uOS-1" vertex="1">
          <mxGeometry x="126" y="390" width="380" height="120" as="geometry" />
        </mxCell>
        <mxCell id="lBbbm9yF0jnB7In94Vd_-15" value="Puno bolje" style="shape=ellipse;rSize=0;fillColor=#eeeeee;strokeColor=#999999;gradientColor=#cccccc;html=1;align=left;spacingLeft=4;fontSize=17;fontColor=#666666;labelPosition=right;" parent="lBbbm9yF0jnB7In94Vd_-14" vertex="1">
          <mxGeometry x="8" y="7.5" width="15" height="15" as="geometry" />
        </mxCell>
        <mxCell id="lBbbm9yF0jnB7In94Vd_-16" value="Malo bolje" style="shape=ellipse;rSize=0;fillColor=#eeeeee;strokeColor=#999999;gradientColor=#cccccc;html=1;align=left;spacingLeft=4;fontSize=17;fontColor=#666666;labelPosition=right;" parent="lBbbm9yF0jnB7In94Vd_-14" vertex="1">
          <mxGeometry x="8" y="37.5" width="15" height="15" as="geometry" />
        </mxCell>
        <mxCell id="lBbbm9yF0jnB7In94Vd_-17" value="Isto" style="shape=ellipse;rSize=0;fillColor=#aaaaaa;strokeColor=#444444;gradientColor=#666666;html=1;align=left;spacingLeft=4;fontSize=17;fontColor=#008cff;labelPosition=right;" parent="lBbbm9yF0jnB7In94Vd_-14" vertex="1">
          <mxGeometry x="8" y="67.5" width="15" height="15" as="geometry" />
        </mxCell>
        <mxCell id="lBbbm9yF0jnB7In94Vd_-18" value="" style="shape=ellipse;fillColor=#444444;strokeColor=none;html=1;" parent="lBbbm9yF0jnB7In94Vd_-17" vertex="1">
          <mxGeometry x="3" y="3" width="9" height="9" as="geometry" />
        </mxCell>
        <mxCell id="lBbbm9yF0jnB7In94Vd_-19" value="Lošije" style="shape=ellipse;rSize=0;fillColor=#eeeeee;strokeColor=#999999;gradientColor=#cccccc;html=1;align=left;spacingLeft=4;fontSize=17;fontColor=#666666;labelPosition=right;" parent="lBbbm9yF0jnB7In94Vd_-14" vertex="1">
          <mxGeometry x="8" y="97.5" width="15" height="15" as="geometry" />
        </mxCell>
        <mxCell id="lBbbm9yF0jnB7In94Vd_-21" value="Pacijent se osjeća:" style="text;html=1;strokeColor=none;fillColor=none;align=left;verticalAlign=middle;whiteSpace=wrap;rounded=0;fontSize=18;" parent="8v0ppIHPcoyXmCX_2uOS-1" vertex="1">
          <mxGeometry x="126" y="360" width="224" height="30" as="geometry" />
        </mxCell>
        <mxCell id="lBbbm9yF0jnB7In94Vd_-38" value="" style="html=1;shadow=0;dashed=0;shape=mxgraph.bootstrap.rrect;rSize=5;fillColor=none;strokeColor=#999999;align=left;spacing=15;fontSize=14;fontColor=#6C767D;" parent="8v0ppIHPcoyXmCX_2uOS-1" vertex="1">
          <mxGeometry width="560" height="170" relative="1" as="geometry">
            <mxPoint x="130" y="550" as="offset" />
          </mxGeometry>
        </mxCell>
        <mxCell id="lBbbm9yF0jnB7In94Vd_-39" value="Komentari:" style="text;html=1;strokeColor=none;fillColor=none;align=left;verticalAlign=middle;whiteSpace=wrap;rounded=0;fontSize=18;" parent="8v0ppIHPcoyXmCX_2uOS-1" vertex="1">
          <mxGeometry x="130" y="520" width="224" height="30" as="geometry" />
        </mxCell>
        <mxCell id="glPSgpr7XXSL0AgdXb6A-0" value="Predaj evidenciju" style="rounded=1;whiteSpace=wrap;html=1;fillColor=#6a00ff;fontColor=#ffffff;strokeColor=#3700CC;" parent="8v0ppIHPcoyXmCX_2uOS-1" vertex="1">
          <mxGeometry x="780" y="750" width="170" height="30" as="geometry" />
        </mxCell>
        <mxCell id="glPSgpr7XXSL0AgdXb6A-1" value="" style="sketch=0;html=1;aspect=fixed;shadow=0;verticalAlign=top;labelPosition=center;verticalLabelPosition=bottom;shape=mxgraph.gcp2.check;" parent="8v0ppIHPcoyXmCX_2uOS-1" vertex="1">
          <mxGeometry x="797" y="758" width="18.75" height="15" as="geometry" />
        </mxCell>
        <mxCell id="glPSgpr7XXSL0AgdXb6A-2" value="Pacijent ne osjeća poboljšanje, ali vezivno tkivo je u izgledno boljem stanju i nije više naotečeno." style="text;html=1;strokeColor=none;fillColor=none;align=left;verticalAlign=middle;whiteSpace=wrap;rounded=0;fontSize=18;" parent="8v0ppIHPcoyXmCX_2uOS-1" vertex="1">
          <mxGeometry x="140" y="560" width="490" height="60" as="geometry" />
        </mxCell>
        <mxCell id="glPSgpr7XXSL0AgdXb6A-3" value="" style="rounded=0;whiteSpace=wrap;html=1;" parent="8v0ppIHPcoyXmCX_2uOS-1" vertex="1">
          <mxGeometry x="580" y="231" width="410" height="289" as="geometry" />
        </mxCell>
        <mxCell id="glPSgpr7XXSL0AgdXb6A-5" value="&lt;h1&gt;Informacije o terapiji&lt;/h1&gt;&lt;p&gt;Vrsta terapije:&amp;nbsp;&lt;/p&gt;&lt;p&gt;Očekivano trajanje:&lt;/p&gt;&lt;p&gt;Korištena oprema i uređaji:&lt;/p&gt;&lt;p&gt;Opis:&lt;/p&gt;&lt;p&gt;Lorem ipsum dolor sit amet, consectetur adipisicing elit, sed do eiusmod tempor incididunt ut labore et dolore magna aliqua.&lt;/p&gt;" style="text;html=1;strokeColor=none;fillColor=none;spacing=5;spacingTop=-20;whiteSpace=wrap;overflow=hidden;rounded=0;" parent="8v0ppIHPcoyXmCX_2uOS-1" vertex="1">
          <mxGeometry x="590" y="240" width="350" height="200" as="geometry" />
        </mxCell>
        <mxCell id="xitY_D6K0At4JdwTuIqc-0" value="&lt;b&gt;&lt;font style=&quot;font-size: 16px;&quot; color=&quot;#ff0000&quot;&gt;NOTE: ovaj page treba napraviti u dvije verzije: za unos nove evidencije i za prikaz postojeće&lt;/font&gt;&lt;/b&gt;" style="text;html=1;strokeColor=none;fillColor=none;align=left;verticalAlign=middle;whiteSpace=wrap;rounded=0;" parent="8v0ppIHPcoyXmCX_2uOS-1" vertex="1">
          <mxGeometry x="120" y="136" width="760" height="30" as="geometry" />
        </mxCell>
      </root>
    </mxGraphModel>
  </diagram>
  <diagram name="Page 9" id="uF0WbfNkKynfkumjgHyt">
    <mxGraphModel dx="1434" dy="758" grid="1" gridSize="10" guides="1" tooltips="1" connect="1" arrows="1" fold="1" page="1" pageScale="1" pageWidth="1100" pageHeight="850" background="#ffffff" math="0" shadow="0">
      <root>
        <mxCell id="qGkxbZKpVrdMrQd3LphK-0" />
        <mxCell id="qGkxbZKpVrdMrQd3LphK-1" parent="qGkxbZKpVrdMrQd3LphK-0" />
        <mxCell id="qGkxbZKpVrdMrQd3LphK-2" value="" style="strokeWidth=1;shadow=0;dashed=0;align=center;html=1;shape=mxgraph.mockup.containers.browserWindow;rSize=0;strokeColor=#666666;mainText=,;recursiveResize=0;rounded=0;labelBackgroundColor=none;fontFamily=Verdana;fontSize=12;container=0;" parent="qGkxbZKpVrdMrQd3LphK-1" vertex="1">
          <mxGeometry x="25" y="15" width="1050" height="820" as="geometry" />
        </mxCell>
        <mxCell id="qGkxbZKpVrdMrQd3LphK-3" value="Page 9" style="strokeWidth=1;shadow=0;dashed=0;align=center;html=1;shape=mxgraph.mockup.containers.anchor;fontSize=17;fontColor=#666666;align=left;" parent="qGkxbZKpVrdMrQd3LphK-1" vertex="1">
          <mxGeometry x="85" y="27" width="110" height="26" as="geometry" />
        </mxCell>
        <mxCell id="qGkxbZKpVrdMrQd3LphK-4" value="https://www.default.com" style="strokeWidth=1;shadow=0;dashed=0;align=center;html=1;shape=mxgraph.mockup.containers.anchor;rSize=0;fontSize=17;fontColor=#666666;align=left;" parent="qGkxbZKpVrdMrQd3LphK-1" vertex="1">
          <mxGeometry x="155" y="75" width="250" height="26" as="geometry" />
        </mxCell>
        <mxCell id="qGkxbZKpVrdMrQd3LphK-29" value="*ovaj page vide samo admini*" style="text;strokeColor=none;fillColor=none;html=1;fontSize=24;fontStyle=1;verticalAlign=middle;align=center;" parent="qGkxbZKpVrdMrQd3LphK-1" vertex="1">
          <mxGeometry x="370" y="20" width="420" height="40" as="geometry" />
        </mxCell>
        <mxCell id="-DnIvuiecWydmwocpVjB-0" value="&lt;span style=&quot;font-size: 30px;&quot;&gt;Djelatnici - korisnički računi&lt;/span&gt;" style="text;strokeColor=none;fillColor=none;html=1;fontSize=24;fontStyle=1;verticalAlign=middle;align=left;" parent="qGkxbZKpVrdMrQd3LphK-1" vertex="1">
          <mxGeometry x="155" y="180" width="445" height="40" as="geometry" />
        </mxCell>
        <mxCell id="qv2PFZUOgUrv60zG55pL-0" value="+&amp;nbsp; &amp;nbsp;DODAJ DJELATNIKA" style="rounded=1;whiteSpace=wrap;html=1;fillColor=#60a917;strokeColor=#2D7600;fontColor=#ffffff;" parent="qGkxbZKpVrdMrQd3LphK-1" vertex="1">
          <mxGeometry x="770" y="180" width="180" height="40" as="geometry" />
        </mxCell>
        <mxCell id="qv2PFZUOgUrv60zG55pL-1" value="" style="shape=table;startSize=0;container=1;collapsible=0;childLayout=tableLayout;" parent="qGkxbZKpVrdMrQd3LphK-1" vertex="1">
          <mxGeometry x="110" y="280" width="910" height="316" as="geometry" />
        </mxCell>
        <mxCell id="qv2PFZUOgUrv60zG55pL-2" value="" style="shape=tableRow;horizontal=0;startSize=0;swimlaneHead=0;swimlaneBody=0;strokeColor=inherit;top=0;left=0;bottom=0;right=0;collapsible=0;dropTarget=0;fillColor=none;points=[[0,0.5],[1,0.5]];portConstraint=eastwest;" parent="qv2PFZUOgUrv60zG55pL-1" vertex="1">
          <mxGeometry width="910" height="40" as="geometry" />
        </mxCell>
        <mxCell id="qv2PFZUOgUrv60zG55pL-3" value="Ime" style="shape=partialRectangle;html=1;whiteSpace=wrap;connectable=0;strokeColor=#9673a6;overflow=hidden;fillColor=#e1d5e7;top=0;left=0;bottom=0;right=0;pointerEvents=1;" parent="qv2PFZUOgUrv60zG55pL-2" vertex="1">
          <mxGeometry width="198" height="40" as="geometry">
            <mxRectangle width="198" height="40" as="alternateBounds" />
          </mxGeometry>
        </mxCell>
        <mxCell id="C1PKnl3ZMqBZFVzNA2Ee-6" value="Prezime" style="shape=partialRectangle;html=1;whiteSpace=wrap;connectable=0;strokeColor=#9673a6;overflow=hidden;fillColor=#e1d5e7;top=0;left=0;bottom=0;right=0;pointerEvents=1;" parent="qv2PFZUOgUrv60zG55pL-2" vertex="1">
          <mxGeometry x="198" width="199" height="40" as="geometry">
            <mxRectangle width="199" height="40" as="alternateBounds" />
          </mxGeometry>
        </mxCell>
        <mxCell id="qv2PFZUOgUrv60zG55pL-4" value="OIB / MBO" style="shape=partialRectangle;html=1;whiteSpace=wrap;connectable=0;strokeColor=#9673a6;overflow=hidden;fillColor=#e1d5e7;top=0;left=0;bottom=0;right=0;pointerEvents=1;" parent="qv2PFZUOgUrv60zG55pL-2" vertex="1">
          <mxGeometry x="397" width="157" height="40" as="geometry">
            <mxRectangle width="157" height="40" as="alternateBounds" />
          </mxGeometry>
        </mxCell>
        <mxCell id="qv2PFZUOgUrv60zG55pL-5" value="E-mail adresa" style="shape=partialRectangle;html=1;whiteSpace=wrap;connectable=0;strokeColor=#9673a6;overflow=hidden;fillColor=#e1d5e7;top=0;left=0;bottom=0;right=0;pointerEvents=1;" parent="qv2PFZUOgUrv60zG55pL-2" vertex="1">
          <mxGeometry x="554" width="178" height="40" as="geometry">
            <mxRectangle width="178" height="40" as="alternateBounds" />
          </mxGeometry>
        </mxCell>
        <mxCell id="qv2PFZUOgUrv60zG55pL-6" value="Akcije" style="shape=partialRectangle;html=1;whiteSpace=wrap;connectable=0;strokeColor=#9673a6;overflow=hidden;fillColor=#e1d5e7;top=0;left=0;bottom=0;right=0;pointerEvents=1;" parent="qv2PFZUOgUrv60zG55pL-2" vertex="1">
          <mxGeometry x="732" width="178" height="40" as="geometry">
            <mxRectangle width="178" height="40" as="alternateBounds" />
          </mxGeometry>
        </mxCell>
        <mxCell id="qv2PFZUOgUrv60zG55pL-7" value="" style="shape=tableRow;horizontal=0;startSize=0;swimlaneHead=0;swimlaneBody=0;strokeColor=inherit;top=0;left=0;bottom=0;right=0;collapsible=0;dropTarget=0;fillColor=none;points=[[0,0.5],[1,0.5]];portConstraint=eastwest;" parent="qv2PFZUOgUrv60zG55pL-1" vertex="1">
          <mxGeometry y="40" width="910" height="91" as="geometry" />
        </mxCell>
        <mxCell id="qv2PFZUOgUrv60zG55pL-8" value="Ivo" style="shape=partialRectangle;html=1;whiteSpace=wrap;connectable=0;strokeColor=inherit;overflow=hidden;fillColor=none;top=0;left=0;bottom=0;right=0;pointerEvents=1;" parent="qv2PFZUOgUrv60zG55pL-7" vertex="1">
          <mxGeometry width="198" height="91" as="geometry">
            <mxRectangle width="198" height="91" as="alternateBounds" />
          </mxGeometry>
        </mxCell>
        <mxCell id="C1PKnl3ZMqBZFVzNA2Ee-7" value="Ivić" style="shape=partialRectangle;html=1;whiteSpace=wrap;connectable=0;strokeColor=inherit;overflow=hidden;fillColor=none;top=0;left=0;bottom=0;right=0;pointerEvents=1;" parent="qv2PFZUOgUrv60zG55pL-7" vertex="1">
          <mxGeometry x="198" width="199" height="91" as="geometry">
            <mxRectangle width="199" height="91" as="alternateBounds" />
          </mxGeometry>
        </mxCell>
        <mxCell id="qv2PFZUOgUrv60zG55pL-9" value="14514361645" style="shape=partialRectangle;html=1;whiteSpace=wrap;connectable=0;strokeColor=inherit;overflow=hidden;fillColor=none;top=0;left=0;bottom=0;right=0;pointerEvents=1;" parent="qv2PFZUOgUrv60zG55pL-7" vertex="1">
          <mxGeometry x="397" width="157" height="91" as="geometry">
            <mxRectangle width="157" height="91" as="alternateBounds" />
          </mxGeometry>
        </mxCell>
        <mxCell id="qv2PFZUOgUrv60zG55pL-10" value="ivo.ivic@ustanova.hr" style="shape=partialRectangle;html=1;whiteSpace=wrap;connectable=0;strokeColor=inherit;overflow=hidden;fillColor=none;top=0;left=0;bottom=0;right=0;pointerEvents=1;" parent="qv2PFZUOgUrv60zG55pL-7" vertex="1">
          <mxGeometry x="554" width="178" height="91" as="geometry">
            <mxRectangle width="178" height="91" as="alternateBounds" />
          </mxGeometry>
        </mxCell>
        <mxCell id="qv2PFZUOgUrv60zG55pL-11" value="" style="shape=partialRectangle;html=1;whiteSpace=wrap;connectable=0;strokeColor=inherit;overflow=hidden;fillColor=none;top=0;left=0;bottom=0;right=0;pointerEvents=1;" parent="qv2PFZUOgUrv60zG55pL-7" vertex="1">
          <mxGeometry x="732" width="178" height="91" as="geometry">
            <mxRectangle width="178" height="91" as="alternateBounds" />
          </mxGeometry>
        </mxCell>
        <mxCell id="qv2PFZUOgUrv60zG55pL-12" value="" style="shape=tableRow;horizontal=0;startSize=0;swimlaneHead=0;swimlaneBody=0;strokeColor=inherit;top=0;left=0;bottom=0;right=0;collapsible=0;dropTarget=0;fillColor=none;points=[[0,0.5],[1,0.5]];portConstraint=eastwest;" parent="qv2PFZUOgUrv60zG55pL-1" vertex="1">
          <mxGeometry y="131" width="910" height="94" as="geometry" />
        </mxCell>
        <mxCell id="qv2PFZUOgUrv60zG55pL-13" value="Petar" style="shape=partialRectangle;html=1;whiteSpace=wrap;connectable=0;strokeColor=inherit;overflow=hidden;fillColor=none;top=0;left=0;bottom=0;right=0;pointerEvents=1;" parent="qv2PFZUOgUrv60zG55pL-12" vertex="1">
          <mxGeometry width="198" height="94" as="geometry">
            <mxRectangle width="198" height="94" as="alternateBounds" />
          </mxGeometry>
        </mxCell>
        <mxCell id="C1PKnl3ZMqBZFVzNA2Ee-8" value="Petrić" style="shape=partialRectangle;html=1;whiteSpace=wrap;connectable=0;strokeColor=inherit;overflow=hidden;fillColor=none;top=0;left=0;bottom=0;right=0;pointerEvents=1;" parent="qv2PFZUOgUrv60zG55pL-12" vertex="1">
          <mxGeometry x="198" width="199" height="94" as="geometry">
            <mxRectangle width="199" height="94" as="alternateBounds" />
          </mxGeometry>
        </mxCell>
        <mxCell id="qv2PFZUOgUrv60zG55pL-14" value="614513461416" style="shape=partialRectangle;html=1;whiteSpace=wrap;connectable=0;strokeColor=inherit;overflow=hidden;fillColor=none;top=0;left=0;bottom=0;right=0;pointerEvents=1;" parent="qv2PFZUOgUrv60zG55pL-12" vertex="1">
          <mxGeometry x="397" width="157" height="94" as="geometry">
            <mxRectangle width="157" height="94" as="alternateBounds" />
          </mxGeometry>
        </mxCell>
        <mxCell id="qv2PFZUOgUrv60zG55pL-15" value="pero.peric@ustanova.hr" style="shape=partialRectangle;html=1;whiteSpace=wrap;connectable=0;strokeColor=inherit;overflow=hidden;fillColor=none;top=0;left=0;bottom=0;right=0;pointerEvents=1;" parent="qv2PFZUOgUrv60zG55pL-12" vertex="1">
          <mxGeometry x="554" width="178" height="94" as="geometry">
            <mxRectangle width="178" height="94" as="alternateBounds" />
          </mxGeometry>
        </mxCell>
        <mxCell id="qv2PFZUOgUrv60zG55pL-16" value="" style="shape=partialRectangle;html=1;whiteSpace=wrap;connectable=0;strokeColor=inherit;overflow=hidden;fillColor=none;top=0;left=0;bottom=0;right=0;pointerEvents=1;" parent="qv2PFZUOgUrv60zG55pL-12" vertex="1">
          <mxGeometry x="732" width="178" height="94" as="geometry">
            <mxRectangle width="178" height="94" as="alternateBounds" />
          </mxGeometry>
        </mxCell>
        <mxCell id="qv2PFZUOgUrv60zG55pL-17" value="" style="shape=tableRow;horizontal=0;startSize=0;swimlaneHead=0;swimlaneBody=0;strokeColor=inherit;top=0;left=0;bottom=0;right=0;collapsible=0;dropTarget=0;fillColor=none;points=[[0,0.5],[1,0.5]];portConstraint=eastwest;" parent="qv2PFZUOgUrv60zG55pL-1" vertex="1">
          <mxGeometry y="225" width="910" height="91" as="geometry" />
        </mxCell>
        <mxCell id="qv2PFZUOgUrv60zG55pL-18" value="Luka" style="shape=partialRectangle;html=1;whiteSpace=wrap;connectable=0;strokeColor=inherit;overflow=hidden;fillColor=none;top=0;left=0;bottom=0;right=0;pointerEvents=1;" parent="qv2PFZUOgUrv60zG55pL-17" vertex="1">
          <mxGeometry width="198" height="91" as="geometry">
            <mxRectangle width="198" height="91" as="alternateBounds" />
          </mxGeometry>
        </mxCell>
        <mxCell id="C1PKnl3ZMqBZFVzNA2Ee-9" value="Lukić" style="shape=partialRectangle;html=1;whiteSpace=wrap;connectable=0;strokeColor=inherit;overflow=hidden;fillColor=none;top=0;left=0;bottom=0;right=0;pointerEvents=1;" parent="qv2PFZUOgUrv60zG55pL-17" vertex="1">
          <mxGeometry x="198" width="199" height="91" as="geometry">
            <mxRectangle width="199" height="91" as="alternateBounds" />
          </mxGeometry>
        </mxCell>
        <mxCell id="qv2PFZUOgUrv60zG55pL-19" value="75462436145" style="shape=partialRectangle;html=1;whiteSpace=wrap;connectable=0;strokeColor=inherit;overflow=hidden;fillColor=none;top=0;left=0;bottom=0;right=0;pointerEvents=1;" parent="qv2PFZUOgUrv60zG55pL-17" vertex="1">
          <mxGeometry x="397" width="157" height="91" as="geometry">
            <mxRectangle width="157" height="91" as="alternateBounds" />
          </mxGeometry>
        </mxCell>
        <mxCell id="qv2PFZUOgUrv60zG55pL-20" value="luka.lukic@ustanova.hr" style="shape=partialRectangle;html=1;whiteSpace=wrap;connectable=0;strokeColor=inherit;overflow=hidden;fillColor=none;top=0;left=0;bottom=0;right=0;pointerEvents=1;" parent="qv2PFZUOgUrv60zG55pL-17" vertex="1">
          <mxGeometry x="554" width="178" height="91" as="geometry">
            <mxRectangle width="178" height="91" as="alternateBounds" />
          </mxGeometry>
        </mxCell>
        <mxCell id="qv2PFZUOgUrv60zG55pL-21" value="" style="shape=partialRectangle;html=1;whiteSpace=wrap;connectable=0;strokeColor=inherit;overflow=hidden;fillColor=none;top=0;left=0;bottom=0;right=0;pointerEvents=1;" parent="qv2PFZUOgUrv60zG55pL-17" vertex="1">
          <mxGeometry x="732" width="178" height="91" as="geometry">
            <mxRectangle width="178" height="91" as="alternateBounds" />
          </mxGeometry>
        </mxCell>
        <mxCell id="C1PKnl3ZMqBZFVzNA2Ee-0" value="&lt;p style=&quot;line-height: 100%;&quot;&gt;&lt;span style=&quot;font-size: 10px;&quot;&gt;&lt;b&gt;UKLONI&lt;/b&gt;&lt;/span&gt;&lt;/p&gt;" style="html=1;shadow=0;dashed=0;shape=mxgraph.bootstrap.rrect;rSize=5;strokeColor=none;strokeWidth=1;fillColor=#DB2843;fontColor=#FFFFFF;whiteSpace=wrap;align=center;verticalAlign=middle;spacingLeft=0;fontStyle=0;fontSize=16;spacing=5;" parent="qGkxbZKpVrdMrQd3LphK-1" vertex="1">
          <mxGeometry x="936" y="351" width="70" height="29" as="geometry" />
        </mxCell>
        <mxCell id="C1PKnl3ZMqBZFVzNA2Ee-1" value="&lt;p style=&quot;line-height: 100%;&quot;&gt;&lt;font style=&quot;font-size: 10px;&quot;&gt;&lt;b&gt;UREDI&lt;/b&gt;&lt;/font&gt;&lt;/p&gt;" style="html=1;shadow=0;dashed=0;shape=mxgraph.bootstrap.rrect;rSize=5;strokeColor=#d6b656;strokeWidth=1;fillColor=#fff2cc;whiteSpace=wrap;align=center;verticalAlign=middle;spacingLeft=0;fontStyle=0;fontSize=16;spacing=5;" parent="qGkxbZKpVrdMrQd3LphK-1" vertex="1">
          <mxGeometry x="856" y="351" width="70" height="29" as="geometry" />
        </mxCell>
        <mxCell id="C1PKnl3ZMqBZFVzNA2Ee-2" value="&lt;p style=&quot;line-height: 100%;&quot;&gt;&lt;span style=&quot;font-size: 10px;&quot;&gt;&lt;b&gt;UKLONI&lt;/b&gt;&lt;/span&gt;&lt;/p&gt;" style="html=1;shadow=0;dashed=0;shape=mxgraph.bootstrap.rrect;rSize=5;strokeColor=none;strokeWidth=1;fillColor=#DB2843;fontColor=#FFFFFF;whiteSpace=wrap;align=center;verticalAlign=middle;spacingLeft=0;fontStyle=0;fontSize=16;spacing=5;" parent="qGkxbZKpVrdMrQd3LphK-1" vertex="1">
          <mxGeometry x="936" y="443" width="70" height="29" as="geometry" />
        </mxCell>
        <mxCell id="C1PKnl3ZMqBZFVzNA2Ee-3" value="&lt;p style=&quot;line-height: 100%;&quot;&gt;&lt;font style=&quot;font-size: 10px;&quot;&gt;&lt;b&gt;UREDI&lt;/b&gt;&lt;/font&gt;&lt;/p&gt;" style="html=1;shadow=0;dashed=0;shape=mxgraph.bootstrap.rrect;rSize=5;strokeColor=#d6b656;strokeWidth=1;fillColor=#fff2cc;whiteSpace=wrap;align=center;verticalAlign=middle;spacingLeft=0;fontStyle=0;fontSize=16;spacing=5;" parent="qGkxbZKpVrdMrQd3LphK-1" vertex="1">
          <mxGeometry x="856" y="443" width="70" height="29" as="geometry" />
        </mxCell>
        <mxCell id="C1PKnl3ZMqBZFVzNA2Ee-4" value="&lt;p style=&quot;line-height: 100%;&quot;&gt;&lt;span style=&quot;font-size: 10px;&quot;&gt;&lt;b&gt;UKLONI&lt;/b&gt;&lt;/span&gt;&lt;/p&gt;" style="html=1;shadow=0;dashed=0;shape=mxgraph.bootstrap.rrect;rSize=5;strokeColor=none;strokeWidth=1;fillColor=#DB2843;fontColor=#FFFFFF;whiteSpace=wrap;align=center;verticalAlign=middle;spacingLeft=0;fontStyle=0;fontSize=16;spacing=5;" parent="qGkxbZKpVrdMrQd3LphK-1" vertex="1">
          <mxGeometry x="936" y="536" width="70" height="29" as="geometry" />
        </mxCell>
        <mxCell id="C1PKnl3ZMqBZFVzNA2Ee-5" value="&lt;p style=&quot;line-height: 100%;&quot;&gt;&lt;font style=&quot;font-size: 10px;&quot;&gt;&lt;b&gt;UREDI&lt;/b&gt;&lt;/font&gt;&lt;/p&gt;" style="html=1;shadow=0;dashed=0;shape=mxgraph.bootstrap.rrect;rSize=5;strokeColor=#d6b656;strokeWidth=1;fillColor=#fff2cc;whiteSpace=wrap;align=center;verticalAlign=middle;spacingLeft=0;fontStyle=0;fontSize=16;spacing=5;" parent="qGkxbZKpVrdMrQd3LphK-1" vertex="1">
          <mxGeometry x="856" y="536" width="70" height="29" as="geometry" />
        </mxCell>
      </root>
    </mxGraphModel>
  </diagram>
  <diagram name="Page 10" id="SaieQhicK2urzHWD9gmF">
    <mxGraphModel dx="1434" dy="758" grid="1" gridSize="10" guides="1" tooltips="1" connect="1" arrows="1" fold="1" page="1" pageScale="1" pageWidth="1100" pageHeight="850" background="#ffffff" math="0" shadow="0">
      <root>
        <mxCell id="B5tmFDRW9FkTDhTTdYzT-0" />
        <mxCell id="B5tmFDRW9FkTDhTTdYzT-1" parent="B5tmFDRW9FkTDhTTdYzT-0" />
        <mxCell id="B5tmFDRW9FkTDhTTdYzT-2" value="" style="strokeWidth=1;shadow=0;dashed=0;align=center;html=1;shape=mxgraph.mockup.containers.browserWindow;rSize=0;strokeColor=#666666;mainText=,;recursiveResize=0;rounded=0;labelBackgroundColor=none;fontFamily=Verdana;fontSize=12;container=0;" parent="B5tmFDRW9FkTDhTTdYzT-1" vertex="1">
          <mxGeometry x="25" y="15" width="1050" height="820" as="geometry" />
        </mxCell>
        <mxCell id="B5tmFDRW9FkTDhTTdYzT-3" value="Page 10" style="strokeWidth=1;shadow=0;dashed=0;align=center;html=1;shape=mxgraph.mockup.containers.anchor;fontSize=17;fontColor=#666666;align=left;" parent="B5tmFDRW9FkTDhTTdYzT-1" vertex="1">
          <mxGeometry x="85" y="27" width="110" height="26" as="geometry" />
        </mxCell>
        <mxCell id="B5tmFDRW9FkTDhTTdYzT-4" value="https://www.default.com" style="strokeWidth=1;shadow=0;dashed=0;align=center;html=1;shape=mxgraph.mockup.containers.anchor;rSize=0;fontSize=17;fontColor=#666666;align=left;" parent="B5tmFDRW9FkTDhTTdYzT-1" vertex="1">
          <mxGeometry x="155" y="75" width="250" height="26" as="geometry" />
        </mxCell>
        <mxCell id="B5tmFDRW9FkTDhTTdYzT-5" value="*ovaj page vide samo admini*" style="text;strokeColor=none;fillColor=none;html=1;fontSize=24;fontStyle=1;verticalAlign=middle;align=center;" parent="B5tmFDRW9FkTDhTTdYzT-1" vertex="1">
          <mxGeometry x="370" y="20" width="420" height="40" as="geometry" />
        </mxCell>
        <mxCell id="B5tmFDRW9FkTDhTTdYzT-6" value="&lt;span style=&quot;font-size: 30px;&quot;&gt;Novi djelatnik - izrada korisničkog računa&lt;/span&gt;" style="text;strokeColor=none;fillColor=none;html=1;fontSize=24;fontStyle=1;verticalAlign=middle;align=left;" parent="B5tmFDRW9FkTDhTTdYzT-1" vertex="1">
          <mxGeometry x="255.5" y="169" width="635" height="40" as="geometry" />
        </mxCell>
        <mxCell id="qJhLV7ychIjXYj6Rv_s6-0" value="" style="rounded=0;whiteSpace=wrap;html=1;" parent="B5tmFDRW9FkTDhTTdYzT-1" vertex="1">
          <mxGeometry x="260" y="250" width="580" height="460" as="geometry" />
        </mxCell>
        <mxCell id="qJhLV7ychIjXYj6Rv_s6-3" value="Lozinka" style="fillColor=none;strokeColor=none;align=left;fontSize=14;" parent="B5tmFDRW9FkTDhTTdYzT-1" vertex="1">
          <mxGeometry x="300" y="480" width="260" height="40" as="geometry" />
        </mxCell>
        <mxCell id="qJhLV7ychIjXYj6Rv_s6-4" value="" style="html=1;shadow=0;dashed=0;shape=mxgraph.bootstrap.rrect;rSize=5;fillColor=none;strokeColor=#999999;align=left;spacing=15;fontSize=14;fontColor=#6C767D;" parent="B5tmFDRW9FkTDhTTdYzT-1" vertex="1">
          <mxGeometry x="300" y="520" width="500" height="30" as="geometry" />
        </mxCell>
        <mxCell id="qJhLV7ychIjXYj6Rv_s6-5" value="E-mail adresa" style="fillColor=none;strokeColor=none;align=left;fontSize=14;" parent="B5tmFDRW9FkTDhTTdYzT-1" vertex="1">
          <mxGeometry x="300" y="340" width="260" height="40" as="geometry" />
        </mxCell>
        <mxCell id="qJhLV7ychIjXYj6Rv_s6-6" value="" style="html=1;shadow=0;dashed=0;shape=mxgraph.bootstrap.rrect;rSize=5;fillColor=none;strokeColor=#999999;align=left;spacing=15;fontSize=14;fontColor=#6C767D;" parent="B5tmFDRW9FkTDhTTdYzT-1" vertex="1">
          <mxGeometry x="300" y="380" width="500" height="30" as="geometry" />
        </mxCell>
        <mxCell id="qJhLV7ychIjXYj6Rv_s6-7" value="OIB / MBO" style="fillColor=none;strokeColor=none;align=left;fontSize=14;" parent="B5tmFDRW9FkTDhTTdYzT-1" vertex="1">
          <mxGeometry x="300" y="410" width="260" height="40" as="geometry" />
        </mxCell>
        <mxCell id="qJhLV7ychIjXYj6Rv_s6-8" value="" style="html=1;shadow=0;dashed=0;shape=mxgraph.bootstrap.rrect;rSize=5;fillColor=none;strokeColor=#999999;align=left;spacing=15;fontSize=14;fontColor=#6C767D;" parent="B5tmFDRW9FkTDhTTdYzT-1" vertex="1">
          <mxGeometry x="300" y="450" width="500" height="30" as="geometry" />
        </mxCell>
        <mxCell id="zIfvEAkhEO7oSHLge9KF-0" value="Dodaj račun" style="html=1;shadow=0;dashed=0;shape=mxgraph.bootstrap.rrect;rSize=5;fillColor=#0085FC;strokeColor=none;align=center;fontSize=14;fontColor=#FFFFFF;" parent="B5tmFDRW9FkTDhTTdYzT-1" vertex="1">
          <mxGeometry x="580" y="630" width="220" height="40" as="geometry" />
        </mxCell>
        <mxCell id="zIfvEAkhEO7oSHLge9KF-1" value="&lt;font color=&quot;#ffffff&quot;&gt;Odustani&lt;/font&gt;" style="html=1;shadow=0;dashed=0;shape=mxgraph.bootstrap.rrect;rSize=5;fillColor=#98A2B0;strokeColor=#6c8ebf;align=center;fontSize=14;" parent="B5tmFDRW9FkTDhTTdYzT-1" vertex="1">
          <mxGeometry x="320" y="630" width="220" height="40" as="geometry" />
        </mxCell>
        <mxCell id="olSqcw8vrY3VmjErqHaO-0" value="Ime" style="fillColor=none;strokeColor=none;align=left;fontSize=14;" parent="B5tmFDRW9FkTDhTTdYzT-1" vertex="1">
          <mxGeometry x="300" y="270" width="180" height="40" as="geometry" />
        </mxCell>
        <mxCell id="olSqcw8vrY3VmjErqHaO-1" value="" style="html=1;shadow=0;dashed=0;shape=mxgraph.bootstrap.rrect;rSize=5;fillColor=none;strokeColor=#999999;align=left;spacing=15;fontSize=14;fontColor=#6C767D;" parent="B5tmFDRW9FkTDhTTdYzT-1" vertex="1">
          <mxGeometry x="300" y="310" width="230" height="30" as="geometry" />
        </mxCell>
        <mxCell id="olSqcw8vrY3VmjErqHaO-2" value="Prezime" style="fillColor=none;strokeColor=none;align=left;fontSize=14;" parent="B5tmFDRW9FkTDhTTdYzT-1" vertex="1">
          <mxGeometry x="570" y="270" width="180" height="40" as="geometry" />
        </mxCell>
        <mxCell id="olSqcw8vrY3VmjErqHaO-3" value="" style="html=1;shadow=0;dashed=0;shape=mxgraph.bootstrap.rrect;rSize=5;fillColor=none;strokeColor=#999999;align=left;spacing=15;fontSize=14;fontColor=#6C767D;" parent="B5tmFDRW9FkTDhTTdYzT-1" vertex="1">
          <mxGeometry x="570" y="310" width="235" height="30" as="geometry" />
        </mxCell>
      </root>
    </mxGraphModel>
  </diagram>
</mxfile>
